<svg viewBox="0 0 758.45 709.06" xmlns="http://www.w3.org/2000/svg"><g fill="none"><path d="m1 335c.2-2 .44-4 .7-6.06-.28 2.06-.52 4.06-.7 6.06z"/><path d="m494.85 40.48c-1.6-.25-3.21-.45-4.83-.64 1.62.19 3.23.4 4.83.64z"/><path d="m526.73 48.81c-2.08-.79-4.19-1.52-6.31-2.22 2.12.7 4.23 1.43 6.32 2.22z"/><path d="m512.31 44.13c-1.79-.49-3.61-.94-5.42-1.36 1.84.43 3.68.88 5.5 1.38z"/><path d="m501.2 41.57c.93.17 1.84.38 2.76.58-.96-.15-1.83-.41-2.76-.58z"/><path d="m495.3 40.54c1.08.17 2.15.37 3.23.56-1.08-.19-2.15-.39-3.23-.56z"/><path d="m276.65 39.11-.95.08 1-.08z"/><path d="m247.86 43.73-2.06.53 2.1-.54z"/><path d="m250.48 43.07.52-.07z"/><path d="m1.75 328.47c.25-1.86.52-3.71.83-5.56-.31 1.85-.58 3.7-.83 5.56z"/><path d="m271.78 39.51c-.69.06-1.37.14-2.06.21.69-.08 1.38-.16 2.08-.22z"/><path d="m255.21 42 .54-.11z"/><path d="m260 41.1.57-.09z"/><path d="m566.2 70.76-.16-.12z"/><path d="m592.72 96.6c-.93-1.15-1.89-2.27-2.85-3.39 1 1.12 1.93 2.25 2.86 3.4z"/><path d="m588.36 91.4c-1.51-1.7-3.05-3.35-4.62-5 1.57 1.63 3.12 3.28 4.63 5z"/><path d="m.07 360.12q-.07-3.37-.07-6.74 0 3.36.07 6.74z"/><path d="m533 51.36c-1.16-.5-2.33-1-3.5-1.43 1.17.47 2.34.93 3.5 1.43z"/><path d="m597.9 103.35q-2-2.77-4.13-5.44 2.12 2.67 4.13 5.44z"/><path d="m546.55 58c-.79-.44-1.6-.84-2.4-1.26.8.42 1.61.83 2.4 1.26z"/><path d="m553.85 62.23.72.48z"/><path d="m540.59 54.85q-3-1.49-6.09-2.83 3.07 1.35 6.09 2.83z"/><path d="m241.42 45.53-2.51.8c.85-.28 1.7-.56 2.56-.82z"/><path d="m39.31 341c0-.24 0-.47.07-.7-.03.21-.05.44-.07.7z"/><path d="m0 353.37q.06-9.19 1-18.37-.95 9.18-1 18.37z"/><path d="m4.21 314.33c.24-1.17.48-2.33.74-3.5-.26 1.17-.5 2.33-.74 3.5z"/><path d="m57 281.3-.2.4c.07-.13.13-.27.21-.4z"/><path d="m166.09 96.13.66-.82z"/><path d="m232.43 48.58c-.76.28-1.51.58-2.26.88.75-.3 1.51-.6 2.27-.88z"/><path d="m22.12 264.48 1.06-2c-.36.66-.71 1.33-1.06 2z"/><path d="m17.67 273.53c1-2.15 2-4.28 3.09-6.4q-1.6 3.18-3.09 6.4z"/><path d="m171.28 90.08.86-.94z"/><path d="m45.77 308.2c-.22.7-.44 1.4-.65 2.1.21-.71.43-1.41.65-2.11z"/><path d="m41.73 324c-.18.9-.34 1.8-.51 2.69.17-.91.33-1.81.51-2.71z"/><path d="m176.93 84.15.69-.68z"/><path d="m40.87 328.68c-.15.93-.29 1.85-.43 2.78.14-.93.28-1.86.43-2.8z"/><path d="m47.28 303.6c-.17.49-.34 1-.5 1.48.16-.5.34-1 .51-1.49z"/><path d="m50.74 294.53-.49 1.21z"/><path d="m52.69 290.07-.09.21z"/><path d="m53.94 287.41.27-.56z"/><path d="m2.8 321.64c.28-1.59.55-3.18.87-4.77-.32 1.59-.59 3.18-.87 4.77z"/><path d="m212.48 57.66c.59-.33 1.19-.63 1.79-1-.6.34-1.2.68-1.79 1z"/><path d="m211.94 58h.05z"/><path d="m206.65 61 .91-.55z"/><path d="m221 53.37.21-.1z"/><path d="m216.71 55.45 1.18-.58z"/><path d="m183 78.38c.33-.3.67-.58 1-.87z"/><path d="m709.58 299.14c.13.33.26.66.38 1-.12-.34-.25-.67-.38-1z"/><path d="m16.7 275.67c.31-.69.62-1.38.94-2.07-.32.69-.64 1.4-.94 2.07z"/><path d="m193.35 69.94-.38.29z"/><path d="m202.12 63.84 1.06-.68z"/><path d="m197.85 66.7.88-.6z"/><path d="m571.46 75c-1.72-1.43-3.46-2.84-5.23-4.19 1.78 1.36 3.52 2.77 5.24 4.21z"/><path d="m257.79 706.86c-1.69-.26-3.37-.53-5.05-.83 1.68.3 3.36.57 5.05.83z"/><path d="m250.23 705.57q-2.5-.48-5-1 2.5.52 5 1z"/><path d="m243 704.05c-2.36-.55-4.71-1.13-7.05-1.77 2.36.64 4.71 1.22 7.05 1.77z"/><path d="m479.55 708.83c-.57 0-1.14 0-1.72.06.58-.01 1.17-.04 1.72-.06z"/><path d="m236 702.28c-1.79-.48-3.56-1-5.33-1.54 1.74.54 3.51 1.06 5.33 1.54z"/><path d="m280.85 709-1.74-.07z"/><path d="m274.83 708.68-1.74-.11z"/><path d="m485.55 708.5-1.71.11z"/><path d="m190.57 683.5q-2.22-1.26-4.39-2.58 2.18 1.32 4.39 2.58z"/><path d="m206.6 691.68q-2.1-.95-4.17-1.95 2.07 1 4.17 1.95z"/><path d="m229.05 700.25c-1.28-.4-2.55-.81-3.82-1.24 1.27.43 2.54.84 3.82 1.24z"/><path d="m201.5 689.29q-5.19-2.53-10.21-5.38 5.03 2.83 10.21 5.38z"/><path d="m223.58 698.45c-1.43-.49-2.86-1-4.27-1.53 1.41.53 2.84 1.08 4.27 1.53z"/><path d="m218.35 696.57q-2.64-1-5.24-2.06c1.74.71 3.48 1.4 5.24 2.06z"/><path d="m212.18 694.11c-1.43-.59-2.86-1.2-4.27-1.83q2.09.94 4.27 1.83z"/><path d="m594.83 665q-4.89 4-10 7.66 5.1-3.66 10-7.66z"/><path d="m736 445.28q-1.62 3.09-3.38 6.13c1.15-2.03 2.27-4.07 3.38-6.13z"/><path d="m751.81 405q-1.5 5.58-3.32 11.06 1.83-5.5 3.32-11.06z"/><path d="m538.72 697.05c-2.1.78-4.23 1.51-6.36 2.22 2.13-.71 4.26-1.44 6.36-2.22z"/><path d="m554.54 690.42c-2.11 1-4.23 2-6.38 2.88 2.15-.92 4.27-1.88 6.38-2.88z"/><path d="m522.94 702.12c-2.51.69-5 1.32-7.58 1.91 2.55-.59 5.07-1.22 7.58-1.91z"/><path d="m267.25 669.06c.67.08 1.33.19 2 .26-.67-.07-1.33-.18-2-.26z"/><path d="m530.5 699.87c-2.23.71-4.46 1.38-6.71 2 2.21-.62 4.48-1.29 6.71-2z"/><path d="m547.24 693.7c-2.46 1-5 2-7.45 3 2.5-.97 4.99-1.96 7.45-3z"/><path d="m513.45 704.45q-2.94.64-5.91 1.2 2.97-.55 5.91-1.2z"/><path d="m121.49 616.86q-1.45-2.36-2.85-4.75 1.36 2.4 2.85 4.75z"/><path d="m124.49 621.57c-.7-1.07-1.39-2.15-2.08-3.24.69 1.09 1.38 2.17 2.08 3.24z"/><path d="m718.63 335.85c-.15-1.3-.33-2.6-.52-3.9.19 1.3.37 2.6.52 3.9z"/><path d="m718 331.28c-.2-1.33-.42-2.67-.65-4 .23 1.33.45 2.67.65 4z"/><path d="m719.53 346.49.06 1.27z"/><path d="m719.19 341.36c0 .36 0 .72.08 1.08-.03-.36-.05-.72-.08-1.08z"/><path d="m714.54 314.53.24.93z"/><path d="m25.92 451.64a193.66 193.66 0 0 1 -13.67-29 193.66 193.66 0 0 0 13.67 29z"/><path d="m712.22 306.66.39 1.23z"/><path d="m716.48 322.69c.26 1.26.5 2.52.73 3.79-.21-1.27-.47-2.48-.73-3.79z"/><path d="m.39 367.22q-.23-3.44-.31-6.88c.07 2.3.16 4.59.31 6.88z"/><path d="m127.74 626.34c-.74-1-1.46-2.1-2.18-3.16.72 1.06 1.44 2.12 2.18 3.16z"/><path d="m138.86 640.72c-.82-1-1.64-2-2.45-2.94.81.99 1.59 1.97 2.45 2.94z"/><path d="m185.51 680.52q-7.56-4.63-14.69-9.92 7.13 5.3 14.69 9.92z"/><path d="m715.74 389.68c.19-.85.37-1.7.55-2.55-.18.85-.36 1.7-.55 2.55z"/><path d="m142.64 645c-.85-.95-1.7-1.9-2.54-2.86.84.98 1.69 1.93 2.54 2.86z"/><path d="m135.34 636.47c-1.14-1.42-2.27-2.85-3.37-4.3 1.1 1.45 2.23 2.88 3.37 4.3z"/><path d="m659.59 208.58-53.31-92.26c-1.15-2-2.36-3.95-3.6-5.88 1.24 1.93 2.45 3.88 3.6 5.88z"/><path d="m170.49 670.35q-7.23-5.4-14-11.46 6.76 6.06 14 11.46z"/><path d="m718 377.61c-.13.86-.26 1.72-.4 2.59.16-.87.29-1.73.4-2.59z"/><path d="m719.56 362v-.79z"/><path d="m132 632.17q-1.65-2.19-3.24-4.42 1.56 2.25 3.24 4.42z"/><path d="m719.28 366.48c.08-1.05.16-2.1.22-3.16-.06 1.06-.14 2.11-.22 3.16z"/><path d="m719.71 351.82v1.08c.02-.36.01-.72 0-1.08z"/><path d="m718.86 371.08c0-.13 0-.26 0-.39z"/><path d="m625.88 76.1q3.51 4.58 6.75 9.38c.21.3.41.61.61.91q-5.19-7.78-11.07-15 1.37 1.68 2.69 3.37c.34.47.69.9 1.02 1.34z"/><path d="m147.5 650.21q-1.89-1.94-3.73-4 6.09 6.62 12.75 12.61-2.27-2-4.47-4.15c-1.53-1.43-3.05-2.93-4.55-4.46z"/><path d="m1.61 379.75q-.81-6.24-1.22-12.53a194.38 194.38 0 0 0 4.61 31.15c-.48-2.05-.91-4.11-1.32-6.18q-1.26-6.19-2.07-12.44z"/><path d="m260 707.2c2.44.34 4.88.65 7.34.89h-.05q-3.62-.37-7.29-.89z"/><path d="m16.7 275.67a193.76 193.76 0 0 0 -10.26 29.12q.85-3.18 1.8-6.35a193.74 193.74 0 0 1 8.46-22.77z"/><path d="m491.3 708h-.05c4.74-.47 9.45-1.14 14.11-2-2.56.45-5.12.86-7.71 1.21q-3.16.5-6.35.79z"/><path d="m739.15 439c-1 2.05-2 4.08-3.08 6.1a190.07 190.07 0 0 0 8.08-17.33l-.58 1.41q-2.07 4.95-4.42 9.82z"/><path d="m563 686.2c-2.31 1.23-4.65 2.4-7 3.54a196.62 196.62 0 0 0 28.83-17q-7.68 5.49-15.86 10.21c-1.97 1.05-3.97 2.18-5.97 3.25z"/><path d="m217.91 12.66c-2.53 1-5 2-7.52 3.06 2.48-1.06 5-2.09 7.51-3.05z"/><path d="m478.76.13c-2.32-.08-4.65-.13-7-.13 2.16 0 4.32 0 6.48.11z"/><path d="m492.73 1.15.91.11c-.86-.1-1.71-.21-2.57-.3.58.04 1.12.14 1.66.19z"/><path d="m744.18 427.69q2.33-5.7 4.27-11.52c-.07.22-.15.44-.22.66q-1.86 5.48-4.05 10.86z"/><path d="m187.65 27.26c-3.24 1.93-6.44 3.93-9.57 6 2-1.34 4-2.65 6-3.91 1.2-.69 2.39-1.35 3.57-2.09z"/><path d="m158.82 48.09q2.72-2.37 5.52-4.63a192.85 192.85 0 0 0 -15.06 13.54c1.59-1.59 3.2-3.16 4.85-4.69s3.1-2.84 4.69-4.22z"/><path d="m259.75 1.94 1.69-.23z"/><path d="m581.53 624.91-.7.68z"/><path d="m253.88 2.85 1.67-.27z"/><path d="m587.19 619c-.29.32-.58.64-.88.95.3-.34.59-.66.88-.95z"/><path d="m505.74 3c1.11.19 2.21.4 3.32.61-2.53-.5-5.07-.93-7.62-1.33l2.36.36c.65.14 1.29.27 1.94.36z"/><path d="m39.18 342.56c-.08 1.06-.16 2.12-.22 3.18.06-1.06.14-2.12.22-3.18z"/><path d="m714.08 396.15v-.01z"/><path d="m709.52 410c.26-.67.52-1.35.77-2-.25.68-.51 1.36-.77 2z"/><path d="m713.34 398.76c0 .11-.07.23-.11.34.04-.1.08-.23.11-.34z"/><path d="m272.91.55 1.72-.11z"/><path d="m702.18 426.31-.68 1.32c.24-.44.5-.88.68-1.32z"/><path d="m707.72 414.52.81-2z"/><path d="m592.39 612.91c-.23.28-.45.56-.68.83.23-.27.45-.55.68-.83z"/><path d="m560.61 642.35-.87.6z"/><path d="m751.55 303q2.15 7.86 3.63 15.85-1.48-7.97-3.63-15.85z"/><path d="m749.37 295.64c.76 2.4 1.48 4.81 2.14 7.23-.66-2.42-1.38-4.87-2.14-7.23z"/><path d="m497.48 1.71 1.44.22z"/><path d="m484.71.43.7.06z"/><path d="m758.17 343.89q.52 9.83.07 19.68.45-9.84-.07-19.68z"/><path d="m746.65 287.66q1.27 3.48 2.41 7-1.14-3.51-2.41-7z"/><path d="m740.59 273q1.42 3.06 2.73 6.17-1.32-3.1-2.73-6.17z"/><path d="m547.15 15.3c1.31.55 2.61 1.12 3.91 1.7-1.3-.58-2.6-1.15-3.91-1.7z"/><path d="m633.56 86.88c.8 1.19 1.58 2.4 2.35 3.62-.77-1.22-1.55-2.43-2.35-3.62z"/><path d="m564.1 23.45c1.28.69 2.54 1.39 3.8 2.11-1.26-.72-2.52-1.42-3.8-2.11z"/><path d="m758.15 365.49c-.07 1.11-.14 2.22-.22 3.32.07-1.1.15-2.21.22-3.32z"/><path d="m743.61 279.85q1.53 3.69 2.91 7.42-1.38-3.74-2.91-7.42z"/><path d="m732.54 257.42c1.27 2.19 2.47 4.41 3.65 6.65-1.19-2.24-2.38-4.46-3.65-6.65z"/><path d="m675.51 158.72-35.69-61.78q-1.47-2.52-3-5 1.53 2.47 3 5z"/><path d="m574.09 29.23h.06c1.63 1 3.23 2 4.83 3.11.42.27.83.56 1.24.83 1.21.82 2.41 1.64 3.59 2.48q-7.27-5.14-15-9.61l.47.27q2.42 1.44 4.81 2.92z"/><path d="m557.5 20 .18.09c1.71.84 3.4 1.72 5.09 2.61l1.28.7q-6-3.24-12.2-6.06l.7.32c1.66.78 3.32 1.56 4.95 2.34z"/><path d="m594.18 43.53q-4.65-3.78-9.52-7.25l.44.31q4.64 3.35 9.08 6.94z"/><path d="m540.39 12.58c1.78.67 3.54 1.38 5.29 2.1l.48.2q-5.49-2.28-11.1-4.22 2.49.86 5 1.79z"/><path d="m529.41 8.8c1.34.42 2.68.86 4 1.3-3.61-1.21-7.25-2.33-10.94-3.33h-.07c1.82.49 3.63 1 5.43 1.57z"/><path d="m599.89 48.35q4.3 3.78 8.39 7.81l1.1 1.1q1.54 1.55 3 3.11a194.84 194.84 0 0 0 -17-15.86q1.68 1.38 3.33 2.81z"/><path d="m758.17 343.86a196.68 196.68 0 0 0 -3-25 194 194 0 0 1 2.75 21.31q.15 1.83.25 3.69z"/><path d="m278.9.23 1.73-.07z"/><path d="m757.05 377.82c-.08.73-.16 1.46-.26 2.19.1-.73.21-1.46.26-2.19z"/><path d="m516.27 5.19c.81.19 1.61.41 2.41.61-2.85-.72-5.72-1.39-8.61-2l2.2.48c1.33.32 2.67.59 4 .91z"/><path d="m757.71 371.53c-.08.94-.17 1.88-.26 2.82.09-.94.18-1.88.26-2.82z"/><path d="m621.14 70.16.07.09q-4-4.78-8.24-9.29l.56.58q3.91 4.18 7.61 8.62z"/><path d="m575.43 630.67-1.16 1z"/><path d="m155.77 598.61c-1.24-1.94-2.45-3.89-3.6-5.88 1.16 2 2.37 3.95 3.6 5.88z"/><path d="m156.71 600.05c.48.74 1 1.45 1.49 2.18-.5-.73-1-1.44-1.5-2.18z"/><path d="m170.11 617.66c1.43 1.62 2.91 3.2 4.41 4.75-1.5-1.55-3-3.13-4.41-4.75z"/><path d="m135.65 72.15c.84-1 1.71-2.08 2.57-3.11-.86 1.03-1.73 2.07-2.57 3.11z"/><path d="m48.87 409.9c-.12-.33-.25-.65-.37-1 .12.35.25.67.37 1z"/><path d="m175.89 623.83c.39.4.8.77 1.2 1.17l-1.21-1.17z"/><path d="m199.08 643.19c.31.22.63.41.94.62-.31-.21-.63-.4-1-.62z"/><path d="m185.75 633c-1.14-1-2.25-2-3.36-3 1.11 1 2.22 2 3.36 3z"/><path d="m192.28 638.3c1.19.92 2.43 1.79 3.65 2.66-1.22-.88-2.46-1.74-3.66-2.66z"/><path d="m46.23 402.39c-.13-.41-.26-.82-.38-1.23.15.41.25.84.38 1.23z"/><path d="m140 66.92c.91-1 1.84-2.07 2.77-3.1-.9 1.03-1.83 2.06-2.77 3.1z"/><path d="m187 634.09c1.69 1.41 3.4 2.8 5.14 4.13-1.75-1.35-3.47-2.74-5.17-4.15z"/><path d="m131.41 77.59c.81-1.08 1.63-2.15 2.47-3.22-.88 1.07-1.66 2.14-2.47 3.22z"/><path d="m217.7 654.12c-.64-.32-1.26-.67-1.9-1 .64.33 1.27.68 1.9 1z"/><path d="m38.75 357.23c0-.36 0-.72 0-1.08-.02.36-.01.72 0 1.08z"/><path d="m38.93 362.55-.06-1.26z"/><path d="m123.26 89.31q1.24-1.95 2.53-3.86-1.29 1.9-2.53 3.86z"/><path d="m118.47 97.11c1.16-2 2.34-4 3.56-5.9-1.22 1.94-2.4 3.91-3.56 5.9z"/><path d="m38.9 347c0 .68 0 1.35-.08 2 0-.68 0-1.36.08-2z"/><path d="m41.19 382.24c.24 1.38.51 2.76.79 4.13-.28-1.37-.55-2.75-.8-4.13z"/><path d="m43.92 394.52-.24-.93z"/><path d="m40.45 377.77c.2 1.34.42 2.67.65 4-.23-1.34-.45-2.68-.65-4z"/><path d="m127.3 83.26c.8-1.15 1.61-2.29 2.44-3.43-.83 1.17-1.64 2.28-2.44 3.43z"/><path d="m39.83 373.21c.16 1.34.34 2.67.54 4-.2-1.34-.38-2.67-.54-4z"/><path d="m39.27 367.69c0-.36-.05-.71-.08-1.07.03.38.05.71.08 1.07z"/><path d="m551.81 648-.91.55z"/><path d="m517 663.53.78-.25z"/><path d="m524.13 661.16-1.46.52z"/><path d="m526 660.48.61-.24z"/><path d="m223.24 10.74 1.58-.54z"/><path d="m505.85 666.47 1.41-.32-1.44.33z"/><path d="m512.66 664.79c-.65.18-1.31.34-2 .51.7-.17 1.34-.3 2-.51z"/><path d="m228.84 8.9 1.6-.5z"/><path d="m542.91 653c1-.51 2-1 3-1.55-1 .53-2 1-3 1.56z"/><path d="m556.34 645.22-1.06.68z"/><path d="m501.1 667.47 2.15-.42z"/><path d="m533.07 657.64-2 .85c.67-.28 1.34-.56 2-.85z"/><path d="m538.9 655 .86-.42z"/><path d="m537.45 655.69c-.61.29-1.22.56-1.83.83z"/><path d="m426.99 670.28 45.01-.02-56.03.02z"/><path d="m239.65 663c.5.16 1 .29 1.52.45-.51-.16-1-.29-1.53-.45z"/><path d="m258.07 667.64c1.7.32 3.41.61 5.12.88q-2.56-.4-5.13-.88z"/><path d="m231.72 660.24c2.1.8 4.21 1.53 6.34 2.23-2.13-.7-4.25-1.43-6.35-2.23z"/><path d="m144.58 61.87c1-1.1 2.09-2.19 3.14-3.27-1.05 1.08-2.11 2.17-3.14 3.27z"/><path d="m224 657c-2-.9-4.07-1.83-6.06-2.81 1.95 1.01 3.98 1.94 6.06 2.81z"/><path d="m496.33 668.31 1.73-.29-1.74.29z"/><path d="m225.48 657.7c2 .86 4 1.68 6 2.46-2-.77-4-1.6-6-2.46z"/><path d="m491.52 669 2.11-.28-2.13.28z"/><path d="m486.68 669.55 2.05-.22-2.06.22z"/><path d="m166.11 42.06c1.32-1 2.64-2.06 4-3.07-1.36 1.01-2.68 2.01-4 3.07z"/><path d="m172.12 37.49q2-1.49 4.11-2.91-2.07 1.42-4.11 2.91z"/><path d="m481.81 669.94 1.71-.13c-.58.05-1.14.1-1.72.13z"/><path d="m737.18 266c.86 1.68 1.69 3.36 2.5 5.06-.81-1.7-1.68-3.38-2.5-5.06z"/><path d="m186.17 358.01.03 108.04z"/><path d="m379.31 577.46-93.59-53.99 93.59 53.99 40-23.12z"/><path d="m186.2 466.05 40.03 23.09z"/><path d="m412 546.41c-1.17 0-2.33 0-3.5-.1 1.14.06 2.3.09 3.5.1z"/><path d="m416.74 546.28c-1.13.07-2.26.11-3.4.12 1.14-.01 2.27-.05 3.4-.12z"/><path d="m224.94 469.24c-.17-.47-.37-.94-.53-1.42.17.48.36.95.53 1.42z"/><path d="m407.54 546.23q-1.57-.11-3.15-.3 1.61.2 3.15.3z"/><path d="m196.69 286.93c.58-1 1.19-2 1.83-3-.64 1.01-1.25 2-1.83 3z"/><path d="m199.06 283.18c.58-.87 1.19-1.72 1.82-2.56-.63.84-1.24 1.69-1.82 2.56z"/><path d="m201.44 279.86c.77-1 1.58-2 2.4-2.94-.84.96-1.63 1.94-2.4 2.94z"/><path d="m194.42 291.12c.49-1 1-2 1.58-3-.55 1-1.09 2-1.58 3z"/><path d="m403.46 545.83c-1.25-.17-2.5-.38-3.75-.61 1.29.23 2.5.44 3.75.61z"/><path d="m227 474.09c-.23-.49-.46-1-.67-1.47.21.5.43.98.67 1.47z"/><path d="m341.75 162.77c1.12-.07 2.24-.1 3.36-.12-1.11.02-2.24.05-3.36.12z"/><path d="m229.3 478.6-.63-1.17c.21.39.41.79.63 1.17z"/><path d="m179 145.7a22.61 22.61 0 0 1 2.79-1.38 22.61 22.61 0 0 0 -2.79 1.38z"/><path d="m420.75 598.24 107.5-62.11z"/><path d="m448.44 73.51a24.3 24.3 0 0 1 2.82.2 24.3 24.3 0 0 0 -2.82-.2z"/><path d="m186.13 243.13 93.55-54.05-93.55 54.05.02 46.19z"/><path d="m657 273.65a24.7 24.7 0 0 1 1.37 2.78 24.7 24.7 0 0 0 -1.37-2.78z"/><path d="m460 76.69a23.18 23.18 0 0 1 2.23 1.47 23.18 23.18 0 0 0 -2.23-1.47z"/><path d="m173 150.57a24.11 24.11 0 0 1 4.62-4 24.11 24.11 0 0 0 -4.62 4z"/><path d="m98.3 425.13a24.82 24.82 0 0 1 0-3.11 24.82 24.82 0 0 0 0 3.11z"/><path d="m101.42 435.41a23.91 23.91 0 0 1 -3-8.74 23.91 23.91 0 0 0 3 8.74z"/><path d="m167.9 160.06-.04.16z"/><path d="m658.41 276.43a24.61 24.61 0 0 1 1 2.93 24.61 24.61 0 0 0 -1-2.93z"/><path d="m572.29 351.04-.01-34.69z"/><path d="m378.96 131.71-39.8 23z"/><path d="m572.33 465.93-93.56 54.05 93.56-54.05-.02-46.2z"/><path d="m394.31 95.63 112.11 64.67z"/><path d="m147.41 268.62.07 202.3z"/><path d="m532.31 385.13a28.77 28.77 0 0 1 .1 3.35 28.77 28.77 0 0 0 -.1-3.35z"/><path d="m334.53 103.11-149.81 40.19a24.74 24.74 0 0 0 -3 1 24.74 24.74 0 0 1 3-1z"/><path d="m139.14 267.53-39.89 149.07z"/><path d="m105.22 440.38 34.18 34.16z"/><path d="m460 76.69a24.13 24.13 0 0 0 -5.66-2.36 26.15 26.15 0 0 0 -3.05-.62 26.15 26.15 0 0 1 3.05.62 24.13 24.13 0 0 1 5.66 2.36z"/><path d="m480.09 95.65-15.19-15.19c-.37-.37-.76-.73-1.15-1.07.39.34.78.7 1.15 1.07z"/><path d="m523.9 408.34-90.75 90.82a29.33 29.33 0 0 1 -9.51 6.33 29.33 29.33 0 0 0 9.51-6.33z"/><path d="m591.02 547.25-.47 1.78z"/><path d="m280.93 473.54h-.11a29.32 29.32 0 0 1 -18-14.36 29.32 29.32 0 0 0 18 14.36h.11l124 33.18a29.59 29.59 0 0 0 5.7.93 29.59 29.59 0 0 1 -5.7-.93z"/><path d="m183.84 518.95 46.23 46.19z"/><path d="m316.57 634.75c-.51.14-1 .26-1.55.36.52-.1 1-.22 1.55-.36l46.68-12.52z"/><path d="m423.94 605.94 149.8-40.19c.51-.13 1-.29 1.51-.46-.5.17-1 .33-1.51.46z"/><path d="m473.7 513.37 44.85-44.89z"/><path d="m531.47 235c.23.48.45 1 .67 1.46-.22-.52-.44-1.01-.67-1.46z"/><path d="m533.52 239.82c.18.47.37.94.53 1.41-.16-.47-.35-.94-.53-1.41z"/><path d="m529.16 230.45.62 1.17z"/><path d="m559.4 425.88c-.59.86-1.19 1.71-1.82 2.55.63-.84 1.23-1.69 1.82-2.55z"/><path d="m561.77 422.12c-.59 1-1.19 2-1.83 3 .64-1.01 1.24-2 1.83-3z"/><path d="m564.05 417.93c-.5 1-1 2-1.59 3 .54-1 1.09-2 1.59-3z"/><path d="m350.93 162.82c1 .08 2.09.17 3.13.3-1.06-.12-2.06-.23-3.13-.3z"/><path d="m355 163.23c1.25.17 2.5.37 3.74.61-1.24-.24-2.49-.44-3.74-.61z"/><path d="m359.61 164c1.31.27 2.61.56 3.91.91-1.3-.34-2.6-.63-3.91-.91z"/><path d="m532.21 391.23c-.1.77-.22 1.55-.37 2.31.16-.76.27-1.54.37-2.31z"/><path d="m557 429.2c-.77 1-1.57 2-2.39 2.93.83-.96 1.63-1.93 2.39-2.93z"/><path d="m418.86 507a28.14 28.14 0 0 1 -4.4.66 28.14 28.14 0 0 0 4.4-.66z"/><path d="m498.17 256.15 33.27 124a27.62 27.62 0 0 1 .64 3.08 27.62 27.62 0 0 0 -.64-3.08l-33.27-124a29.11 29.11 0 0 0 -4.54-9.51 29.11 29.11 0 0 1 4.54 9.51z"/><path d="m317.08 523.3 77.86 20.84c1.3.34 2.61.64 3.92.9-1.31-.26-2.62-.56-3.92-.9z"/><path d="m295 629.86-.24-.19z"/><path d="m194.43 356.92 28.45 106z"/><path d="m554 432.79c-.88 1-1.79 2-2.73 2.93.97-.95 1.88-1.93 2.73-2.93z"/><path d="m346.5 162.65c1.16 0 2.32 0 3.49.1-1.17-.07-2.33-.1-3.49-.1z"/><path d="m284.76 195.69-77.58 77.64c-1 .95-1.86 1.94-2.75 2.94.89-1 1.79-2 2.75-2.94z"/><path d="m306.48 635.22-.77-.13z"/><path d="m305 634.91-.75-.18z"/><path d="m120.36 187.89-58.73 219.46c-.35 1.33-.66 2.66-.92 4 .26-1.33.57-2.66.92-4z"/><path d="m588.59 553.92a24 24 0 0 1 -5.69 7 24 24 0 0 0 5.69-7z"/><path d="m638.1 521.17 58.72-219.47c.36-1.32.67-2.65.93-4-.26 1.33-.57 2.66-.93 4z"/><path d="m579.49 563.36a23.19 23.19 0 0 1 -2.78 1.38 23.19 23.19 0 0 0 2.78-1.38z"/><path d="m394.11 47-219.43 58.9c-1.27.34-2.53.72-3.77 1.14 1.24-.42 2.5-.8 3.77-1.14z"/><path d="m577.77 138.5-85.49-85.43c-1-1-2-1.91-3-2.81 1 .9 2 1.84 3 2.81z"/><path d="m311.24 635.53h-.9z"/><path d="m308 635.42c-.26 0-.52 0-.78-.08.28.04.54.06.78.08z"/><path d="m314.78 635.15c-.44.08-.88.16-1.32.21.44-.05.88-.13 1.32-.21z"/><path d="m309.61 635.53c-.28 0-.55 0-.82 0 .27-.01.54-.01.82 0z"/><path d="m303.35 634.48-.62-.2z"/><path d="m312.93 635.42-1 .09z"/><path d="m300.47 633.38-.59-.27z"/><path d="m301.9 634-.61-.23z"/><path d="m299.09 632.69-.58-.31z"/><path d="m60.05 415.35v-.18z"/><path d="m167 108.52.26-.1z"/><path d="m297.74 631.9-.54-.33z"/><path d="m296.37 631-.44-.32z"/><path d="m364.34 662.03 81.83-21.95z"/><path d="m269.17 658.78c-1-.89-2-1.82-3-2.79.98 1.01 1.98 1.9 3 2.79z"/><path d="m486.15 47.7c.44.34.86.71 1.3 1.07-.45-.36-.86-.77-1.3-1.07z"/></g><path d="m487.45 48.77c.61.49 1.23 1 1.83 1.49-.6-.52-1.22-1-1.83-1.49z"/><path d="m167.23 108.42c1.21-.49 2.43-1 3.68-1.38-1.25.42-2.47.89-3.68 1.38z"/><path d="m60.08 415.17c.17-1.28.38-2.55.63-3.83-.25 1.28-.46 2.55-.63 3.83z"/><path d="m638.1 521.17 58.72-219.47c.36-1.32.67-2.65.93-4s.47-2.64.65-4a.09.09 0 0 1 0-.05 62.7 62.7 0 0 0 -17.79-52.42l-102.84-102.73-85.49-85.43c-1-1-2-1.91-3-2.81-.6-.52-1.22-1-1.83-1.49-.44-.36-.86-.73-1.3-1.07a62.74 62.74 0 0 0 -54.3-10.8l-37.74 10.1-219.43 58.9c-1.27.34-2.53.72-3.77 1.14s-2.47.89-3.68 1.38l-.26.1a62.84 62.84 0 0 0 -36.46 41.48l-10.15 37.92-58.73 219.43c-.35 1.33-.66 2.66-.92 4s-.46 2.55-.63 3.83v.18a62.79 62.79 0 0 0 17.79 52.43l188.31 188.21c1 1 2 1.9 3 2.79s2 1.67 3 2.45l.15.12a62.65 62.65 0 0 0 54.28 10.81l37.73-10.17 81.83-21.95 137.61-36.92a62.78 62.78 0 0 0 44.15-44zm-214.16 84.77-25.33 14.64a38.9 38.9 0 0 1 -29.46 3.8 38.14 38.14 0 0 1 -5.9-2.15l-46.68 12.52c-.51.14-1 .26-1.55.36h-.24c-.44.08-.88.16-1.32.21-.17 0-.35 0-.53.06l-1 .09c-.22 0-.44 0-.66 0h-.9-.73c-.28 0-.55 0-.82 0l-.77-.08c-.26 0-.52 0-.78-.08s-.51-.08-.76-.12l-.77-.13c-.26-.05-.51-.12-.76-.18l-.75-.18h-.05c-.27-.07-.53-.16-.8-.24l-.62-.2c-.28-.09-.56-.2-.83-.31l-.61-.23c-.28-.11-.55-.24-.82-.36l-.59-.27c-.27-.13-.52-.28-.79-.42l-.58-.31c-.26-.15-.51-.32-.77-.48l-.54-.33-.83-.59-.44-.32c-.34-.25-.66-.52-1-.8l-.24-.19c-.39-.35-.78-.71-1.15-1.08l-63.49-63.45-46.24-46.12-25.33-14.61a38.73 38.73 0 0 1 -19.11-29.8l-34.18-34.16a23.85 23.85 0 0 1 -6.76-13.71c-.07-.51-.12-1-.16-1.54a24.82 24.82 0 0 1 0-3.11 23.41 23.41 0 0 1 .4-3.11c.1-.52.22-1 .36-1.54l.2-.77 39.89-149.07v-29.29a38.72 38.72 0 0 1 16.25-31.45l12.48-46.62v-.16a23.6 23.6 0 0 1 1.68-4.38 23.1 23.1 0 0 1 1.56-2.68 24.69 24.69 0 0 1 1.89-2.43 24.11 24.11 0 0 1 4.62-4c.43-.29.86-.56 1.31-.82a22.61 22.61 0 0 1 2.79-1.38 24.74 24.74 0 0 1 3-1l149.81-40.19 25.32-14.63a38.85 38.85 0 0 1 29.46-3.81 37.18 37.18 0 0 1 5.9 2.16l46.67-12.6a24.17 24.17 0 0 1 4.68-.76h1.87a24.3 24.3 0 0 1 2.82.2 26.15 26.15 0 0 1 3.05.62 24.13 24.13 0 0 1 5.69 2.33 23.18 23.18 0 0 1 2.23 1.47c.53.39 1.05.79 1.55 1.23s.78.7 1.15 1.07l15.19 15.19 94.52 94.45 25.36 14.62a38.71 38.71 0 0 1 19.11 29.8l34.18 34.16a23.59 23.59 0 0 1 3.8 5 23.47 23.47 0 0 1 2.36 5.71c.13.49.25 1 .35 1.5a23.8 23.8 0 0 1 -.34 10.83l-40.14 149.8v29.24a38.71 38.71 0 0 1 -16.26 31.46l-12.05 45-.47 1.78a23.68 23.68 0 0 1 -2 4.89 24 24 0 0 1 -5.69 7 23.59 23.59 0 0 1 -6.19 3.79c-.48.2-1 .38-1.46.55s-1 .33-1.51.46z" fill="#81a684"/><path d="m659.75 280.86a24.06 24.06 0 0 1 .42 6.17 24.06 24.06 0 0 0 -.42-6.17z"/><path d="m660.17 287a24.09 24.09 0 0 1 -.76 4.66 24.09 24.09 0 0 0 .76-4.66z"/><path d="m313.46 635.36c-.17 0-.35 0-.53.06.18-.02.36-.03.53-.06z"/><path d="m301.29 633.74c-.28-.11-.55-.24-.82-.36.27.12.53.25.82.36z"/><path d="m302.73 634.28c-.28-.09-.56-.2-.83-.31.27.11.55.22.83.31z"/><path d="m315 635.11h-.24z"/><path d="m590.55 549a23.68 23.68 0 0 1 -2 4.89 23.68 23.68 0 0 0 2-4.89z"/><path d="m582.9 561a23.3 23.3 0 0 1 -3.41 2.41 23.3 23.3 0 0 0 3.41-2.41z"/><path d="m462.2 78.16c.53.39 1.05.79 1.55 1.23-.5-.39-1.02-.84-1.55-1.23z"/><path d="m299.88 633.11c-.27-.13-.52-.28-.79-.42.27.14.52.31.79.42z"/><path d="m446.57 73.54h1.87c-.62-.04-1.24-.04-1.87 0z"/><path d="m171.14 153a24.69 24.69 0 0 1 1.89-2.43 24.69 24.69 0 0 0 -1.89 2.43z"/><path d="m230.07 565.14 63.49 63.45c.37.37.76.73 1.15 1.08-.39-.35-.78-.71-1.15-1.08z"/><path d="m298.51 632.38c-.26-.15-.51-.32-.77-.48.26.16.51.33.77.48z"/><path d="m99.25 416.6-.2.77c-.14.51-.26 1-.36 1.54.1-.52.22-1 .36-1.54z"/><path d="m167.9 160.06a23.6 23.6 0 0 1 1.68-4.38 23.6 23.6 0 0 0 -1.68 4.38z"/><path d="m297.2 631.57-.83-.59z"/><path d="m295.93 630.66c-.34-.25-.66-.52-1-.8.34.28.66.55 1 .8z"/><path d="m311.9 635.51c-.22 0-.44 0-.66 0 .22.02.44.02.66 0z"/><path d="m305.71 635.09c-.26-.05-.51-.12-.76-.18.25.09.5.09.76.18z"/><path d="m307.24 635.34c-.26 0-.51-.08-.76-.12.25.04.52.09.76.12z"/><path d="m304.15 634.72h.05c-.28-.07-.56-.17-.85-.25.27.09.53.18.8.25z"/><path d="m310.34 635.56h-.73z"/><path d="m308.79 635.5-.77-.08z"/><path d="m569.53 196.71-63.11-36.41z" fill="#57886c"/><path d="m611 472.6q.06-.92.06-1.83v-30.33l-.06-202.3a30.38 30.38 0 0 0 -13.62-25.29c-.5-.34-1-.66-1.55-1l-26.28-15.16-63.13-36.39-112.11-64.67a30.41 30.41 0 0 0 -28.7-.85c-.55.27-1.09.56-1.62.86l-26.26 15.18-175.18 101.18a30.41 30.41 0 0 0 -15.09 24.43c0 .61-.06 1.22-.06 1.84v30.33l.07 202.3a30.37 30.37 0 0 0 13.6 25.28c.51.34 1 .67 1.57 1l26.26 15.15 175.24 101.1a30.64 30.64 0 0 0 7.17 3 30.72 30.72 0 0 0 21.4-2.09c.59-.29 1.18-.57 1.76-.9l26.27-15.18 107.49-62.11 67.68-39.15a30.38 30.38 0 0 0 15.09-24.4zm-132.23 47.4-12.38 12.4a76.35 76.35 0 0 1 -47.08 22l-40 23.12-93.59-54-17-4.54-.25-.07a76.36 76.36 0 0 1 -42.27-29.72l-40-23.09v-108l-4.54-16.93a76.26 76.26 0 0 1 4.52-51.76v-46.19l93.55-54 12.39-12.4a76.31 76.31 0 0 1 47.09-22l39.8-23 .2-.11 93.59 54 17 4.54.26.07a76.35 76.35 0 0 1 42.26 29.71l40 23.09v73.35 34.53l4.51 17a76.25 76.25 0 0 1 -4.52 51.76v46.2z" fill="#57886c"/><path d="m379.16 131.6-.2.11z"/><path d="m559.94 425.09c-.17.26-.36.52-.54.79.18-.27.37-.53.54-.79z"/><path d="m554.62 432.13-.59.66z"/><path d="m557.58 428.43c-.19.26-.37.51-.57.77.2-.26.38-.51.57-.77z"/><path d="m518.55 468.48 32.74-32.76h.01-.01z"/><path d="m562.46 420.91c-.22.41-.45.81-.69 1.21.23-.4.47-.8.69-1.21z"/><path d="m399.71 545.22-.85-.18z"/><path d="m534.05 241.23c.57 1.61 1.09 3.23 1.53 4.89-.44-1.66-.96-3.28-1.53-4.89z"/><path d="m404.39 545.93-.93-.1z"/><path d="m231.89 482.85q-1.37-2.07-2.59-4.25 1.23 2.18 2.59 4.25z"/><path d="m568.85 370.11-33.27-124c-.44-1.66-1-3.28-1.53-4.89-.16-.47-.35-.94-.53-1.41-.43-1.14-.89-2.28-1.38-3.39-.22-.49-.44-1-.67-1.46-.53-1.14-1.09-2.25-1.69-3.35l-.62-1.17c-.82-1.45-1.69-2.89-2.61-4.28a68.07 68.07 0 0 0 -38.75-28l-.26-.07-124-33.19c-1.3-.35-2.6-.64-3.91-.91l-.87-.17c-1.24-.24-2.49-.44-3.74-.61l-.94-.11c-1-.13-2.09-.22-3.13-.3l-.94-.07c-1.17-.07-2.33-.1-3.49-.1-.47 0-.93 0-1.39 0-1.12 0-2.24 0-3.36.12a68.1 68.1 0 0 0 -43.8 19.75l-13.16 13.17-77.59 77.64c-1 .95-1.86 1.94-2.75 2.94l-.58.65c-.82 1-1.63 1.94-2.4 2.94l-.56.76c-.63.84-1.24 1.69-1.82 2.56-.18.26-.37.52-.54.79-.64 1-1.25 2-1.83 3-.24.4-.47.81-.69 1.21-.55 1-1.09 2-1.58 3a68.1 68.1 0 0 0 -4.8 47.81l4.82 18 28.45 106c.45 1.65 1 3.27 1.53 4.86.16.48.36.95.53 1.42.43 1.14.89 2.27 1.38 3.38.21.49.44 1 .67 1.47.53 1.13 1.09 2.24 1.68 3.34l.63 1.17q1.23 2.17 2.59 4.25a68.13 68.13 0 0 0 38.75 28l.26.07 46.16 12.35 77.86 20.84c1.3.34 2.61.64 3.92.9l.85.18c1.25.23 2.5.44 3.75.61l.93.1q1.58.2 3.15.3l.93.08c1.17.06 2.33.09 3.5.1h1.37c1.14 0 2.27 0 3.4-.12a68 68 0 0 0 43.8-19.75l13.16-13.16 44.85-44.89 32.74-32.76c.94-1 1.85-1.93 2.73-2.93l.59-.66c.82-1 1.62-1.94 2.39-2.93.2-.26.38-.51.57-.77.63-.84 1.23-1.69 1.82-2.55.18-.27.37-.53.54-.79.64-1 1.24-2 1.83-3 .24-.4.47-.8.69-1.21.55-1 1.09-2 1.59-3a68.13 68.13 0 0 0 4.77-47.76zm-41.3 33.76a27.75 27.75 0 0 1 -3.65 4.47l-90.75 90.82a29.33 29.33 0 0 1 -9.51 6.33 28.47 28.47 0 0 1 -4.78 1.49 28.14 28.14 0 0 1 -4.4.66 30.26 30.26 0 0 1 -3.81 0 29.59 29.59 0 0 1 -5.7-.93l-124-33.18h-.11a29.32 29.32 0 0 1 -18-14.36c-.45-.85-.88-1.71-1.25-2.6a28.5 28.5 0 0 1 -1.24-3.65l-33.35-124.02c-.17-.63-.32-1.26-.44-1.89a29.14 29.14 0 0 1 -.49-7.61 30.18 30.18 0 0 1 .93-5.6 29.21 29.21 0 0 1 7.54-13.09l90.75-90.81a29.19 29.19 0 0 1 13.09-7.55 27.67 27.67 0 0 1 3.71-.74 28.17 28.17 0 0 1 3.79-.26 29 29 0 0 1 7.6 1l124 33.19h.11a29.42 29.42 0 0 1 13 7.57 30.46 30.46 0 0 1 3 3.52 29.11 29.11 0 0 1 4.54 9.51l33.27 124a27.62 27.62 0 0 1 .64 3.08c.09.63.17 1.26.23 1.9a28.77 28.77 0 0 1 .1 3.35c0 .92-.09 1.84-.2 2.75s-.22 1.55-.37 2.31a29.29 29.29 0 0 1 -4.25 10.34z" fill="#466060"/><path d="m198.52 284c.17-.27.36-.53.54-.79-.18.23-.37.49-.54.79z"/><path d="m200.88 280.62.56-.76z"/><path d="m345.11 162.65h1.39c-.5-.01-.93-.01-1.39 0z"/><path d="m350 162.75.94.07z"/><path d="m354.06 163.12.94.11z"/><path d="m224.41 467.82c-.56-1.59-1.08-3.21-1.53-4.86.45 1.65.97 3.27 1.53 4.86z"/><path d="m228.67 477.43c-.59-1.1-1.15-2.21-1.68-3.34.53 1.13 1.09 2.24 1.68 3.34z"/><path d="m226.32 472.62c-.49-1.11-.95-2.24-1.38-3.38.43 1.14.89 2.27 1.38 3.38z"/><path d="m408.47 546.31-.93-.08z"/><path d="m358.74 163.84.87.17z"/><path d="m196 288.14c.22-.4.45-.81.69-1.21-.24.4-.47.81-.69 1.21z"/><path d="m203.84 276.92.58-.65z"/><path d="m529.78 231.62c.6 1.1 1.16 2.21 1.69 3.35-.53-1.14-1.09-2.25-1.69-3.35z"/><path d="m526.55 226.17c.92 1.39 1.79 2.83 2.61 4.28-.82-1.45-1.69-2.89-2.61-4.28z"/><path d="m532.14 236.43c.49 1.11 1 2.25 1.38 3.39-.43-1.14-.89-2.28-1.38-3.39z"/><path d="m490.65 243.12a30.46 30.46 0 0 1 3 3.52 30.46 30.46 0 0 0 -3-3.52z"/><path d="m342.11 201.61a28.17 28.17 0 0 1 3.79-.26 28.17 28.17 0 0 0 -3.79.26z"/><path d="m423.64 505.49a28.47 28.47 0 0 1 -4.78 1.49 28.47 28.47 0 0 0 4.78-1.49z"/><path d="m226.09 319.4a30.18 30.18 0 0 1 .93-5.6 30.18 30.18 0 0 0 -.93 5.6z"/><path d="m226.58 327a29.14 29.14 0 0 1 -.49-7.61 29.14 29.14 0 0 0 .49 7.61z"/><path d="m262.78 459.15c-.45-.85-.88-1.71-1.25-2.6.37.89.8 1.75 1.25 2.6z"/><path d="m487.82 240.63a29.13 29.13 0 0 1 2.83 2.49 29.13 29.13 0 0 0 -2.83-2.49z"/><path d="m532.08 383.23c.09.63.17 1.26.23 1.9-.06-.64-.14-1.27-.23-1.9z"/><path d="m527.55 403.87a29.29 29.29 0 0 0 4.29-10.33 29.29 29.29 0 0 1 -4.29 10.33z"/><path d="m477.53 235.52h.11a29 29 0 0 1 10.18 5.08 29 29 0 0 0 -10.18-5.08h-.11l-124-33.19a29 29 0 0 0 -7.6-1 29 29 0 0 1 7.6 1z"/><path d="m227 328.9 33.27 124a28.5 28.5 0 0 0 1.24 3.65 28.5 28.5 0 0 1 -1.24-3.65z"/><path d="m325.31 209.9a29.19 29.19 0 0 1 13.09-7.55 29.19 29.19 0 0 0 -13.09 7.55l-90.75 90.81a29.21 29.21 0 0 0 -7.56 13.09 29.21 29.21 0 0 1 7.54-13.09z"/><path d="m532.41 388.48c0 .92-.09 1.84-.2 2.75.11-.91.17-1.83.2-2.75z"/><path d="m756.79 380c.1-.73.18-1.46.26-2.19.14-1.16.28-2.31.4-3.47.09-.94.18-1.88.26-2.82s.15-1.81.22-2.72c.08-1.1.15-2.21.22-3.32l.09-1.92q.45-9.84-.07-19.68-.1-1.85-.24-3.69a194 194 0 0 0 -2.75-21.31q-1.48-8-3.63-15.85c0-.05 0-.09 0-.14-.66-2.42-1.38-4.83-2.14-7.23-.11-.32-.21-.65-.31-1q-1.14-3.53-2.41-7c0-.13-.09-.26-.13-.39q-1.38-3.74-2.91-7.42c-.09-.23-.2-.45-.29-.68q-1.3-3.1-2.73-6.17c-.3-.65-.6-1.3-.91-1.94-.81-1.7-1.64-3.38-2.5-5.06-.33-.64-.65-1.29-1-1.93-1.18-2.24-2.38-4.46-3.65-6.65l-57-98.7-35.75-61.78q-1.47-2.52-3-5c-.3-.49-.61-1-.91-1.45-.77-1.22-1.55-2.43-2.35-3.62l-.32-.49c-.2-.3-.4-.61-.61-.91q-3.24-4.8-6.75-9.38c-.33-.44-.68-.87-1-1.31q-1.32-1.7-2.69-3.37l-1-1.17-.07-.09q-3.69-4.43-7.61-8.62l-.51-.53-.55-.59q-1.5-1.56-3-3.11l-1.1-1.1q-4.08-4-8.39-7.81l-1.19-1q-1.65-1.43-3.33-2.81l-1.19-1q-4.44-3.6-9.08-6.94l-.44-.31-.85-.6c-1.18-.84-2.38-1.66-3.59-2.48-.41-.27-.82-.56-1.24-.83-1.6-1.06-3.2-2.1-4.83-3.11h-.06q-2.39-1.49-4.82-2.89l-.47-.27-.9-.51c-1.26-.72-2.52-1.42-3.8-2.11h-.05l-1.28-.7c-1.69-.89-3.38-1.77-5.09-2.61l-.25-.22c-1.63-.8-3.29-1.58-5-2.34l-.7-.32-.79-.36c-1.3-.58-2.6-1.15-3.91-1.7l-1-.42-.48-.2c-1.75-.72-3.51-1.43-5.29-2.1l-.36-.13q-2.47-.93-5-1.79l-1.63-.56c-1.34-.44-2.68-.88-4-1.3l-1.56-.48c-1.8-.55-3.61-1.08-5.43-1.57-1.24-.34-2.49-.64-3.74-1-.8-.2-1.6-.42-2.41-.61-1.33-.32-2.67-.59-4-.88l-2.2-.48-1-.19c-1.11-.21-2.21-.42-3.32-.61-.65-.12-1.29-.25-1.94-.36l-2.36-.36-2.52-.38-1.44-.22c-1.27-.17-2.56-.3-3.84-.45l-.91-.11c-.54 0-1.08-.13-1.62-.18-1.88-.19-3.77-.34-5.66-.47l-.7-.06c-2-.13-4-.23-5.95-.3h-.5c-2.14-.07-4.3-.07-6.46-.07l-185.34.06c-1.94 0-3.88 0-5.81.1l-1.73.07c-1.43.05-2.85.12-4.27.21l-1.72.11c-1.92.14-3.83.29-5.73.48-1.91.19-3.8.42-5.7.67l-1.69.23c-1.4.2-2.8.41-4.2.64l-1.67.27c-1.89.33-3.76.67-5.63 1q-9 1.83-17.81 4.5l-1.6.5c-1.35.42-2.68.85-4 1.3l-1.58.54c-1.79.62-3.56 1.25-5.33 1.92-2.53 1-5 2-7.51 3.05a196.42 196.42 0 0 0 -22.74 11.54c-1.18.7-2.37 1.4-3.54 2.13-2 1.26-4 2.57-6 3.91l-1.85 1.28q-2.07 1.43-4.11 2.91l-2 1.5c-1.35 1-2.67 2-4 3.07-.59.47-1.19.93-1.77 1.4q-2.81 2.26-5.52 4.63-2.38 2.07-4.69 4.23c-1.65 1.53-3.26 3.1-4.85 4.69-.53.52-1 1.06-1.56 1.59-1.05 1.08-2.11 2.17-3.14 3.27l-1.78 2c-.93 1-1.86 2.06-2.77 3.1-.61.7-1.21 1.41-1.81 2.12-.86 1-1.73 2.07-2.57 3.11q-.9 1.11-1.77 2.22c-.84 1.07-1.66 2.14-2.47 3.22-.56.74-1.12 1.49-1.67 2.24-.83 1.14-1.64 2.28-2.44 3.43-.5.73-1 1.45-1.51 2.19q-1.29 1.9-2.53 3.86c-.41.63-.83 1.26-1.23 1.9-1.22 1.94-2.4 3.91-3.56 5.9l-92.72 160.56q-1.38 2.4-2.68 4.83l-1.06 2c-.46.88-.91 1.76-1.36 2.65-1.06 2.12-2.1 4.25-3.09 6.4v.07c-.32.69-.63 1.38-.94 2.07a193.74 193.74 0 0 0 -8.46 22.77q-.95 3.17-1.8 6.35c-.53 2-1 4-1.49 6-.26 1.17-.5 2.33-.74 3.5-.18.84-.38 1.69-.54 2.54-.32 1.59-.59 3.18-.87 4.77-.07.43-.15.85-.22 1.27-.31 1.85-.58 3.7-.83 5.56 0 .16-.05.32-.07.48-.26 2-.5 4-.7 6.06h-.01q-.91 9.17-1 18.36 0 3.36.07 6.74a1.62 1.62 0 0 1 0 .22q.09 3.45.31 6.88.41 6.28 1.22 12.53t2 12.44c.41 2.07.84 4.13 1.32 6.18a192.89 192.89 0 0 0 21 53.27l92.72 160.47q1.39 2.4 2.85 4.75c.3.49.61 1 .92 1.47.69 1.09 1.38 2.17 2.08 3.24l1.07 1.61c.72 1.06 1.44 2.12 2.18 3.16.33.47.65.95 1 1.41q1.59 2.24 3.24 4.42c1.1 1.45 2.23 2.88 3.37 4.3.35.44.72.88 1.07 1.31.81 1 1.63 2 2.45 2.94l1.24 1.44c.84 1 1.69 1.91 2.54 2.86l1.13 1.24q1.84 2 3.73 4c1.49 1.53 3 3 4.55 4.51s3 2.79 4.47 4.15q6.72 6.06 14 11.46l.33.25q7.13 5.29 14.69 9.92l.67.4q2.17 1.32 4.39 2.58l.72.41q5 2.83 10.21 5.38l.93.44q2.07 1 4.17 1.95l1.31.6c1.41.63 2.84 1.24 4.27 1.83l.93.4q2.59 1.07 5.24 2.06l1 .35c1.41.53 2.84 1 4.27 1.53l1.65.56c1.27.43 2.54.84 3.82 1.24l1.59.49c1.77.54 3.54 1.06 5.33 1.54 2.34.64 4.69 1.22 7.05 1.77.74.17 1.48.32 2.22.48q2.49.56 5 1l2.51.46c1.68.3 3.36.57 5.05.83.75.11 1.5.24 2.25.34q3.63.51 7.29.89h.05q2.85.28 5.71.48l1.74.11c1.42.09 2.85.16 4.28.21l1.74.07c1.94.06 3.88.1 5.83.1h185.23c1.94 0 3.88 0 5.81-.1.58 0 1.15 0 1.72-.06 1.43-.06 2.86-.13 4.29-.22l1.71-.11q2.85-.19 5.7-.48h.05q3.18-.32 6.35-.75c2.59-.35 5.15-.76 7.71-1.21l2.18-.41q3-.55 5.91-1.2l1.91-.42c2.55-.59 5.07-1.22 7.58-1.91l.85-.24c2.25-.63 4.48-1.3 6.71-2l1.86-.6c2.13-.71 4.26-1.44 6.36-2.22l1.07-.38c2.5-.94 5-1.93 7.45-3l.92-.4c2.15-.92 4.27-1.88 6.38-2.88l1.45-.68c2.35-1.14 4.69-2.31 7-3.54 2-1.07 4-2.16 6-3.3q8.17-4.73 15.86-10.21 5.11-3.66 10-7.66c1.62-1.33 3.23-2.68 4.82-4.07q7.13-6.23 13.66-13.15a192 192 0 0 0 16.2-19.65q3.74-5.19 7.15-10.67 1.71-2.75 3.33-5.55l92.61-160.52q1.75-3 3.38-6.13l.09-.18c1.07-2 2.09-4.05 3.08-6.1q2.36-4.86 4.42-9.82l.58-1.41v-.08q2.19-5.38 4.05-10.86c.07-.22.15-.44.22-.66a.56.56 0 0 0 0-.12q1.83-5.49 3.32-11.06c.06-.24.14-.48.21-.73.53-2 1-4.09 1.51-6.14q2.14-8.98 3.33-18.12zm-42.71 16.14c-.25.87-.48 1.74-.74 2.61 0 .11-.07.23-.11.34q-1.34 4.47-2.94 8.88c-.25.68-.51 1.36-.77 2-.32.85-.65 1.69-1 2.53l-.81 2q-2.51 6-5.53 11.77c-.22.44-.44.88-.67 1.31-.8 1.49-1.61 3-2.46 4.43l-53.25 92.35-9.89 37a71.09 71.09 0 0 1 -39 45.85c-1.44 2-2.94 3.86-4.47 5.74-.23.28-.45.56-.68.83q-2.21 2.67-4.52 5.23c-.29.32-.58.64-.88.95-1.56 1.7-3.15 3.37-4.78 5l-.7.68q-2.58 2.55-5.27 5l-.1.09-1.15 1a156.37 156.37 0 0 1 -13.67 10.68l-.87.6c-1.13.77-2.26 1.53-3.4 2.27l-1.06.68c-1.15.73-2.3 1.44-3.47 2.14l-.91.55c-1.66 1-3.34 1.94-5 2.86-1 .53-2 1-3 1.55l-3.15 1.57-.86.42-1.44.68-1.82.82-2.54 1.13c-.66.29-1.33.57-2 .85-1.46.6-2.94 1.19-4.42 1.75l-.61.24-1.87.67-1.43.51c-1.62.56-3.24 1.1-4.88 1.61l-.78.25c-1.45.44-2.91.86-4.37 1.26-.65.18-1.3.34-1.95.51-1.14.29-2.29.58-3.45.85l-1.41.32c-.86.19-1.71.39-2.57.57l-2.15.42c-1 .19-2 .38-3 .55l-1.73.29-2.68.41-2.11.28c-.92.12-1.85.23-2.77.33l-2.05.22c-1.05.1-2.11.18-3.16.26l-1.71.13c-1.53.1-3.06.18-4.6.23h-.28c-1.64.05-3.28.08-4.92.08h-45-11.27-50.54l-36.68 9.84a70.81 70.81 0 0 1 -36.92-.09c-1-.27-2-.57-3-.89a71.06 71.06 0 0 1 -19.54-9.84c-.68-.07-1.34-.18-2-.26-1.36-.17-2.71-.34-4.06-.54-1.71-.27-3.42-.56-5.12-.88-4-.76-8-1.66-12-2.73-1.66-.45-3.29-1-4.92-1.47-.51-.16-1-.29-1.52-.45l-1.57-.52c-2.13-.7-4.24-1.43-6.34-2.23l-.2-.08c-2-.78-4-1.6-6-2.46l-1.59-.67c-2-.9-4.07-1.83-6.06-2.81l-.19-.1c-.63-.32-1.26-.67-1.89-1-1.79-.92-3.58-1.86-5.34-2.84-3.57-2-7-4.17-10.44-6.46-.31-.21-.63-.4-.94-.62-1.06-.72-2.09-1.48-3.14-2.23-1.22-.87-2.46-1.74-3.65-2.66l-.08-.06c-1.74-1.33-3.45-2.72-5.14-4.13l-1.38-1.09c-1.14-1-2.25-2-3.36-3-1.81-1.63-3.57-3.31-5.3-5-.4-.4-.81-.77-1.2-1.17-.45-.47-.91-.94-1.36-1.42-1.5-1.55-3-3.13-4.41-4.75a153.65 153.65 0 0 1 -11.91-15.43c-.5-.73-1-1.44-1.49-2.18-.31-.48-.62-.95-.92-1.43-1.23-1.93-2.44-3.88-3.59-5.87l-53.34-92.28-26.87-26.85a71.06 71.06 0 0 1 -20.38-56.94q-1.45-3.36-2.74-6.76c-.12-.33-.25-.65-.37-1-.81-2.16-1.56-4.34-2.27-6.53-.13-.41-.26-.82-.38-1.23-.69-2.2-1.34-4.41-1.93-6.64l-.24-.93c-.62-2.4-1.19-4.8-1.7-7.22-.28-1.37-.55-2.75-.79-4.13 0-.16 0-.31-.08-.46-.23-1.33-.45-2.66-.65-4 0-.18-.06-.36-.08-.54-.2-1.34-.38-2.67-.54-4-.22-1.84-.4-3.68-.56-5.52 0-.36-.05-.71-.08-1.07-.1-1.35-.19-2.71-.26-4.07l-.06-1.26c-.06-1.35-.1-2.71-.12-4.06 0-.36 0-.72 0-1.08 0-1.68 0-3.36 0-5 0-.68 0-1.35.07-2s0-1.35.08-2l.06-1.27c.06-1.06.14-2.12.22-3.18 0-.53.08-1.06.13-1.58 0-.23 0-.46.07-.69q.4-4.41 1.06-8.81c.14-.93.28-1.85.43-2.78.11-.65.23-1.29.35-1.94.17-.89.33-1.79.51-2.69q1.38-6.91 3.39-13.72c.21-.7.43-1.4.65-2.1.33-1 .66-2.08 1-3.11.16-.5.33-1 .5-1.48q1.37-4 3-7.85l.49-1.21c.6-1.43 1.22-2.84 1.86-4.25l.09-.21c.41-.89.83-1.78 1.25-2.66l.27-.56c.84-1.73 1.7-3.45 2.61-5.15l.2-.4c.77-1.44 1.56-2.88 2.38-4.3l53.25-92.3 9.87-36.89a71.17 71.17 0 0 1 39.07-45.92q2.18-2.94 4.49-5.76l.66-.82q2.2-2.67 4.53-5.23l.86-.94c1.56-1.7 3.16-3.37 4.79-5l.69-.68c1.73-1.69 3.48-3.36 5.28-5l.13-.11 1-.86c2.9-2.54 5.87-5 8.94-7.29l.38-.29c1.48-1.11 3-2.18 4.5-3.24l.88-.6c1.12-.77 2.25-1.53 3.39-2.26l1.06-.68c1.15-.73 2.3-1.45 3.47-2.14l.91-.55q2.16-1.29 4.36-2.5h.05l.51-.28c.59-.32 1.19-.63 1.79-.94l2.44-1.27 1.18-.58c1-.51 2.08-1 3.13-1.5l.21-.1c2.93-1.36 5.92-2.63 8.94-3.81.75-.3 1.5-.6 2.26-.88 2.12-.79 4.27-1.53 6.42-2.23l2.51-.8c1.45-.44 2.91-.87 4.37-1.27l2.06-.53c.86-.22 1.72-.45 2.59-.65l.59-.34c1.41-.34 2.83-.65 4.25-1l.54-.11c1.41-.28 2.82-.55 4.24-.8l.57-.09q4.54-.78 9.15-1.28c.69-.07 1.37-.15 2.06-.21 1.3-.13 2.61-.23 3.91-.32l.95-.08c1.57-.1 3.15-.18 4.74-.23h.14q2.46-.09 4.92-.09h106.56l36.69-9.85a70.91 70.91 0 0 1 36.92.09 71 71 0 0 1 22.58 10.73l.81.11c1.62.19 3.23.39 4.83.64l.44.06c1.08.17 2.15.37 3.22.56.89.15 1.79.29 2.68.47.93.17 1.84.38 2.76.58s2 .39 2.92.62c1.81.42 3.63.87 5.42 1.36h.07c2.71.74 5.39 1.56 8 2.44 2.12.7 4.23 1.43 6.31 2.22.92.35 1.82.75 2.74 1.12 1.17.47 2.34.93 3.5 1.43.51.21 1 .43 1.52.66q3.07 1.35 6.09 2.83c1.2.59 2.37 1.24 3.56 1.87.8.42 1.61.82 2.4 1.26 2.47 1.36 4.91 2.77 7.3 4.25l.72.48c3.93 2.47 7.77 5.11 11.47 7.93l.16.12c1.77 1.35 3.51 2.76 5.23 4.19q5.77 4.83 11.1 10.23c.38.39.76.77 1.13 1.17 1.57 1.63 3.11 3.28 4.62 5 .52.59 1 1.21 1.51 1.81 1 1.12 1.92 2.24 2.85 3.39l1 1.3q2.12 2.67 4.13 5.44c1.66 2.31 3.24 4.68 4.78 7.09 1.24 1.93 2.45 3.88 3.6 5.88l53.31 92.26 26.87 26.85a71.06 71.06 0 0 1 20.38 56.94c1 2.23 1.87 4.48 2.73 6.74.13.33.26.66.38 1q1.21 3.24 2.26 6.53l.39 1.23c.69 2.2 1.34 4.41 1.93 6.64l.24.93c.6 2.34 1.17 4.69 1.66 7.06v.16c.26 1.26.5 2.52.73 3.79l.15.8c.23 1.33.45 2.67.65 4 0 .22.07.44.1.66.19 1.3.37 2.6.52 3.9v.43c.2 1.68.36 3.36.51 5 0 .36 0 .72.08 1.08.1 1.35.19 2.7.26 4.05l.06 1.27c.06 1.36.1 2.71.12 4.06v1.08 5c0 1.08-.07 2.16-.12 3.25v.79l-.06 1.31c-.06 1.06-.14 2.11-.22 3.16-.11 1.41-.24 2.81-.38 4.21v.39c-.23 2.17-.51 4.35-.84 6.52-.13.86-.26 1.72-.4 2.58-.39 2.32-.84 4.64-1.33 6.94-.18.85-.36 1.7-.55 2.55-.5 2.16-1.07 4.32-1.66 6.46z" fill="#a0baa2"/><path d="m3.67 316.87c.16-.85.36-1.7.54-2.54-.21.84-.38 1.67-.54 2.54z" fill="#a0baa2"/><path d="m613.31 647.81q-6.52 6.93-13.66 13.15 7.13-6.23 13.66-13.15z" fill="#a0baa2"/><path d="m140.1 642.16-1.24-1.44z" fill="#a0baa2"/><path d="m548.16 693.3-.92.4z" fill="#a0baa2"/><path d="m551.07 17 .79.36z" fill="#a0baa2"/><path d="m564.1 23.45h-.05z" fill="#a0baa2"/><path d="m274.63.44c1.42-.09 2.84-.16 4.27-.21-1.43.05-2.85.12-4.27.21z" fill="#a0baa2"/><path d="m2.58 322.91c.07-.42.15-.84.22-1.27-.07.43-.15.85-.22 1.27z" fill="#a0baa2"/><path d="m748.45 416.16a.36.36 0 0 0 0-.11.56.56 0 0 1 0 .12z" fill="#a0baa2"/><path d="m143.77 646.26-1.13-1.26z" fill="#a0baa2"/><path d="m5 310.83c.47-2 1-4 1.49-6-.58 1.97-1.07 3.98-1.49 6z" fill="#a0baa2"/><path d="m556 689.74-1.45.68z" fill="#a0baa2"/><path d="m497.48 1.71c-1.28-.17-2.56-.31-3.84-.45 1.28.15 2.57.28 3.84.45z" fill="#a0baa2"/><path d="m535.05 10.65-1.61-.54 1.63.56z" fill="#a0baa2"/><path d="m348.22.04-61.78.02 185.34-.06z" fill="#a0baa2"/><path d="m6.48 404.51q2.43 9.18 5.77 18.14a193.85 193.85 0 0 1 -7.25-24.28q.66 3.08 1.48 6.14z" fill="#a0baa2"/><path d="m122.41 618.33c-.31-.49-.62-1-.92-1.47.3.49.61.98.92 1.47z" fill="#a0baa2"/><path d="m485.92.53h-.51c1.89.13 3.78.28 5.66.47-1.71-.21-3.43-.34-5.15-.47z" fill="#a0baa2"/><path d="m522.42 6.75c-1.22-.33-2.45-.63-3.67-.93h-.07c1.25.31 2.5.61 3.74 1z" fill="#a0baa2"/><path d="m547.13 15.29-1-.41 1 .42z" fill="#a0baa2"/><path d="m484.71.43c-1.84-.12-3.71-.21-5.53-.28h-.42c2 .07 4 .17 5.95.3z" fill="#a0baa2"/><path d="m583.83 35.69.85.6z" fill="#a0baa2"/><path d="m752 404.32a.14.14 0 0 1 0-.06c-.07.25-.15.49-.21.73z" fill="#a0baa2"/><path d="m510.06 3.83-1-.19z" fill="#a0baa2"/><path d="m736.07 445.1-.09.18z" fill="#a0baa2"/><path d="m499.28 2-.36-.05 2.52.38z" fill="#a0baa2"/><path d="m567.91 25.56.9.51z" fill="#a0baa2"/><path d="m629.51 628.16a192 192 0 0 1 -16.2 19.65 192 192 0 0 0 16.2-19.65z" fill="#a0baa2"/><path d="m136.41 637.78c-.35-.43-.72-.87-1.07-1.31.35.44.72.88 1.07 1.31z" fill="#a0baa2"/><path d="m125.56 623.18-1.07-1.61z" fill="#a0baa2"/><path d="m280.63.16c1.93-.06 3.87-.1 5.81-.1-1.94 0-3.88.04-5.81.1z" fill="#a0baa2"/><path d="m636.66 617.49q-3.4 5.47-7.15 10.67 3.74-5.16 7.15-10.67z" fill="#a0baa2"/><path d="m744.16 427.76a.25.25 0 0 1 0-.07v.08z" fill="#a0baa2"/><path d="m.08 360.34a1.62 1.62 0 0 0 0-.22 1.62 1.62 0 0 1 0 .22z" fill="#a0baa2"/><path d="m207.91 692.28-1.31-.6z" fill="#a0baa2"/><path d="m260 707.2c-.75-.1-1.5-.23-2.25-.34.79.14 1.54.24 2.25.34z" fill="#a0baa2"/><path d="m252.74 706-2.51-.46z" fill="#a0baa2"/><path d="m191.29 683.91-.72-.41z" fill="#a0baa2"/><path d="m142.8 63.82 1.78-2z" fill="#a0baa2"/><path d="m138.22 69c.6-.71 1.2-1.42 1.81-2.12-.61.74-1.21 1.45-1.81 2.12z" fill="#a0baa2"/><path d="m286.68 709.06c-1.95 0-3.89 0-5.83-.1 1.94.04 3.88.1 5.83.1z" fill="#a0baa2"/><path d="m245.24 704.53c-.74-.16-1.48-.31-2.22-.48.74.17 1.48.32 2.22.48z" fill="#a0baa2"/><path d="m164.34 43.46c.58-.47 1.18-.93 1.77-1.4z" fill="#a0baa2"/><path d="m279.11 708.89c-1.43 0-2.86-.12-4.28-.21 1.42.09 2.85.16 4.28.21z" fill="#a0baa2"/><path d="m273.09 708.57q-2.86-.2-5.71-.48 2.85.29 5.71.48z" fill="#a0baa2"/><path d="m477.83 708.89c-1.93.06-3.87.1-5.81.1 1.98.01 3.88.01 5.81-.1z" fill="#a0baa2"/><path d="m147.72 58.6c.52-.53 1-1.07 1.56-1.59-.53.52-1.04 1.06-1.56 1.59z" fill="#a0baa2"/><path d="m213.11 694.51-.93-.4z" fill="#a0baa2"/><path d="m85.31 154.59-59.45 103.06 92.61-160.54z" fill="#a0baa2"/><path d="m133.88 74.37q.87-1.11 1.77-2.22-.9 1.11-1.77 2.22z" fill="#a0baa2"/><path d="m23.18 262.48q1.3-2.43 2.68-4.83-1.38 2.4-2.68 4.83z" fill="#a0baa2"/><path d="m202.43 689.73-.93-.44z" fill="#a0baa2"/><path d="m219.31 696.92-1-.35z" fill="#a0baa2"/><path d="m129.74 79.83c.55-.75 1.11-1.5 1.67-2.24-.56.74-1.12 1.49-1.67 2.24z" fill="#a0baa2"/><path d="m230.64 700.74-1.59-.49z" fill="#a0baa2"/><path d="m125.79 85.45c.49-.74 1-1.46 1.51-2.19-.5.74-1.02 1.45-1.51 2.19z" fill="#a0baa2"/><path d="m225.23 699-1.65-.56z" fill="#a0baa2"/><path d="m122 91.21c.4-.64.82-1.27 1.23-1.9-.38.63-.8 1.26-1.23 1.9z" fill="#a0baa2"/><path d="m17.64 273.6v-.07z" fill="#a0baa2"/><path d="m267.18 1c1.9-.19 3.81-.34 5.73-.48-1.91.17-3.83.32-5.73.48z" fill="#a0baa2"/><path d="m532.36 699.27-1.86.6z" fill="#a0baa2"/><path d="m523.79 701.88-.85.24z" fill="#a0baa2"/><path d="m261.44 1.71c1.9-.25 3.79-.48 5.7-.67-1.91.19-3.8.42-5.7.67z" fill="#a0baa2"/><path d="m1.68 329c0-.16.05-.32.07-.48-.02.11-.05.27-.07.48z" fill="#a0baa2"/><path d="m539.79 696.67-1.07.38z" fill="#a0baa2"/><path d="m0 353.38v-.01z" fill="#a0baa2"/><path d="m186.18 680.92-.67-.4z" fill="#a0baa2"/><path d="m128.73 627.75c-.34-.46-.66-.94-1-1.41.34.47.66.95 1 1.41z" fill="#a0baa2"/><path d="m170.82 670.6-.33-.25z" fill="#a0baa2"/><path d="m483.84 708.61c-1.43.09-2.86.16-4.29.22 1.45-.06 2.86-.13 4.29-.22z" fill="#a0baa2"/><path d="m217.91 12.66c1.77-.67 3.54-1.3 5.33-1.92-1.79.62-3.56 1.26-5.33 1.92z" fill="#a0baa2"/><path d="m491.25 708q-2.85.29-5.7.48 2.85-.17 5.7-.48z" fill="#a0baa2"/><path d="m176.23 34.58 1.85-1.28z" fill="#a0baa2"/><path d="m170.1 39 2-1.5z" fill="#a0baa2"/><path d="m507.54 705.65-2.18.41z" fill="#a0baa2"/><path d="m515.36 704-1.91.42z" fill="#a0baa2"/><path d="m248.25 3.9c1.87-.38 3.74-.72 5.63-1-1.88.28-3.76.62-5.63 1z" fill="#a0baa2"/><path d="m224.82 10.2c1.34-.45 2.67-.88 4-1.3-1.33.42-2.66.85-4 1.3z" fill="#a0baa2"/><path d="m235.91 6.82c-1.83.5-3.66 1-5.47 1.58q8.77-2.66 17.81-4.5-6.25 1.26-12.34 2.92z" fill="#a0baa2"/><path d="m255.55 2.58c1.4-.23 2.8-.44 4.2-.64-1.4.2-2.75.41-4.2.64z" fill="#a0baa2"/><path d="m20.76 267.13c.45-.89.9-1.77 1.36-2.65-.46.88-.91 1.76-1.36 2.65z" fill="#a0baa2"/><path d="m749.06 294.67c.1.32.2.65.31 1-.11-.35-.21-.67-.31-1z" fill="#a0baa2"/><path d="m757.93 368.81c-.07.91-.14 1.81-.22 2.72.08-.91.15-1.81.22-2.72z" fill="#a0baa2"/><path d="m758.24 363.57-.09 1.92z" fill="#a0baa2"/><path d="m751.51 302.87v.14s.01-.09 0-.14z" fill="#a0baa2"/><path d="m754.84 391.94q.61-3.09 1.12-6.2c.31-1.91.58-3.82.83-5.73q-1.2 9.12-3.26 18.11.71-3.12 1.31-6.18z" fill="#a0baa2"/><path d="m753.53 398.12c-.47 2.05-1 4.1-1.51 6.14.53-2.04 1.04-4.09 1.51-6.14z" fill="#a0baa2"/><path d="m595.36 44.5-1.17-1 1.19 1z" fill="#a0baa2"/><path d="m210.39 15.72c-1.38.59-2.76 1.18-4.12 1.8q-2.86 1.31-5.68 2.7-5.59 2.78-11.09 5.93c-.62.36-1.23.75-1.85 1.11a196.42 196.42 0 0 1 22.74-11.54z" fill="#a0baa2"/><path d="m757.45 374.35c-.12 1.16-.26 2.31-.4 3.47.14-1.16.28-2.31.4-3.47z" fill="#a0baa2"/><path d="m622.17 71.42-1-1.17z" fill="#a0baa2"/><path d="m636.82 91.94-.91-1.43c.3.48.61 1 .91 1.45z" fill="#a0baa2"/><path d="m633.56 86.88c-.1-.17-.21-.33-.32-.49z" fill="#a0baa2"/><path d="m612.42 60.38.58.62c-.21-.23-.39-.43-.58-.62z" fill="#a0baa2"/><path d="m746.52 287.27c0 .13.09.26.13.39-.04-.13-.09-.26-.13-.39z" fill="#a0baa2"/><path d="m736.19 264.07c.34.64.66 1.29 1 1.93-.34-.64-.66-1.29-1-1.93z" fill="#a0baa2"/><path d="m743.32 279.17c.09.23.2.45.29.68-.09-.23-.2-.45-.29-.68z" fill="#a0baa2"/><path d="m739.68 271.06c.31.64.61 1.29.91 1.94-.3-.65-.59-1.29-.91-1.94z" fill="#a0baa2"/><path d="m676.96 161.23-1.45-2.51 57.03 98.7z" fill="#a0baa2"/><path d="m225.38 51.41q1.34-.57 2.67-1.11c.58-.24 1.17-.48 1.77-.71l.35-.13c-3 1.18-6 2.45-8.94 3.81.83-.39 1.67-.77 2.51-1.14z" fill="#a0baa2"/><path d="m275.7 39.19c-1.3.09-2.61.19-3.91.32 1-.1 1.94-.17 2.92-.25z" fill="#a0baa2"/><path d="m718.9 370.69c.14-1.4.27-2.8.38-4.21 0 .54-.08 1.07-.13 1.61-.08.91-.15 1.73-.25 2.6z" fill="#a0baa2"/><path d="m255.21 42c-1.42.3-2.84.61-4.25 1l1.66-.38c.86-.23 1.72-.43 2.59-.62z" fill="#a0baa2"/><path d="m221 53.37c-1.05.49-2.09 1-3.13 1.5l1.66-.81z" fill="#a0baa2"/><path d="m260 41.1c-1.42.25-2.83.52-4.24.8l1.61-.31c.87-.17 1.74-.34 2.63-.49z" fill="#a0baa2"/><path d="m264.82 40.34 2.13-.29c.92-.12 1.84-.22 2.76-.32q-4.6.5-9.15 1.28l1.58-.27z" fill="#a0baa2"/><path d="m166.09 96.13q-2.31 2.82-4.49 5.76c1.45-1.97 2.96-3.89 4.49-5.76z" fill="#a0baa2"/><path d="m216.71 55.45-2.44 1.27 1.28-.67z" fill="#a0baa2"/><path d="m281.4 38.88c-1.59 0-3.17.13-4.74.23 1.08-.07 2.17-.11 3.25-.16z" fill="#a0baa2"/><path d="m52.6 290.28c-.64 1.41-1.26 2.82-1.86 4.25.36-.86.73-1.72 1.11-2.57z" fill="#a0baa2"/><path d="m48.94 299c.32-.84.65-1.69 1-2.53l.32-.77q-1.59 3.88-3 7.85c.29-.84.58-1.68.89-2.51.28-.64.53-1.32.79-2.04z" fill="#a0baa2"/><path d="m197.85 66.7c-1.52 1.06-3 2.13-4.5 3.24l.37-.27q2.04-1.51 4.13-2.97z" fill="#a0baa2"/><path d="m56.27 282.76c.18-.35.36-.71.55-1.06-.91 1.7-1.77 3.42-2.61 5.15.19-.4.38-.8.58-1.19.48-.98.98-1.94 1.48-2.9z" fill="#a0baa2"/><path d="m186.57 75.32c1-.86 2.08-1.72 3.13-2.56l.45-.35c.93-.74 1.87-1.46 2.82-2.18-3.07 2.32-6 4.75-8.94 7.29.72-.63 1.44-1.27 2.17-1.88z" fill="#a0baa2"/><path d="m553.78 62.19h.07c-2.39-1.48-4.83-2.89-7.3-4.25l1.43.79c1.95 1.14 3.89 2.27 5.8 3.46z" fill="#a0baa2"/><path d="m601.75 109q.48.72.93 1.44c-1.54-2.41-3.12-4.78-4.78-7.09q2 2.79 3.85 5.65z" fill="#a0baa2"/><path d="m686.46 235.43-26.87-26.85z" fill="#a0baa2"/><path d="m589.87 93.21c-.51-.6-1-1.22-1.51-1.81.52.6 1.01 1.21 1.51 1.81z" fill="#a0baa2"/><path d="m582.56 85.22q-5.31-5.4-11.1-10.23l1.23 1q5.13 4.41 9.87 9.23z" fill="#a0baa2"/><path d="m717.36 327.28-.15-.8.06.33z" fill="#a0baa2"/><path d="m719.59 361.22c0-1.09.09-2.17.12-3.25v.58c-.04.89-.08 1.78-.12 2.67z" fill="#a0baa2"/><path d="m718.11 332c0-.22-.06-.44-.1-.66 0 .18.06.36.08.55.01-.02.01.02.02.11z" fill="#a0baa2"/><path d="m501.2 41.57c-.89-.18-1.79-.32-2.68-.47.61.1 1.23.19 1.84.31z" fill="#a0baa2"/><path d="m506.88 42.77c-1-.23-1.94-.42-2.92-.62l1.92.4z" fill="#a0baa2"/><path d="m518.81 46.07 1.6.52c-2.65-.88-5.33-1.7-8-2.44l.25.07q3.08.86 6.15 1.85z" fill="#a0baa2"/><path d="m490 39.84-.81-.11z" fill="#a0baa2"/><path d="m560.74 66.79q2.68 1.88 5.3 3.85c-3.7-2.82-7.54-5.46-11.47-7.93 1.63 1 3.25 2.08 4.84 3.17z" fill="#a0baa2"/><path d="m46.78 305.08c-.35 1-.68 2.07-1 3.11.27-.84.53-1.68.8-2.52z" fill="#a0baa2"/><path d="m544.15 56.72c-1.19-.63-2.36-1.28-3.56-1.87l.16.08c1.14.57 2.25 1.19 3.4 1.79z" fill="#a0baa2"/><path d="m529.48 49.93c-.92-.37-1.82-.77-2.74-1.12l.23.1c.84.32 1.67.68 2.51 1.02z" fill="#a0baa2"/><path d="m236.9 47 2-.64c-2.15.7-4.3 1.44-6.42 2.23l1.87-.68c.82-.32 1.65-.63 2.55-.91z" fill="#a0baa2"/><path d="m519.52 662.73-1.7.55c1.64-.51 3.26-1 4.88-1.61l-1.13.4c-.68.23-1.37.44-2.05.66z" fill="#a0baa2"/><path d="m528.65 659.46-2 .78c1.48-.56 3-1.15 4.42-1.75l-.65.27z" fill="#a0baa2"/><path d="m533.09 657.64 2.54-1.13-.91.42z" fill="#a0baa2"/><path d="m508 666-.72.16c1.16-.27 2.31-.56 3.45-.85h-.11c-.89.24-1.76.47-2.62.69z" fill="#a0baa2"/><path d="m498.06 668c1-.17 2-.36 3-.55l-2.64.49z" fill="#a0baa2"/><path d="m328.75 680.14 36.68-9.84 50.54-.02-50.54.02z" fill="#a0baa2"/><path d="m483.52 669.81c1.05-.08 2.11-.16 3.16-.26l-2.94.25z" fill="#a0baa2"/><path d="m477.2 670.17c1.54 0 3.07-.13 4.6-.23-1.08.07-2.18.12-3.27.17z" fill="#a0baa2"/><path d="m705.77 419c-.41.9-.83 1.78-1.25 2.66l-.84 1.76c-.49 1-1 1.94-1.49 2.9q3-5.79 5.53-11.77c-.36.86-.73 1.71-1.11 2.57-.28.61-.55 1.24-.84 1.88z" fill="#a0baa2"/><path d="m539.76 654.58 3.15-1.57-1.16.59c-.66.34-1.33.66-1.99.98z" fill="#a0baa2"/><path d="m715.74 389.68c-.35 1.48-.71 2.95-1.1 4.42-.17.69-.37 1.36-.56 2 .59-2.1 1.16-4.26 1.66-6.42z" fill="#a0baa2"/><path d="m711.89 403.38c-.23.7-.47 1.39-.71 2.08-.29.84-.59 1.68-.89 2.52q1.61-4.41 2.94-8.88c-.17.58-.35 1.16-.53 1.74-.27.85-.53 1.7-.81 2.54z" fill="#a0baa2"/><path d="m699.05 432.05c.85-1.46 1.66-2.94 2.46-4.43a.83.83 0 0 0 -.07.13c-.77 1.44-1.57 2.88-2.39 4.3z" fill="#a0baa2"/><path d="m546 651.39-.11.06c1.69-.92 3.37-1.88 5-2.86-1.45.85-2.91 1.69-4.38 2.5z" fill="#a0baa2"/><path d="m571.89 633.73c-1 .87-2.08 1.73-3.14 2.57l-.43.34c-1.06.84-2.13 1.67-3.21 2.48l-.36.26c-1.36 1-2.75 2-4.14 3a156.37 156.37 0 0 0 13.67-10.68c-.67.58-1.34 1.18-2 1.75z" fill="#a0baa2"/><path d="m210.47 650.28c1.76 1 3.55 1.92 5.34 2.84-1.3-.67-2.6-1.33-3.88-2z" fill="#a0baa2"/><path d="m42 386.37c.51 2.42 1.08 4.82 1.7 7.22-.6-2.35-1.17-4.7-1.66-7.06z" fill="#a0baa2"/><path d="m165.75 612.46c-.36-.44-.71-.88-1.06-1.33-1.41-1.78-2.79-3.58-4.12-5.43-.81-1.13-1.58-2.29-2.35-3.45a153.65 153.65 0 0 0 11.91 15.43l-.05-.06c-1.49-1.69-2.93-3.41-4.33-5.16z" fill="#a0baa2"/><path d="m180.63 628.46c-1.21-1.12-2.37-2.29-3.54-3.46 1.73 1.72 3.49 3.4 5.3 5-.56-.5-1.13-1-1.67-1.48z" fill="#a0baa2"/><path d="m38.82 349.05c0 .68 0 1.35-.07 2 0-.19 0-.38 0-.57z" fill="#a0baa2"/><path d="m39.27 367.69c.16 1.84.34 3.68.56 5.52 0-.15 0-.31 0-.46-.25-1.68-.41-3.37-.56-5.06z" fill="#a0baa2"/><path d="m39.8 336.22c.11-1 .23-1.93.37-2.89q.12-.93.27-1.86-.66 4.39-1.06 8.81c.07-.77.14-1.54.22-2.31.06-.58.13-1.17.2-1.75z" fill="#a0baa2"/><path d="m195.93 641c1 .75 2.08 1.51 3.14 2.23l-1.37-.94z" fill="#a0baa2"/><path d="m241.17 663.44c1.63.5 3.26 1 4.92 1.47l-.22-.07c-1.58-.43-3.14-.92-4.7-1.4z" fill="#a0baa2"/><path d="m269.26 669.32a71.06 71.06 0 0 0 19.54 9.84 71.06 71.06 0 0 1 -19.54-9.84z" fill="#a0baa2"/><path d="m252.54 666.5-.95-.21c-1.83-.43-3.64-.88-5.45-1.37 3.94 1.07 7.94 2 12 2.73l-.78-.15c-1.67-.31-3.25-.65-4.82-1z" fill="#a0baa2"/><path d="m204.56 646.79c-1.54-1-3-2-4.54-3 3.4 2.29 6.87 4.45 10.44 6.46-1.94-1.1-3.87-2.22-5.76-3.39z" fill="#a0baa2"/><path d="m263.19 668.52c1.35.2 2.7.37 4.06.54-1.23-.16-2.45-.3-3.67-.49z" fill="#a0baa2"/><path d="m217.71 654.12.19.1z" fill="#a0baa2"/><path d="m42.72 319.38c.35-1.48.71-3 1.1-4.43.18-.69.38-1.37.57-2.06.24-.86.47-1.73.73-2.59q-2 6.79-3.39 13.72c.13-.69.29-1.38.44-2.07.18-.86.36-1.72.55-2.57z" fill="#a0baa2"/><path d="m174.52 622.41c.45.48.91 1 1.36 1.42l-1.17-1.21z" fill="#a0baa2"/><path d="m156.7 600.05c-.31-.48-.62-.95-.92-1.43.3.48.61.95.92 1.43z" fill="#a0baa2"/><path d="m187 634.09-1.25-1.09z" fill="#a0baa2"/><path d="m718.3 375.71c-.09.63-.18 1.26-.28 1.89.33-2.17.61-4.35.84-6.52-.06.59-.13 1.18-.2 1.77-.11.95-.23 1.91-.36 2.86z" fill="#a0baa2"/><path d="m192.27 638.3-.08-.06z" fill="#a0baa2"/><path d="m231.72 660.24-.2-.08z" fill="#a0baa2"/><path d="m225.48 657.7-1.48-.7z" fill="#a0baa2"/><path d="m239.64 663-1.57-.52z" fill="#a0baa2"/><path d="m48.5 408.92c-.81-2.16-1.56-4.34-2.27-6.53.71 2.19 1.46 4.37 2.27 6.53z" fill="#a0baa2"/><path d="m41.18 382.24c0-.16 0-.31-.08-.46.03.15.06.3.08.46z" fill="#a0baa2"/><path d="m38.87 361.29c-.06-1.35-.1-2.71-.12-4.06.02 1.35.06 2.71.12 4.06z" fill="#a0baa2"/><path d="m38.73 356.15c0-1.68 0-3.36 0-5-.01 1.64-.02 3.32 0 5z" fill="#a0baa2"/><path d="m38.9 347 .06-1.27z" fill="#a0baa2"/><path d="m476.92 670.18c-1.64.05-3.28.08-4.92.08 1.64 0 3.28-.03 4.92-.08z" fill="#a0baa2"/><path d="m39.19 366.62c-.1-1.35-.19-2.71-.26-4.07.07 1.36.16 2.72.26 4.07z" fill="#a0baa2"/><path d="m45.85 401.16c-.69-2.2-1.34-4.41-1.93-6.64.59 2.23 1.24 4.48 1.93 6.64z" fill="#a0baa2"/><path d="m40.45 377.76c0-.18-.06-.36-.08-.54.02.18.05.36.08.54z" fill="#a0baa2"/><path d="m580.83 625.59q-2.58 2.55-5.27 5 2.69-2.44 5.27-5z" fill="#a0baa2"/><path d="m591.71 613.74q-2.21 2.67-4.52 5.23 2.31-2.56 4.52-5.23z" fill="#a0baa2"/><path d="m586.31 619.92c-1.56 1.7-3.15 3.37-4.78 5 1.63-1.63 3.22-3.3 4.78-5z" fill="#a0baa2"/><path d="m39.18 342.56c0-.53.08-1.06.13-1.58-.05.52-.09 1.02-.13 1.58z" fill="#a0baa2"/><path d="m596.86 607.17c-1.44 2-2.94 3.86-4.47 5.74 1.53-1.91 3.03-3.79 4.47-5.74z" fill="#a0baa2"/><path d="m714.08 396.15c-.25.87-.48 1.74-.74 2.61.26-.87.49-1.76.74-2.61z" fill="#a0baa2"/><path d="m575.54 630.57-.1.09z" fill="#a0baa2"/><path d="m709.52 410c-.32.85-.65 1.69-1 2.53.35-.83.68-1.67 1-2.53z" fill="#a0baa2"/><path d="m505.82 666.48c-.86.19-1.71.39-2.57.57.86-.18 1.75-.38 2.57-.57z" fill="#a0baa2"/><path d="m517 663.53c-1.45.44-2.91.86-4.37 1.26 1.5-.4 2.96-.79 4.37-1.26z" fill="#a0baa2"/><path d="m559.74 643c-1.13.77-2.26 1.53-3.4 2.27 1.14-.79 2.27-1.55 3.4-2.27z" fill="#a0baa2"/><path d="m496.32 668.31-2.68.41z" fill="#a0baa2"/><path d="m491.51 669c-.92.12-1.85.23-2.77.33.92-.1 1.85-.21 2.77-.33z" fill="#a0baa2"/><path d="m555.28 645.9c-1.15.73-2.3 1.44-3.47 2.14 1.19-.7 2.32-1.41 3.47-2.14z" fill="#a0baa2"/><path d="m526 660.48-1.87.67z" fill="#a0baa2"/><path d="m538.9 655-1.44.68z" fill="#a0baa2"/><path d="m51.61 416.66q-1.45-3.36-2.74-6.76 1.29 3.41 2.74 6.76z" fill="#a0baa2"/><path d="m710 300.13q1.21 3.24 2.26 6.53-1.09-3.28-2.26-6.53z" fill="#a0baa2"/><path d="m712.61 307.89c.69 2.2 1.34 4.41 1.93 6.64-.54-2.23-1.24-4.44-1.93-6.64z" fill="#a0baa2"/><path d="m714.78 315.46c.6 2.34 1.17 4.69 1.66 7.06-.44-2.37-1.06-4.72-1.66-7.06z" fill="#a0baa2"/><path d="m582.6 85.25 1.13 1.17c-.37-.42-.73-.78-1.13-1.17z" fill="#a0baa2"/><path d="m716.44 322.53v.16s.01-.11 0-.16z" fill="#a0baa2"/><path d="m592.73 96.61 1 1.3z" fill="#a0baa2"/><path d="m706.85 292.4c1 2.23 1.87 4.48 2.73 6.74-.86-2.26-1.76-4.51-2.73-6.74z" fill="#a0baa2"/><path d="m719.56 362-.06 1.31z" fill="#a0baa2"/><path d="m718.63 335.85v.43c.03-.14.02-.28 0-.43z" fill="#a0baa2"/><path d="m717.23 382.35c-.16.9-.32 1.79-.49 2.68l-.45 2.1c.49-2.3.94-4.62 1.33-6.94v.18c-.14.63-.27 1.32-.39 1.98z" fill="#a0baa2"/><path d="m719.73 352.9v5c.01-1.64.02-3.32 0-5z" fill="#a0baa2"/><path d="m719.59 347.76c.06 1.36.1 2.71.12 4.06-.02-1.35-.06-2.7-.12-4.06z" fill="#a0baa2"/><path d="m718.68 336.32c.2 1.68.36 3.36.51 5-.19-1.64-.31-3.32-.51-5z" fill="#a0baa2"/><path d="m719.27 342.44c.1 1.35.19 2.7.26 4.05-.07-1.35-.16-2.7-.26-4.05z" fill="#a0baa2"/><path d="m212 58 .51-.28z" fill="#a0baa2"/><path d="m177.62 83.47c1.73-1.69 3.48-3.36 5.28-5-1.8 1.64-3.55 3.31-5.28 5z" fill="#a0baa2"/><path d="m172.14 89.14c1.56-1.7 3.16-3.37 4.79-5-1.63 1.63-3.23 3.3-4.79 5z" fill="#a0baa2"/><path d="m533 51.36c.51.21 1 .43 1.52.66-.52-.23-1.03-.45-1.52-.66z" fill="#a0baa2"/><path d="m57 281.3q1.15-2.16 2.38-4.3c-.79 1.42-1.58 2.86-2.38 4.3z" fill="#a0baa2"/><path d="m52.69 290.07c.41-.89.83-1.78 1.25-2.66-.42.88-.84 1.77-1.25 2.66z" fill="#a0baa2"/><path d="m198.73 66.1c1.12-.77 2.25-1.53 3.39-2.26-1.12.73-2.27 1.49-3.39 2.26z" fill="#a0baa2"/><path d="m166.75 95.31q2.2-2.67 4.53-5.23-2.28 2.57-4.53 5.23z" fill="#a0baa2"/><path d="m182.9 78.5.13-.11z" fill="#a0baa2"/><path d="m281.54 38.88q2.46-.09 4.92-.09-2.46 0-4.92.09z" fill="#a0baa2"/><path d="m203.18 63.16c1.15-.73 2.3-1.45 3.47-2.14-1.17.69-2.32 1.41-3.47 2.14z" fill="#a0baa2"/><path d="m494.85 40.48.44.06z" fill="#a0baa2"/><path d="m247.89 43.72c.86-.22 1.72-.45 2.59-.65-.87.2-1.73.43-2.59.65z" fill="#a0baa2"/><path d="m207.56 60.47c1.44-.85 2.89-1.69 4.36-2.5q-2.21 1.22-4.36 2.5z" fill="#a0baa2"/><path d="m40.87 328.67c.11-.65.23-1.29.35-1.94-.12.65-.22 1.27-.35 1.94z" fill="#a0baa2"/><path d="m241.42 45.53c1.45-.44 2.91-.87 4.37-1.27-1.46.4-2.92.83-4.37 1.27z" fill="#a0baa2"/></svg>