<svg viewBox="0 0 758.45 709.06" xmlns="http://www.w3.org/2000/svg"><g fill="none"><path d="m8.5 336.42q.3-3 .69-5.94-.39 2.97-.69 5.94z"/><path d="m493.59 47.13c-1.58-.23-3.16-.44-4.74-.62 1.58.18 3.16.39 4.74.62z"/><path d="m524.91 55.32c-2-.78-4.12-1.49-6.2-2.18 2.08.69 4.15 1.4 6.2 2.18z"/><path d="m510.74 50.72c-1.77-.48-3.54-.92-5.33-1.34q2.71.63 5.4 1.36z"/><path d="m499.83 48.2 2.71.57c-.9-.19-1.8-.39-2.71-.57z"/><path d="m494 47.2c1.06.16 2.12.36 3.17.54-1.03-.18-2.08-.38-3.17-.54z"/><path d="m279.27 45.79-.93.07.94-.07z"/><path d="m251 50.33-2 .52c.69-.19 1.38-.35 2.07-.53z"/><path d="m253.56 49.68.48-.11z"/><path d="m9.26 330c.25-1.82.51-3.64.81-5.46-.3 1.82-.56 3.64-.81 5.46z"/><path d="m274.49 46.18c-.68.06-1.35.14-2 .21.68-.07 1.35-.15 2-.21z"/><path d="m258.21 48.64.53-.1z"/><path d="m262.91 47.75.56-.1z"/><path d="m563.67 76.88-.16-.12z"/><path d="m589.72 102.26c-.91-1.13-1.86-2.23-2.8-3.33 1 1.1 1.89 2.2 2.81 3.34z"/><path d="m585.43 97.15c-1.47-1.67-3-3.29-4.54-4.89 1.54 1.61 3.07 3.23 4.54 4.9z"/><path d="m7.61 361.08c-.05-2.2-.08-4.41-.06-6.62q-.03 3.32.06 6.62z"/><path d="m531 57.82c-1.14-.49-2.29-.94-3.44-1.4 1.15.46 2.3.91 3.44 1.4z"/><path d="m594.8 108.89c-1.31-1.82-2.67-3.59-4.06-5.35 1.39 1.76 2.75 3.53 4.06 5.35z"/><path d="m544.37 64.32c-.78-.42-1.58-.82-2.36-1.23.79.41 1.58.81 2.36 1.24z"/><path d="m551.54 68.5.71.47z"/><path d="m538.51 61.25c-2-1-4-1.89-6-2.78 2 .89 4 1.8 6 2.78z"/><path d="m244.67 52.1c-.83.25-1.65.52-2.47.79.84-.27 1.67-.55 2.52-.81z"/><path d="m46.15 342.28c0-.22.05-.45.07-.67-.02.22-.05.45-.07.67z"/><path d="m7.55 354.46q0-9 1-18-.95 8.96-1 18z"/><path d="m11.67 316.11c.24-1.14.47-2.29.74-3.43-.27 1.14-.5 2.32-.74 3.43z"/><path d="m63.55 283.67-.2.4z"/><path d="m170.67 101.79c.22-.26.43-.53.65-.8-.22.27-.43.54-.65.8z"/><path d="m235.84 55.09-2.23.86 2.24-.86z"/><path d="m29.27 267.15c.34-.66.69-1.31 1-2-.27.69-.66 1.34-1 2z"/><path d="m24.9 276c1-2.11 2-4.2 3-6.29-1.01 2.13-2.03 4.22-3 6.29z"/><path d="m175.77 95.86.85-.93z"/><path d="m52.5 310.09c-.22.69-.44 1.37-.64 2.06.2-.7.43-1.39.64-2.08z"/><path d="m48.53 325.63c-.18.88-.34 1.77-.5 2.65.16-.89.32-1.78.5-2.66z"/><path d="m181.32 90c.23-.23.46-.44.68-.67-.22.26-.45.47-.68.67z"/><path d="m47.69 330.21c-.16.91-.29 1.82-.43 2.73.14-.92.27-1.83.43-2.75z"/><path d="m54 305.57c-.16.49-.33 1-.49 1.46.16-.49.33-1 .5-1.47z"/><path d="m57.38 296.67-.48 1.18.48-1.19z"/><path d="m59.3 292.29a1.21 1.21 0 0 0 -.09.2 1.21 1.21 0 0 1 .09-.2z"/><path d="m60.52 289.67.27-.55z"/><path d="m10.3 323.3c.26-1.57.54-3.13.84-4.69-.3 1.56-.58 3.12-.84 4.69z"/><path d="m216.24 64c.58-.32 1.17-.62 1.76-.93z"/><path d="m210.51 67.31.9-.54z"/><path d="m224.63 59.79.2-.09z"/><path d="m220.4 61.84 1.16-.57z"/><path d="m187.32 84.37 1-.86z"/><path d="m704.5 301.2c.12.32.25.64.37 1-.12-.36-.25-.68-.37-1z"/><path d="m24 278.14c.3-.68.61-1.35.92-2-.36.65-.67 1.32-.92 2z"/><path d="m197.45 76.07-.37.29z"/><path d="m206.07 70.08c.34-.23.69-.45 1-.67-.31.22-.66.44-1 .67z"/><path d="m201.87 72.89.87-.59z"/><path d="m568.83 81q-2.52-2.11-5.13-4.13c1.74 1.34 3.45 2.73 5.14 4.14z"/><path d="m260.75 701.66c-1.66-.25-3.32-.52-5-.81 1.68.29 3.34.56 5 .81z"/><path d="m253.32 700.39c-1.64-.32-3.27-.66-4.9-1 1.63.34 3.26.68 4.9 1z"/><path d="m246.24 698.9c-2.32-.54-4.63-1.11-6.92-1.73 2.29.62 4.6 1.19 6.92 1.73z"/><path d="m478.56 703.59-1.68.07z"/><path d="m239.32 697.17c-1.76-.48-3.5-1-5.24-1.52 1.74.53 3.48 1.04 5.24 1.52z"/><path d="m283.39 703.72-1.71-.06z"/><path d="m277.48 703.45-1.7-.11z"/><path d="m484.45 703.27-1.68.11z"/><path d="m194.72 678.71c-1.45-.82-2.89-1.67-4.31-2.53 1.42.82 2.86 1.71 4.31 2.53z"/><path d="m210.46 686.75q-2.06-.93-4.09-1.91 2.04.98 4.09 1.91z"/><path d="m232.52 695.17c-1.26-.4-2.51-.8-3.76-1.22 1.24.42 2.5.82 3.76 1.22z"/><path d="m205.46 684.4q-5.1-2.49-10-5.28 4.91 2.79 10 5.28z"/><path d="m227.14 693.4c-1.4-.48-2.8-1-4.19-1.5 1.39.52 2.79 1.02 4.19 1.5z"/><path d="m222 691.56c-1.73-.66-3.45-1.33-5.15-2q2.56 1.02 5.15 2z"/><path d="m215.94 689.14c-1.4-.58-2.8-1.19-4.19-1.8 1.39.66 2.79 1.22 4.19 1.8z"/><path d="m591.79 660.58q-4.8 3.92-9.83 7.51 5.04-3.58 9.83-7.51z"/><path d="m730.43 444.73c-1.07 2-2.17 4-3.32 6 1.15-1.97 2.25-3.98 3.32-6z"/><path d="m746 405.17q-1.47 5.46-3.27 10.86 1.78-5.4 3.27-10.86z"/><path d="m536.68 692c-2.07.77-4.16 1.49-6.25 2.18 2.1-.67 4.18-1.39 6.25-2.18z"/><path d="m552.22 685.51q-3.11 1.47-6.27 2.83 3.16-1.34 6.27-2.83z"/><path d="m521.18 697c-2.46.67-4.95 1.29-7.44 1.87 2.49-.57 4.98-1.19 7.44-1.87z"/><path d="m270 664.53c.66.09 1.32.19 2 .26-.65-.07-1.31-.17-2-.26z"/><path d="m528.6 694.8q-3.27 1-6.59 2 3.32-.96 6.59-2z"/><path d="m545.05 688.73c-2.42 1-4.86 2-7.33 2.92 2.47-.92 4.91-1.9 7.33-2.92z"/><path d="m511.86 699.29c-1.93.42-3.86.82-5.8 1.18 1.94-.36 3.87-.76 5.8-1.18z"/><path d="m126.87 613.26c-1-1.54-1.89-3.09-2.79-4.66.92 1.57 1.84 3.12 2.79 4.66z"/><path d="m129.82 617.89c-.69-1-1.37-2.12-2-3.18.63 1.06 1.31 2.13 2 3.18z"/><path d="m713.39 337.25c-.16-1.28-.33-2.56-.52-3.83.19 1.27.36 2.55.52 3.83z"/><path d="m712.78 332.76c-.2-1.31-.41-2.62-.64-3.92.23 1.31.44 2.62.64 3.94z"/><path d="m714.27 347.71.06 1.24z"/><path d="m713.93 342.66c0 .35.06.71.08 1.06-.01-.35-.01-.72-.08-1.06z"/><path d="m709.37 316.31c.08.3.15.61.23.92-.08-.31-.15-.62-.23-.92z"/><path d="m33 451a188.79 188.79 0 0 1 -13.42-28.5 188.79 188.79 0 0 0 13.42 28.5z"/><path d="m707.09 308.58.39 1.21z"/><path d="m711.27 324.32c.26 1.24.5 2.48.72 3.73-.22-1.25-.46-2.49-.72-3.73z"/><path d="m7.93 368.07q-.22-3.39-.31-6.76.09 3.38.31 6.76z"/><path d="m133 622.58c-.72-1-1.44-2.07-2.14-3.11.71 1.04 1.42 2.08 2.14 3.11z"/><path d="m143.94 636.7c-.82-1-1.62-1.92-2.41-2.89.79.97 1.59 1.93 2.41 2.89z"/><path d="m189.75 675.78q-7.42-4.53-14.43-9.74 7.01 5.21 14.43 9.74z"/><path d="m710.55 390.12c.19-.83.36-1.66.54-2.5-.18.84-.35 1.67-.54 2.5z"/><path d="m147.65 640.92c-.84-.93-1.68-1.86-2.5-2.81.85.95 1.66 1.89 2.5 2.81z"/><path d="m140.47 632.52c-1.12-1.39-2.23-2.8-3.31-4.23 1.08 1.43 2.19 2.84 3.31 4.23z"/><path d="m655.4 212.25-52.4-90.63c-1.13-2-2.32-3.87-3.53-5.77 1.21 1.9 2.4 3.81 3.53 5.77z"/><path d="m175 665.8q-7.09-5.29-13.71-11.26 6.6 5.96 13.71 11.26z"/><path d="m712.79 378.26c-.13.85-.26 1.7-.4 2.55.14-.81.27-1.7.4-2.55z"/><path d="m714.3 363v-.78z"/><path d="m137.16 628.29c-1.08-1.42-2.14-2.87-3.18-4.33 1.02 1.46 2.1 2.91 3.18 4.33z"/><path d="m714 367.34c.08-1 .16-2.07.22-3.1-.06 1-.14 2.06-.22 3.1z"/><path d="m714.45 352.94v1.06c.01-.35 0-.71 0-1.06z"/><path d="m713.61 371.85c0-.13 0-.25 0-.38z"/><path d="m622.29 82.13c2.29 3 4.51 6.06 6.63 9.2l.6.9q-5.1-7.64-10.88-14.7c.9 1.09 1.78 2.19 2.65 3.31.33.43.71.85 1 1.29z"/><path d="m152.42 646c-1.24-1.27-2.46-2.57-3.67-3.88q6 6.5 12.52 12.39-2.22-2-4.38-4.08c-1.51-1.43-3.01-2.91-4.47-4.43z"/><path d="m9.12 380.37q-.79-6.14-1.19-12.3a191.09 191.09 0 0 0 4.48 30.59q-.69-3-1.29-6.07-1.2-6.07-2-12.22z"/><path d="m263 702c2.39.33 4.79.63 7.2.87h-.05q-3.62-.37-7.15-.87z"/><path d="m24 278.14a189.2 189.2 0 0 0 -10.08 28.61q.83-3.13 1.77-6.24a188.73 188.73 0 0 1 8.31-22.37z"/><path d="m490.1 702.8h-.05q7-.7 13.86-1.93c-2.51.44-5 .85-7.57 1.19q-3.1.42-6.24.74z"/><path d="m733.54 438.57q-1.45 3-3 6a187.43 187.43 0 0 0 7.94-17c-.19.47-.39.93-.58 1.39q-2.04 4.84-4.36 9.61z"/><path d="m560.52 681.37c-2.27 1.21-4.57 2.36-6.88 3.47a192.51 192.51 0 0 0 28.36-16.75q-7.55 5.4-15.58 10c-1.97 1.15-3.93 2.23-5.9 3.28z"/><path d="m221.58 19.81c-2.49 1-5 2-7.39 3 2.44-1.05 4.89-2.06 7.37-3z"/><path d="m477.78 7.5q-3.42-.12-6.85-.12c2.12 0 4.25 0 6.36.1z"/><path d="m491.5 8.51.9.1-2.53-.29h.05z"/><path d="m738.48 427.46c1.52-3.74 2.93-7.51 4.2-11.32-.07.22-.15.43-.22.65q-1.83 5.38-3.98 10.67z"/><path d="m191.86 34.15q-4.79 2.84-9.41 5.94c2-1.32 3.92-2.61 5.92-3.85 1.15-.71 2.32-1.4 3.49-2.09z"/><path d="m163.53 54.61c1.78-1.55 3.6-3.06 5.43-4.55a192 192 0 0 0 -14.8 13.31c1.57-1.56 3.15-3.1 4.77-4.61s3.07-2.76 4.6-4.15z"/><path d="m262.67 9.28 1.66-.23z"/><path d="m578.72 621.17-.68.67z"/><path d="m256.9 10.18 1.65-.27z"/><path d="m584.28 615.33-.85.94z"/><path d="m504.29 10.35c1.08.19 2.17.39 3.25.6-2.48-.49-5-.92-7.48-1.31.77.12 1.55.23 2.32.36s1.27.23 1.91.35z"/><path d="m46 343.84c-.08 1-.16 2.08-.22 3.13.06-1.05.14-2.09.22-3.13z"/><path d="m708.91 396.48v-.01z"/><path d="m704.44 410.1c.25-.67.51-1.34.75-2-.24.67-.5 1.34-.75 2z"/><path d="m708.19 399c0 .11-.07.22-.1.33.03-.07.07-.18.1-.33z"/><path d="m275.59 7.92 1.69-.11z"/><path d="m697.23 426.11c-.23.43-.44.86-.67 1.29z"/><path d="m702.67 414.52c.27-.64.53-1.29.79-1.94-.26.65-.52 1.3-.79 1.95z"/><path d="m589.39 609.38c-.22.27-.44.55-.67.82.28-.27.45-.55.67-.82z"/><path d="m558.18 638.3-.86.59z"/><path d="m745.72 305q2.12 7.72 3.57 15.57-1.47-7.86-3.57-15.57z"/><path d="m743.58 297.76c.74 2.36 1.45 4.72 2.1 7.1-.68-2.38-1.36-4.74-2.1-7.1z"/><path d="m496.17 9.06 1.41.21z"/><path d="m483.63 7.8q.35 0 .69.06c-.23-.02-.46-.05-.69-.06z"/><path d="m752.22 345.15a191.53 191.53 0 0 1 .07 19.32 191.53 191.53 0 0 0 -.07-19.32z"/><path d="m740.91 289.92c.83 2.28 1.62 4.58 2.36 6.88-.74-2.3-1.53-4.6-2.36-6.88z"/><path d="m735 275.52q1.39 3 2.68 6.06-1.33-3.04-2.68-6.06z"/><path d="m545 22.4c1.29.55 2.57 1.11 3.85 1.68-1.33-.57-2.61-1.08-3.85-1.68z"/><path d="m629.83 92.71c.78 1.17 1.55 2.36 2.3 3.55-.75-1.19-1.52-2.38-2.3-3.55z"/><path d="m561.61 30.41c1.25.67 2.49 1.36 3.73 2.07-1.24-.71-2.48-1.4-3.73-2.07z"/><path d="m752.2 366.37c-.06 1.09-.14 2.17-.22 3.26.08-1.09.16-2.17.22-3.26z"/><path d="m737.92 282.24c1 2.42 2 4.85 2.86 7.3q-1.35-3.68-2.86-7.3z"/><path d="m727.05 260.21q1.86 3.24 3.58 6.54-1.72-3.3-3.58-6.54z"/><path d="m671 163.27-35-60.68c-1-1.65-1.94-3.28-2.94-4.9 1 1.62 2 3.25 2.94 4.9z"/><path d="m571.42 36.08h.06q2.38 1.49 4.74 3.05l1.22.82c1.19.8 2.36 1.61 3.53 2.43q-7.15-5.06-14.75-9.44l.47.27q2.38 1.43 4.73 2.87z"/><path d="m555.13 27 .17.09c1.68.83 3.34 1.69 5 2.57l1.25.68q-5.88-3.18-12-5.95l.69.31c1.65.79 3.28 1.55 4.89 2.3z"/><path d="m591.15 50.13c-3-2.47-6.17-4.84-9.35-7.12l.43.31q4.56 3.27 8.92 6.81z"/><path d="m538.32 19.73c1.74.66 3.47 1.36 5.19 2.07l.49.2q-5.38-2.23-10.9-4.15c1.64.57 3.26 1.15 4.88 1.76z"/><path d="m527.53 16c1.32.41 2.64.84 4 1.28q-5.31-1.79-10.74-3.28h-.07c1.78.48 3.56 1 5.33 1.53z"/><path d="m596.76 54.87q4.24 3.71 8.24 7.66l1.09 1.09q1.5 1.51 3 3.06a190.93 190.93 0 0 0 -16.74-15.59q1.65 1.36 3.27 2.77c.38.33.76.67 1.14 1.01z"/><path d="m752.22 345.12a193.59 193.59 0 0 0 -2.93-24.56 194.45 194.45 0 0 1 2.7 20.93c.09 1.21.16 2.42.23 3.63z"/><path d="m281.48 7.6 1.7-.07z"/><path d="m751.13 378.47c-.09.72-.17 1.44-.26 2.16.13-.72.13-1.44.26-2.16z"/><path d="m514.63 12.47c.79.19 1.57.4 2.36.6-2.8-.7-5.62-1.36-8.46-1.93.73.14 1.44.31 2.16.47 1.31.28 2.63.55 3.94.86z"/><path d="m751.77 372.29c-.08.93-.16 1.85-.26 2.78.1-.93.18-1.85.26-2.78z"/><path d="m617.63 76.29.07.08q-3.9-4.7-8.09-9.12c.18.19.37.38.55.58 2.56 2.74 5.06 5.56 7.47 8.46z"/><path d="m572.74 626.82-1.13 1c.39-.34.75-.66 1.13-1z"/><path d="m160.55 595.34c-1.21-1.9-2.4-3.81-3.53-5.77 1.13 1.96 2.31 3.87 3.53 5.77z"/><path d="m161.46 596.75c.48.73 1 1.43 1.46 2.14-.48-.71-1-1.41-1.46-2.14z"/><path d="m174.63 614.05c1.4 1.59 2.86 3.14 4.33 4.67-1.47-1.53-2.93-3.08-4.33-4.67z"/><path d="m140.78 78.25c.83-1 1.67-2 2.53-3.06-.86 1.01-1.7 2.03-2.53 3.06z"/><path d="m55.55 410c-.13-.32-.25-.63-.37-1 .12.35.24.66.37 1z"/><path d="m180.3 620.11 1.18 1.15c-.39-.39-.8-.77-1.18-1.16z"/><path d="m203.08 639.13c.3.21.62.4.92.61-.3-.21-.62-.41-.93-.61z"/><path d="m190 629.12c-1.12-1-2.21-2-3.31-2.94 1.09 1 2.18 1.99 3.31 2.94z"/><path d="m196.4 634.32c1.17.9 2.39 1.75 3.59 2.61-1.2-.86-2.42-1.71-3.6-2.61z"/><path d="m53 402.61c-.12-.4-.25-.81-.38-1.21.08.4.21.81.38 1.21z"/><path d="m145.08 73.11c.9-1 1.81-2 2.72-3-.91.96-1.8 1.97-2.72 3z"/><path d="m191.24 630.19c1.66 1.38 3.34 2.74 5.06 4-1.72-1.32-3.4-2.69-5.07-4.08z"/><path d="m136.61 83.59c.8-1.07 1.61-2.12 2.43-3.16-.82 1.04-1.63 2.09-2.43 3.16z"/><path d="m221.37 649.86c-.63-.31-1.24-.66-1.87-1 .64.34 1.25.68 1.87 1z"/><path d="m45.6 358.25c0-.36 0-.71 0-1.06-.01.35 0 .7 0 1.06z"/><path d="m45.78 363.48-.06-1.24z"/><path d="m128.6 95.1c.82-1.28 1.64-2.55 2.49-3.8-.85 1.25-1.67 2.52-2.49 3.8z"/><path d="m123.91 102.76c1.13-2 2.3-3.89 3.49-5.8-1.19 1.91-2.4 3.84-3.49 5.8z"/><path d="m45.75 348.22c0 .67 0 1.33-.08 2 0-.67 0-1.33.08-2z"/><path d="m48 382.82c.25 1.35.51 2.7.79 4.05-.28-1.35-.54-2.7-.79-4.05z"/><path d="m50.68 394.88c-.08-.3-.16-.61-.23-.92.07.31.15.61.23.92z"/><path d="m47.27 378.43c.2 1.31.41 2.62.64 3.93-.23-1.31-.44-2.63-.64-3.94z"/><path d="m132.58 89.16c.79-1.13 1.58-2.26 2.39-3.37-.81 1.11-1.6 2.21-2.39 3.37z"/><path d="m46.66 373.94c.16 1.32.34 2.63.53 3.94-.19-1.31-.37-2.62-.53-3.94z"/><path d="m46.12 368.52c0-.34-.06-.69-.08-1 .02.31.05.66.08 1z"/><path d="m549.54 643.89-.89.53z"/><path d="m515.39 659.1.76-.25z"/><path d="m522.35 656.77c-.47.18-1 .34-1.43.51z"/><path d="m524.21 656.1.6-.23z"/><path d="m226.81 17.93 1.56-.53z"/><path d="m504.39 662 1.39-.31-1.42.32z"/><path d="m511.08 660.34-1.92.5c.65-.17 1.29-.32 1.92-.5z"/><path d="m232.31 16.12 1.57-.49z"/><path d="m540.8 648.76c1-.5 1.94-1 2.9-1.52-1 .52-1.94 1-2.91 1.52z"/><path d="m554 641.12-1 .66z"/><path d="m499.73 663c.7-.14 1.4-.27 2.1-.42l-2.12.42z"/><path d="m531.13 653.32c-.66.29-1.33.56-2 .84z"/><path d="m536.86 650.72.84-.41-.85.41z"/><path d="m535.43 651.4-1.79.82z"/><path d="m426.93 665.73 44.22-.01-55.04.01z"/><path d="m242.93 658.57c.49.16 1 .29 1.49.44l-1.5-.44z"/><path d="m261 663.14c1.67.31 3.35.6 5 .86-1.68-.26-3.36-.55-5-.86z"/><path d="m235.14 655.87c2.06.78 4.14 1.5 6.23 2.19-2.09-.69-4.17-1.41-6.23-2.19z"/><path d="m149.55 68.15c1-1.09 2-2.15 3.09-3.22-1.04 1.07-2.08 2.13-3.09 3.22z"/><path d="m227.51 652.72c-2-.88-4-1.8-5.95-2.77 1.96.97 3.95 1.89 5.95 2.77z"/><path d="m495 663.8 1.7-.29-1.71.29z"/><path d="m229 653.37q2.94 1.27 5.92 2.42-3-1.14-5.93-2.42z"/><path d="m490.32 664.48 2.07-.28-2.09.28z"/><path d="m485.56 665c.68-.06 1.35-.14 2-.21-.68.07-1.35.15-2 .21z"/><path d="m170.69 48.69c1.3-1 2.6-2 3.92-3-1.32.97-2.61 1.98-3.92 3z"/><path d="m176.6 44.2q2-1.46 4-2.86-2 1.41-4 2.86z"/><path d="m480.78 665.4 1.67-.13-1.68.13z"/><path d="m731.61 268.65c.84 1.64 1.66 3.3 2.45 5-.79-1.65-1.61-3.36-2.45-5z"/><path d="m190.4 359.02.03 106.12z"/><path d="m380.1 574.56-91.92-53.03 91.92 53.03 39.29-22.7z"/><path d="m190.43 465.14 39.32 22.68z"/><path d="m412.18 544.06c-1.14 0-2.29 0-3.43-.1 1.14.04 2.25.1 3.43.1z"/><path d="m416.87 543.94c-1.11.07-2.22.1-3.34.12 1.12-.06 2.23-.06 3.34-.12z"/><path d="m228.48 468.27c-.17-.47-.36-.93-.52-1.4.16.47.35.93.52 1.4z"/><path d="m407.83 543.89c-1-.07-2.07-.17-3.1-.29 1.03.12 2.07.22 3.1.29z"/><path d="m200.73 289.2c.58-1 1.17-1.95 1.8-2.91-.63.96-1.22 1.93-1.8 2.91z"/><path d="m203.06 285.52c.57-.85 1.17-1.69 1.79-2.52-.62.83-1.22 1.67-1.79 2.52z"/><path d="m205.4 282.26c.76-1 1.55-1.95 2.36-2.89-.76.94-1.6 1.91-2.36 2.89z"/><path d="m198.5 293.32c.49-1 1-2 1.55-2.93-.54.97-1.05 1.94-1.55 2.93z"/><path d="m403.82 543.49c-1.23-.16-2.45-.36-3.68-.6 1.23.24 2.45.44 3.68.6z"/><path d="m230.49 473-.66-1.44z"/><path d="m343.22 167.25c1.09-.07 2.19-.1 3.29-.12-1.1.02-2.2.05-3.29.12z"/><path d="m232.77 477.46c-.22-.38-.42-.76-.63-1.15.21.39.41.77.63 1.15z"/><path d="m183.32 150.48a24.79 24.79 0 0 1 2.73-1.36 24.79 24.79 0 0 0 -2.73 1.36z"/><path d="m420.8 594.98 105.59-61.01z"/><path d="m448 79.57a23.31 23.31 0 0 1 2.77.21 23.31 23.31 0 0 0 -2.77-.21z"/><path d="m190.36 246.18 91.88-53.09-91.88 53.09.02 45.37z"/><path d="m652.89 276.16a21.56 21.56 0 0 1 1.34 2.73 21.56 21.56 0 0 0 -1.34-2.73z"/><path d="m459.32 82.7a22.46 22.46 0 0 1 2.2 1.44 22.46 22.46 0 0 0 -2.2-1.44z"/><path d="m177.49 155.27a23 23 0 0 1 4.54-4 23 23 0 0 0 -4.54 4z"/><path d="m104.09 424.94a23.87 23.87 0 0 1 0-3.05 23.87 23.87 0 0 0 0 3.05z"/><path d="m107.16 435a23.47 23.47 0 0 1 -2.91-8.59 23.47 23.47 0 0 0 2.91 8.59z"/><path d="m172.46 164.59-.05.16z"/><path d="m654.23 278.89a23.12 23.12 0 0 1 1 2.87 23.12 23.12 0 0 0 -1-2.87z"/><path d="m569.65 352.17-.01-34.07z"/><path d="m569.69 465.02-91.89 53.09 91.89-53.09-.02-45.38z"/><path d="m394.83 101.3 110.12 63.53z"/><path d="m152.33 271.21.06 198.71z"/><path d="m530.38 385.65a27.88 27.88 0 0 1 .1 3.29 27.88 27.88 0 0 0 -.1-3.29z"/><path d="m336.12 108.65-147.12 39.48a24.46 24.46 0 0 0 -2.92 1 24.46 24.46 0 0 1 2.92-1z"/><path d="m144.21 270.15-39.18 146.42z"/><path d="m110.89 439.92 33.58 33.55z"/><path d="m459.32 82.7a23.46 23.46 0 0 0 -8.55-2.92 23.46 23.46 0 0 1 8.55 2.92z"/><path d="m479.09 101.32-14.92-14.91c-.36-.37-.74-.72-1.13-1.06.39.34.77.69 1.13 1.06z"/><path d="m522.12 408.46-89.12 89.19a28.52 28.52 0 0 1 -9.33 6.22 28.52 28.52 0 0 0 9.33-6.22z"/><path d="m588.05 544.89-.47 1.74z"/><path d="m283.48 472.49h-.11a28.76 28.76 0 0 1 -17.72-14.11 28.76 28.76 0 0 0 17.72 14.11h.11l121.81 32.59a28.45 28.45 0 0 0 5.6.92 28.45 28.45 0 0 1 -5.6-.92z"/><path d="m188.11 517.09 45.41 45.38z"/><path d="m318.48 630.83c-.5.14-1 .26-1.52.36.51-.1 1-.22 1.52-.36l45.85-12.3z"/><path d="m423.94 602.54 147.14-39.48c.5-.13 1-.28 1.48-.45-.49.17-1 .32-1.48.45z"/><path d="m472.81 511.61 44.06-44.09z"/><path d="m529.56 238.16c.22.48.44 1 .65 1.44-.21-.48-.43-.96-.65-1.44z"/><path d="m531.57 242.93c.17.46.36.92.52 1.39-.16-.47-.35-.93-.52-1.39z"/><path d="m527.29 233.73c.21.38.41.76.61 1.14-.21-.38-.4-.76-.61-1.14z"/><path d="m557 425.68c-.58.85-1.17 1.68-1.78 2.5.6-.82 1.19-1.65 1.78-2.5z"/><path d="m559.32 422c-.58 1-1.17 2-1.8 2.91.63-.91 1.22-1.91 1.8-2.91z"/><path d="m561.55 417.87c-.49 1-1 2-1.55 2.93.54-.97 1.06-1.94 1.55-2.93z"/><path d="m352.23 167.3c1 .07 2 .17 3.08.29-1.03-.12-2.06-.22-3.08-.29z"/><path d="m356.23 167.7c1.23.17 2.45.37 3.67.6-1.22-.23-2.44-.44-3.67-.6z"/><path d="m524.72 229.52v.01z"/><path d="m360.75 168.47c1.29.26 2.57.55 3.84.89-1.27-.36-2.59-.63-3.84-.89z"/><path d="m530.28 391.64c-.09.77-.21 1.52-.36 2.27.15-.75.27-1.5.36-2.27z"/><path d="m554.64 428.94c-.75 1-1.54 1.94-2.35 2.88.81-.94 1.6-1.9 2.35-2.88z"/><path d="m419 505.34a28.49 28.49 0 0 1 -4.32.64 28.49 28.49 0 0 0 4.32-.64z"/><path d="m496.85 259 32.68 121.79a26.25 26.25 0 0 1 .62 3 26.25 26.25 0 0 0 -.62-3l-32.68-121.79a28.48 28.48 0 0 0 -4.46-9.34 28.48 28.48 0 0 1 4.46 9.34z"/><path d="m319 521.37 76.48 20.46c1.27.34 2.56.63 3.85.89-1.29-.26-2.58-.55-3.85-.89z"/><path d="m297.25 626-.24-.19z"/><path d="m198.52 358 27.93 104.13z"/><path d="m551.72 432.47c-.87 1-1.76 1.94-2.69 2.87.97-.93 1.82-1.89 2.69-2.87z"/><path d="m347.87 167.13c1.15 0 2.29 0 3.43.1-1.14-.07-2.3-.1-3.43-.1z"/><path d="m287.23 199.58-76.23 76.26c-.93.94-1.82 1.91-2.69 2.89.87-1 1.76-2 2.69-2.89z"/><path d="m308.57 631.29-.76-.13z"/><path d="m307.06 631-.73-.17z"/><path d="m125.76 191.92-57.68 215.56c-.35 1.3-.65 2.61-.91 3.92.26-1.31.56-2.62.91-3.92z"/><path d="m585.66 551.45a23.81 23.81 0 0 1 -5.59 6.9 23.81 23.81 0 0 0 5.59-6.9z"/><path d="m634.29 519.27 57.71-215.56c.35-1.3.65-2.6.91-3.91-.26 1.31-.56 2.61-.91 3.91z"/><path d="m576.72 560.71a21.7 21.7 0 0 1 -2.73 1.36 23.14 23.14 0 0 0 2.73-1.36z"/><path d="m394.64 53.56-215.53 57.83c-1.25.33-2.48.71-3.7 1.12 1.22-.41 2.45-.79 3.7-1.12z"/><path d="m575 143.41-84-83.91c-.95-1-1.94-1.87-2.95-2.76 1 .89 2 1.81 2.95 2.76z"/><path d="m313.24 631.6h-.88z"/><path d="m310.09 631.5-.77-.08z"/><path d="m316.72 631.23-1.29.21z"/><path d="m311.64 631.6h-.81z"/><path d="m305.5 630.56-.61-.18z"/><path d="m314.9 631.49-1 .09z"/><path d="m302.67 629.48-.58-.26z"/><path d="m304.07 630.07-.6-.23z"/><path d="m301.31 628.81-.56-.3z"/><path d="m66.53 415.33c0-.05 0-.11 0-.17s0 .12 0 .17z"/><path d="m171.54 114 .25-.1z"/><path d="m300 628c-.17-.12-.36-.22-.53-.33.15.15.34.25.53.33z"/><path d="m298.64 627.13c-.14-.11-.29-.2-.44-.31.15.11.3.18.44.31z"/><path d="m365.4 657.63 80.37-21.56z"/><path d="m271.92 654.44c-1-.88-2-1.8-2.93-2.75.95.95 1.93 1.87 2.93 2.75z"/><path d="m485 54.23c.43.33.85.7 1.28 1.05-.39-.35-.8-.72-1.28-1.05z"/></g><path d="m486.32 55.28c.6.48 1.21.95 1.79 1.46-.58-.51-1.19-.98-1.79-1.46z"/><path d="m171.79 113.87c1.19-.49 2.4-.94 3.62-1.36-1.22.42-2.41.87-3.62 1.36z"/><path d="m66.55 415.16c.17-1.25.37-2.51.62-3.76-.25 1.25-.45 2.51-.62 3.76z"/><path d="m634.29 519.27 57.71-215.56c.35-1.3.65-2.6.91-3.91s.46-2.59.63-3.89a.09.09 0 0 0 0-.05 61.65 61.65 0 0 0 -17.47-51.49l-101-101-84-83.91c-.95-1-1.94-1.87-2.95-2.76-.58-.51-1.19-1-1.79-1.46-.43-.35-.85-.72-1.28-1.05a61.6 61.6 0 0 0 -53.33-10.61l-37.07 9.94-215.54 57.87c-1.25.33-2.48.71-3.7 1.12s-2.43.87-3.62 1.36l-.25.1a61.7 61.7 0 0 0 -35.81 40.71l-10 37.24-57.65 215.56c-.35 1.3-.65 2.61-.91 3.92s-.45 2.51-.62 3.76v.17a61.66 61.66 0 0 0 17.45 51.5l185 184.86c.95.95 1.93 1.87 2.93 2.75s1.94 1.63 2.94 2.4l.15.12a61.55 61.55 0 0 0 53.31 10.62l37.06-10 80.37-21.56 135.17-36.22a61.62 61.62 0 0 0 43.37-43.22zm-210.35 83.27-24.88 14.37a38.17 38.17 0 0 1 -28.94 3.74 37.15 37.15 0 0 1 -5.79-2.12l-45.85 12.3c-.5.14-1 .26-1.52.36h-.24l-1.29.21h-.53l-1 .09c-.22 0-.44 0-.66 0h-.88-.72-.81l-.74-.07-.77-.08-.75-.13-.76-.13-.75-.17-.73-.17h-.05c-.26-.07-.52-.16-.78-.24l-.61-.18-.82-.31-.6-.23c-.27-.11-.53-.23-.8-.36l-.58-.26-.78-.41-.56-.3-.75-.45c-.17-.12-.36-.22-.53-.33s-.54-.39-.81-.58-.29-.2-.44-.31c-.32-.25-.64-.52-.95-.79l-.24-.19c-.39-.34-.76-.69-1.13-1.06l-62.36-62.31-45.41-45.38-24.87-14.35a38 38 0 0 1 -18.77-29.27l-33.58-33.55a23.45 23.45 0 0 1 -6.64-13.47c-.07-.5-.12-1-.16-1.51a23.87 23.87 0 0 1 0-3.05 24.65 24.65 0 0 1 .4-3.06c.1-.5.21-1 .35-1.51l.2-.75 39.18-146.42v-28.69a38 38 0 0 1 16-30.89l12.25-45.78.05-.16a23.08 23.08 0 0 1 1.64-4.31 23.65 23.65 0 0 1 1.54-2.62 21.46 21.46 0 0 1 1.85-2.39 23 23 0 0 1 4.54-4q.63-.42 1.29-.81a24.79 24.79 0 0 1 2.73-1.36 24.46 24.46 0 0 1 2.92-1l147.15-39.48 24.8-14.34a38.15 38.15 0 0 1 28.93-3.74 37.37 37.37 0 0 1 5.81 2.12l45.84-12.3a22.75 22.75 0 0 1 4.6-.75h1.83a23.31 23.31 0 0 1 2.77.21 23.46 23.46 0 0 1 8.55 2.92 22.46 22.46 0 0 1 2.2 1.44c.52.39 1 .78 1.52 1.21s.77.69 1.13 1.06l14.92 14.91 92.84 92.77 24.88 14.36a38 38 0 0 1 18.78 29.27l33.57 33.55a23.38 23.38 0 0 1 3.73 4.89 21.56 21.56 0 0 1 1.34 2.73 23.12 23.12 0 0 1 1 2.87c.13.49.24 1 .34 1.48a23.62 23.62 0 0 1 .42 6.06 23.94 23.94 0 0 1 -.75 4.57l-39.41 147.09v28.73a38 38 0 0 1 -16 30.89l-11.84 44.23-.47 1.75a23.45 23.45 0 0 1 -7.51 11.71 23.61 23.61 0 0 1 -6.08 3.72c-.47.19-1 .38-1.43.54s-1 .32-1.48.45z" fill="#81a684"/><path d="m655.55 283.24a23.62 23.62 0 0 1 .42 6.06 23.62 23.62 0 0 0 -.42-6.06z"/><path d="m656 289.3a23.94 23.94 0 0 1 -.75 4.57 23.94 23.94 0 0 0 .75-4.57z"/><path d="m315.43 631.44h-.53z"/><path d="m303.47 629.84c-.27-.11-.53-.23-.8-.36.27.13.53.25.8.36z"/><path d="m304.89 630.38-.82-.31z"/><path d="m317 631.19h-.24z"/><path d="m587.58 546.64a23.91 23.91 0 0 1 -1.92 4.81 23.91 23.91 0 0 0 1.92-4.81z"/><path d="m580.07 558.35a23.2 23.2 0 0 1 -3.35 2.36 23.2 23.2 0 0 0 3.35-2.36z"/><path d="m461.52 84.14c.52.39 1 .78 1.52 1.21-.49-.43-1.04-.82-1.52-1.21z"/><path d="m302.09 629.22-.78-.41z"/><path d="m446.17 79.61h1.83c-.61-.05-1.22-.04-1.83 0z"/><path d="m175.64 157.66a21.46 21.46 0 0 1 1.85-2.39 21.46 21.46 0 0 0 -1.85 2.39z"/><path d="m233.52 562.47 62.36 62.31c.37.37.74.72 1.13 1.06-.39-.34-.76-.69-1.13-1.06z"/><path d="m300.75 628.51-.75-.51z"/><path d="m105 416.57-.2.75c-.14.5-.25 1-.35 1.51.1-.5.21-1 .35-1.51z"/><path d="m172.46 164.59a23.08 23.08 0 0 1 1.64-4.31 23.08 23.08 0 0 0 -1.64 4.31z"/><path d="m299.45 627.71c-.28-.19-.54-.39-.81-.58.27.19.53.39.81.58z"/><path d="m298.2 626.82c-.32-.25-.64-.52-.95-.79.31.27.63.54.95.79z"/><path d="m313.9 631.58c-.22 0-.44 0-.66 0 .22.01.44.02.66 0z"/><path d="m307.81 631.16-.75-.17z"/><path d="m309.32 631.42-.75-.13z"/><path d="m306.28 630.8h.05l-.83-.26c.26.1.5.19.78.26z"/><path d="m312.36 631.63h-.72z"/><path d="m310.83 631.57-.74-.07z"/><path d="m566.94 200.59-61.99-35.76z" fill="#57886c"/><path d="m607.67 471.57q.06-.9.06-1.8v-29.77l-.06-198.7a29.86 29.86 0 0 0 -13.38-24.84c-.5-.33-1-.65-1.52-1l-25.82-14.89-62-35.76-110.12-63.51a29.81 29.81 0 0 0 -28.19-.84c-.54.27-1.07.55-1.59.85l-25.8 14.9-172 99.41a29.84 29.84 0 0 0 -14.82 24q-.06.9-.06 1.8v29.8l.06 198.7a29.87 29.87 0 0 0 13.37 24.83c.5.33 1 .66 1.53 1l25.81 14.88 172.12 99.3a29.49 29.49 0 0 0 7 2.93 30.11 30.11 0 0 0 9.86.94 29.8 29.8 0 0 0 11.17-3c.57-.29 1.16-.56 1.72-.89l25.79-14.91 105.59-61 66.46-38.4a29.9 29.9 0 0 0 14.82-24zm-129.87 46.54-12.17 12.17a75 75 0 0 1 -46.24 21.58l-24.79 14.32a29 29 0 0 1 -29 0l-77.41-44.66-16.67-4.46-.25-.07a75 75 0 0 1 -41.51-29.18l-25.71-14.81a27.2 27.2 0 0 1 -13.62-23.57v-90.4l-4.46-16.63a74.93 74.93 0 0 1 4.44-50.84v-28.1a29.88 29.88 0 0 1 14.95-25.91l76.92-44.45 12.17-12.18a75 75 0 0 1 46.26-21.58l34.8-20.11a9 9 0 0 1 9 0l87.44 50.45 16.66 4.45.26.07a75 75 0 0 1 41.5 29.18l33.63 19.46a11.12 11.12 0 0 1 5.58 9.64v65.62 34.07l4.46 16.63a74.93 74.93 0 0 1 -4.44 50.84v35.78a16.58 16.58 0 0 1 -8.3 14.39z" fill="#57886c"/><path d="m557.52 424.9-.53.78z"/><path d="m552.29 431.82-.57.65z"/><path d="m555.21 428.18-.57.76z"/><path d="m516.87 467.52 32.16-32.17v-.01.01z"/><path d="m560 420.8c-.22.4-.45.79-.68 1.19.23-.4.46-.79.68-1.19z"/><path d="m400.14 542.89-.83-.17z"/><path d="m532.09 244.32c.56 1.57 1.07 3.17 1.51 4.79-.44-1.62-.95-3.22-1.51-4.79z"/><path d="m404.73 543.6-.91-.11z"/><path d="m235.31 481.64c-.9-1.36-1.74-2.75-2.54-4.18.8 1.43 1.64 2.82 2.54 4.18z"/><path d="m566.27 370.9-32.67-121.79c-.44-1.62-1-3.22-1.51-4.79-.16-.47-.35-.93-.52-1.39-.43-1.12-.87-2.24-1.36-3.33-.21-.48-.43-1-.65-1.44-.52-1.11-1.08-2.21-1.66-3.29-.2-.38-.4-.76-.61-1.14-.81-1.43-1.66-2.84-2.57-4.2a66.88 66.88 0 0 0 -38.05-27.53l-.26-.07-121.82-32.6c-1.27-.34-2.55-.63-3.84-.89l-.85-.17c-1.22-.23-2.44-.43-3.67-.6l-.92-.11c-1-.12-2.06-.22-3.08-.29l-.93-.07c-1.14-.07-2.28-.09-3.43-.1h-1.36c-1.1 0-2.2.05-3.29.12a66.88 66.88 0 0 0 -43 19.4l-12.93 12.93-76.29 76.29c-.93.94-1.82 1.91-2.69 2.89l-.57.64c-.81.94-1.6 1.91-2.36 2.89-.19.24-.37.49-.55.74-.62.83-1.22 1.67-1.79 2.52-.18.26-.36.51-.53.77-.63 1-1.22 1.93-1.8 2.91-.23.4-.46.79-.68 1.19-.54 1-1.06 1.94-1.55 2.93a66.83 66.83 0 0 0 -4.72 46.95l4.76 17.73 27.93 104.13q.66 2.43 1.5 4.77c.16.47.35.93.52 1.4.43 1.12.87 2.23 1.35 3.32l.66 1.44c.52 1.11 1.08 2.2 1.65 3.28.21.39.41.77.63 1.15.8 1.43 1.64 2.82 2.54 4.18a66.88 66.88 0 0 0 38.06 27.5l.25.07 45.39 12.13 76.48 20.46c1.27.34 2.56.63 3.85.89l.83.17c1.23.24 2.45.44 3.68.6l.91.11c1 .12 2.07.22 3.1.29.3 0 .61.06.92.07 1.14.07 2.29.1 3.43.1h1.35c1.12 0 2.23 0 3.34-.12a66.88 66.88 0 0 0 43-19.4l12.92-12.93 44.06-44.08 32.13-32.18c.93-.93 1.82-1.89 2.69-2.87l.57-.65c.81-.94 1.6-1.9 2.35-2.88l.57-.76c.61-.82 1.2-1.65 1.78-2.5l.53-.78c.63-.95 1.22-1.93 1.8-2.91.23-.4.46-.79.68-1.19.54-1 1.06-1.94 1.55-2.93a66.88 66.88 0 0 0 4.75-46.98zm-40.56 33.16a28.89 28.89 0 0 1 -3.59 4.4l-89.12 89.19a29 29 0 0 1 -18.37 8.35 29.16 29.16 0 0 1 -3.74 0 28.45 28.45 0 0 1 -5.6-.92l-121.81-32.59h-.11a28.76 28.76 0 0 1 -17.72-14.11 26 26 0 0 1 -1.23-2.55 28.45 28.45 0 0 1 -1.22-3.58l-32.68-121.82c-.17-.62-.31-1.24-.43-1.86a28.56 28.56 0 0 1 -.48-7.48 29.26 29.26 0 0 1 .92-5.5 28.62 28.62 0 0 1 7.4-12.86l89.14-89.19a28.56 28.56 0 0 1 12.85-7.41 28.25 28.25 0 0 1 3.64-.73 29 29 0 0 1 3.72-.26 28.5 28.5 0 0 1 7.48 1l121.81 32.6h.11a28.55 28.55 0 0 1 10 5 29.51 29.51 0 0 1 2.78 2.45 29.06 29.06 0 0 1 7.39 12.8l32.68 121.79a26.25 26.25 0 0 1 .62 3c.1.62.17 1.24.23 1.86a27.88 27.88 0 0 1 .1 3.29c0 .91-.09 1.81-.2 2.7s-.21 1.52-.36 2.27a28.82 28.82 0 0 1 -4.21 10.16z" fill="#466060"/><path d="m413.53 544.06c-.45 0-.9 0-1.35 0 .45.01.9 0 1.35 0z"/><path d="m202.53 286.29c.17-.26.35-.51.53-.77-.18.26-.36.48-.53.77z"/><path d="m204.85 283c.18-.25.36-.5.55-.74-.19.24-.4.49-.55.74z"/><path d="m351.3 167.23.93.07z"/><path d="m355.31 167.59.92.11z"/><path d="m228 466.87q-.84-2.34-1.5-4.77c.4 1.62.91 3.21 1.5 4.77z"/><path d="m232.14 476.31c-.57-1.08-1.13-2.17-1.65-3.28.51 1.11 1.08 2.2 1.65 3.28z"/><path d="m229.83 471.59c-.48-1.09-.92-2.2-1.35-3.32.43 1.12.87 2.23 1.35 3.32z"/><path d="m408.75 544c-.31 0-.62-.05-.92-.07.3-.02.61.07.92.07z"/><path d="m359.9 168.3.85.17z"/><path d="m200.05 290.39c.22-.4.45-.79.68-1.19-.23.4-.46.8-.68 1.19z"/><path d="m207.76 279.37.57-.64z"/><path d="m527.9 234.87c.58 1.08 1.14 2.18 1.66 3.29-.56-1.11-1.08-2.16-1.66-3.29z"/><path d="m524.72 229.53c.91 1.36 1.76 2.77 2.57 4.2-.81-1.43-1.66-2.84-2.57-4.2z"/><path d="m530.21 239.6c.49 1.09.93 2.21 1.36 3.33-.42-1.12-.87-2.24-1.36-3.33z"/><path d="m489.46 246.17a28.51 28.51 0 0 1 2.93 3.46 28.51 28.51 0 0 0 -2.93-3.46z"/><path d="m343.56 205.4a29 29 0 0 1 3.72-.26 29 29 0 0 0 -3.72.26z"/><path d="m423.65 503.87a28.46 28.46 0 0 1 -4.7 1.47 28.46 28.46 0 0 0 4.7-1.47z"/><path d="m229.61 321.09a29.26 29.26 0 0 1 .92-5.5 29.26 29.26 0 0 0 -.92 5.5z"/><path d="m230.09 328.57a28.56 28.56 0 0 1 -.48-7.48 28.56 28.56 0 0 0 .48 7.48z"/><path d="m265.65 458.35a26 26 0 0 1 -1.23-2.55 26 26 0 0 0 1.23 2.55z"/><path d="m486.68 243.72a29.51 29.51 0 0 1 2.78 2.45 29.51 29.51 0 0 0 -2.78-2.45z"/><path d="m530.15 383.79c.1.62.17 1.24.23 1.86-.06-.65-.13-1.24-.23-1.86z"/><path d="m525.71 404.06a28.82 28.82 0 0 0 4.21-10.15 28.82 28.82 0 0 1 -4.21 10.15z"/><path d="m476.57 238.71h.12a28.59 28.59 0 0 1 10 5 28.55 28.55 0 0 0 -10-5h-.11l-121.81-32.6a28.5 28.5 0 0 0 -7.48-1 28.5 28.5 0 0 1 7.48 1z"/><path d="m230.52 330.43 32.68 121.79a28.45 28.45 0 0 0 1.22 3.58 28.45 28.45 0 0 1 -1.22-3.58z"/><path d="m327.07 213.54a28.56 28.56 0 0 1 12.85-7.41 28.56 28.56 0 0 0 -12.85 7.41l-89.14 89.19a28.62 28.62 0 0 0 -7.4 12.86 28.62 28.62 0 0 1 7.4-12.86z"/><path d="m530.48 388.94c0 .91-.09 1.81-.2 2.7.11-.89.17-1.79.2-2.7z"/><path d="m750.87 380.63c.09-.72.17-1.44.26-2.16.13-1.13.27-2.27.38-3.4.1-.93.18-1.85.26-2.78s.15-1.77.21-2.66c.08-1.09.16-2.17.22-3.26l.09-1.9a191.53 191.53 0 0 0 -.07-19.32c-.07-1.21-.14-2.42-.23-3.63a194.45 194.45 0 0 0 -2.7-20.93q-1.47-7.85-3.57-15.57s0-.08 0-.13c-.65-2.38-1.36-4.74-2.1-7.1-.1-.32-.21-.64-.31-1-.74-2.3-1.53-4.6-2.36-6.88 0-.13-.09-.25-.13-.38-.9-2.45-1.86-4.88-2.86-7.3l-.28-.66q-1.29-3-2.68-6.06c-.29-.64-.6-1.27-.9-1.91-.79-1.66-1.61-3.32-2.45-5-.33-.64-.64-1.27-1-1.9q-1.73-3.3-3.58-6.54l-56-96.94-35.07-60.63c-1-1.65-1.94-3.28-2.94-4.9-.29-.48-.6-1-.9-1.43-.75-1.19-1.52-2.38-2.3-3.55l-.31-.48-.6-.9c-2.12-3.14-4.34-6.21-6.63-9.2-.33-.44-.67-.86-1-1.29-.87-1.12-1.75-2.22-2.65-3.31l-.94-1.16-.07-.08c-2.41-2.9-4.91-5.72-7.47-8.46-.18-.2-.37-.39-.55-.58l-.55-.57q-1.47-1.55-3-3.06l-1.09-1.09q-4-4-8.24-7.66c-.38-.34-.78-.68-1.17-1q-1.62-1.41-3.27-2.77l-1.17-1q-4.35-3.54-8.92-6.81l-.43-.29-.83-.59c-1.17-.82-2.34-1.63-3.53-2.43l-1.22-.82q-2.36-1.56-4.74-3.05h-.06q-2.34-1.44-4.73-2.83l-.47-.27-.88-.5c-1.24-.71-2.48-1.4-3.73-2.07h-.06l-1.25-.68c-1.66-.88-3.32-1.74-5-2.57l-.17-.09c-1.61-.79-3.24-1.55-4.87-2.3l-.69-.31-.77-.35c-1.28-.57-2.56-1.13-3.85-1.68l-.95-.46-.47-.19c-1.72-.71-3.45-1.41-5.19-2.07l-.34-.14c-1.62-.61-3.24-1.19-4.88-1.76l-1.6-.54c-1.31-.44-2.63-.87-4-1.28l-1.52-.48c-1.77-.53-3.55-1-5.33-1.53-1.22-.33-2.45-.63-3.68-.94-.79-.2-1.57-.41-2.36-.6-1.31-.31-2.62-.58-3.94-.86-.72-.16-1.43-.33-2.16-.47l-1-.19c-1.08-.21-2.17-.41-3.25-.6-.64-.12-1.27-.25-1.91-.35s-1.55-.24-2.32-.36l-2.48-.37-1.41-.21c-1.25-.17-2.51-.3-3.77-.45l-.9-.1-1.58-.19h-.05c-1.84-.18-3.7-.33-5.55-.46q-.35 0-.69-.06-2.92-.19-5.85-.3h-.49c-2.11-.07-4.24-.1-6.36-.1l-182 .06c-1.91 0-3.81 0-5.71.09l-1.7.07q-2.1.08-4.2.21l-1.69.11c-1.87.13-3.75.28-5.62.47-1.87.18-3.74.41-5.6.65l-1.66.23c-1.38.2-2.75.41-4.12.63l-1.65.27c-1.85.32-3.69.65-5.53 1-5.91 1.2-11.75 2.69-17.49 4.43l-1.57.49c-1.32.41-2.64.84-3.94 1.28l-1.56.53q-2.64.9-5.23 1.88c-2.48.94-4.93 1.95-7.37 3a192.5 192.5 0 0 0 -22.33 11.33c-1.17.69-2.34 1.38-3.49 2.09-2 1.24-4 2.53-5.92 3.85-.61.41-1.21.83-1.81 1.25q-2 1.41-4 2.86l-2 1.47c-1.32 1-2.62 2-3.92 3l-1.81 1.41c-1.83 1.49-3.65 3-5.43 4.55-1.55 1.36-3.09 2.74-4.6 4.15s-3.2 3.05-4.77 4.61c-.51.51-1 1-1.52 1.56-1 1.07-2.08 2.13-3.09 3.22-.59.63-1.17 1.27-1.75 1.91-.91 1-1.82 2-2.72 3l-1.77 2.08c-.86 1-1.7 2-2.53 3.06-.59.72-1.17 1.45-1.74 2.18-.82 1-1.63 2.09-2.43 3.16-.55.73-1.1 1.46-1.64 2.2-.81 1.11-1.6 2.24-2.39 3.37-.5.71-1 1.42-1.49 2.14-.85 1.25-1.67 2.52-2.49 3.8-.39.62-.81 1.23-1.2 1.86-1.19 1.91-2.36 3.84-3.49 5.8l-91 157.68c-.91 1.57-1.77 3.16-2.63 4.75-.35.65-.7 1.3-1 2-.45.86-.9 1.73-1.33 2.6-1.05 2.09-2.07 4.18-3 6.29v.07c-.31.68-.62 1.35-.92 2a188.73 188.73 0 0 0 -8.31 22.37q-.95 3.11-1.77 6.24-.78 3-1.46 5.93c-.27 1.14-.5 2.29-.74 3.43-.17.83-.36 1.66-.53 2.5-.3 1.56-.58 3.12-.84 4.69-.08.41-.16.83-.23 1.24-.3 1.82-.56 3.64-.81 5.46 0 .16 0 .32-.07.48q-.39 3-.69 5.94-.9 9-1 18c0 2.21 0 4.42.06 6.62a1.77 1.77 0 0 1 0 .23q.09 3.38.31 6.76.39 6.17 1.19 12.3t2 12.22q.6 3 1.29 6.07a190.39 190.39 0 0 0 20.53 52.42l91.08 157.6c.9 1.57 1.84 3.12 2.79 4.66.3.49.6 1 .91 1.45.67 1.06 1.35 2.13 2 3.18l1.05 1.58c.7 1 1.42 2.08 2.14 3.11l1 1.38c1 1.46 2.1 2.91 3.18 4.33s2.19 2.84 3.31 4.23c.35.44.71.86 1.06 1.29.79 1 1.59 1.93 2.41 2.89l1.21 1.41c.82.95 1.66 1.88 2.5 2.81.37.41.73.82 1.1 1.22 1.21 1.31 2.43 2.61 3.67 3.88 1.46 1.5 3 3 4.47 4.43s2.9 2.74 4.38 4.08q6.6 6 13.71 11.26l.32.24q7 5.21 14.43 9.74l.66.4c1.42.86 2.86 1.71 4.31 2.53l.71.41q4.94 2.79 10 5.28l.91.44q2 1 4.09 1.91l1.29.59c1.39.61 2.79 1.22 4.19 1.8l.92.39c1.7.7 3.42 1.37 5.15 2l.94.34c1.39.52 2.79 1 4.19 1.5l1.62.55c1.25.42 2.5.82 3.76 1.22l1.56.48c1.74.53 3.48 1 5.24 1.52 2.29.62 4.6 1.19 6.92 1.73l2.18.48c1.63.35 3.26.69 4.9 1l2.46.46c1.65.29 3.31.56 5 .81l2.28.39q3.57.5 7.15.87h.05c1.87.19 3.74.34 5.62.47l1.7.11 4.2.21 1.71.06c1.91.06 3.82.1 5.73.1l182-.06c1.91 0 3.81 0 5.72-.1l1.68-.07c1.41-.05 2.81-.12 4.21-.21l1.68-.11c1.87-.13 3.74-.28 5.6-.47h.05q3.13-.31 6.24-.74c2.54-.34 5.06-.75 7.57-1.19l2.15-.4c1.94-.36 3.87-.76 5.8-1.18l1.88-.41c2.49-.58 5-1.2 7.44-1.87.28-.08.55-.17.83-.24q3.32-.93 6.59-2l1.83-.6c2.09-.69 4.18-1.41 6.25-2.18l1-.37c2.47-.92 4.91-1.9 7.33-2.92l.9-.39q3.16-1.37 6.27-2.83l1.42-.67c2.31-1.11 4.61-2.26 6.88-3.47 2-1 3.93-2.13 5.86-3.24q8-4.64 15.58-10 5-3.58 9.83-7.51 2.38-2 4.73-4 7-6.11 13.42-12.92a189.9 189.9 0 0 0 15.91-19.3q3.67-5.1 7-10.48c1.11-1.8 2.2-3.61 3.26-5.45l91-157.68c1.15-2 2.25-4 3.32-6l.09-.18q1.56-3 3-6 2.31-4.79 4.34-9.65c.19-.46.39-.92.58-1.39a.64.64 0 0 0 0-.07q2.16-5.28 4-10.67c.07-.22.15-.43.22-.65v-.11q1.8-5.4 3.27-10.86c.06-.25.13-.48.2-.72.53-2 1-4 1.49-6 1.42-5.93 2.5-11.87 3.29-17.83zm-42 15.85c-.23.85-.47 1.71-.72 2.56 0 .11-.07.22-.1.33-.88 2.93-1.84 5.84-2.9 8.72-.24.67-.5 1.34-.75 2-.32.83-.64 1.65-1 2.48-.26.65-.52 1.3-.79 1.94q-2.46 5.87-5.43 11.57l-.66 1.28q-1.17 2.19-2.41 4.35l-52.31 90.67-9.71 36.3a69.82 69.82 0 0 1 -38.35 45c-1.42 1.92-2.9 3.79-4.4 5.64-.22.27-.44.55-.67.82-1.44 1.75-2.92 3.45-4.44 5.13l-.85.94c-1.54 1.67-3.1 3.3-4.71 4.9l-.68.67c-1.7 1.66-3.42 3.29-5.18 4.87l-.1.09c-.38.34-.76.66-1.13 1a154 154 0 0 1 -13.43 10.5l-.86.59c-1.1.75-2.22 1.5-3.34 2.23l-1 .66c-1.13.72-2.27 1.42-3.41 2.11l-.89.53q-2.46 1.46-4.95 2.82c-1 .52-1.93 1-2.9 1.52-1 .53-2.06 1-3.09 1.55l-.84.41-1.41.67-1.78.81-2.5 1.1-2 .83c-1.44.59-2.89 1.17-4.35 1.72l-.6.23c-.61.23-1.22.44-1.84.66l-1.41.5c-1.59.55-3.18 1.08-4.79 1.58l-.76.25c-1.43.43-2.86.85-4.3 1.24-.63.18-1.27.33-1.91.5l-3.39.84-1.39.31c-.84.19-1.68.38-2.52.55-.7.15-1.4.28-2.1.42-1 .19-2 .37-3 .54l-1.7.29-2.63.4-2.07.28-2.72.32c-.67.07-1.34.15-2 .21-1 .1-2.07.18-3.11.26l-1.67.13c-1.5.1-3 .17-4.52.22h-.4c-1.6.06-3.21.09-4.82.09h-55-49.64l-36 9.67a69.72 69.72 0 0 1 -36.27-.09c-1-.27-2-.56-3-.88a69.91 69.91 0 0 1 -19.27-9.52c-.66-.07-1.32-.17-2-.26-1.33-.17-2.66-.33-4-.53-1.68-.26-3.36-.55-5-.86-4-.74-7.89-1.63-11.76-2.69-1.62-.44-3.23-.94-4.83-1.44-.5-.15-1-.28-1.49-.44l-1.55-.51c-2.09-.69-4.17-1.41-6.23-2.19l-.2-.08q-3-1.14-5.92-2.42l-1.5-.65c-2-.88-4-1.8-5.95-2.77l-.18-.09c-.62-.32-1.23-.66-1.86-1-1.76-.91-3.51-1.83-5.24-2.8-3.51-2-6.92-4.09-10.26-6.33-.3-.21-.62-.4-.92-.61-1-.71-2.06-1.46-3.08-2.2-1.2-.86-2.42-1.71-3.59-2.61l-.08-.06c-1.72-1.31-3.4-2.67-5.06-4l-1.25-1c-1.11-1-2.2-1.94-3.3-2.93-1.77-1.6-3.5-3.25-5.2-4.93l-1.18-1.15-1.37-1.52c-1.47-1.53-2.93-3.08-4.33-4.67a151 151 0 0 1 -11.71-15.16c-.48-.71-1-1.41-1.46-2.14-.31-.47-.61-.94-.91-1.41-1.22-1.9-2.4-3.81-3.53-5.77l-52.41-90.57-26.39-26.43a69.79 69.79 0 0 1 -20-55.93c-.95-2.19-1.84-4.41-2.68-6.64-.13-.32-.25-.63-.37-1q-1.21-3.16-2.21-6.39c-.12-.4-.25-.81-.38-1.21q-1-3.24-1.89-6.52c-.08-.31-.16-.61-.23-.92-.61-2.35-1.18-4.71-1.67-7.09-.28-1.35-.54-2.7-.79-4.05 0-.16-.05-.31-.08-.46-.23-1.31-.44-2.62-.64-3.93 0-.18-.05-.36-.08-.54-.19-1.31-.37-2.62-.53-3.94-.21-1.8-.39-3.61-.54-5.42 0-.34-.06-.69-.08-1-.11-1.34-.19-2.67-.26-4l-.06-1.24q-.09-2-.12-4c0-.36 0-.71 0-1.06 0-1.65 0-3.3 0-4.95 0-.66 0-1.33.06-2s0-1.32.08-2l.06-1.24c.06-1.05.14-2.09.22-3.13l.12-1.56c0-.22.05-.45.07-.67.26-2.9.61-5.78 1-8.66.14-.91.27-1.82.43-2.73.11-.64.23-1.27.34-1.91.16-.88.32-1.77.5-2.65.9-4.53 2-9 3.33-13.47.2-.69.42-1.37.64-2.06.32-1 .65-2 1-3.05.16-.49.33-1 .49-1.46q1.35-3.88 2.91-7.71l.48-1.18q.88-2.1 1.83-4.17a1.21 1.21 0 0 1 .09-.2c.39-.88.81-1.75 1.22-2.62l.27-.55q1.23-2.55 2.56-5.05l.2-.4q1.14-2.12 2.34-4.22l52.31-90.66 9.69-36.24a69.92 69.92 0 0 1 38.37-45.1c1.43-1.93 2.91-3.8 4.41-5.66.22-.26.43-.53.65-.8 1.45-1.75 2.93-3.45 4.45-5.13l.85-.93c1.54-1.67 3.1-3.31 4.7-4.9.23-.23.46-.44.68-.67 1.7-1.66 3.42-3.3 5.19-4.88l.13-.11 1-.86q4.26-3.74 8.78-7.15l.37-.29c1.45-1.09 2.93-2.14 4.42-3.18l.87-.59q1.65-1.14 3.33-2.22c.34-.23.69-.45 1-.67 1.12-.72 2.26-1.42 3.4-2.1l.9-.54q2.11-1.26 4.29-2.45c.16-.1.33-.19.5-.28l1.76-.92c.8-.42 1.59-.84 2.4-1.25l1.16-.57c1-.5 2-1 3.07-1.48l.2-.09q4.33-2 8.78-3.75l2.23-.86c2.08-.78 4.19-1.5 6.3-2.19.82-.27 1.64-.54 2.47-.79 1.42-.43 2.85-.84 4.29-1.24l2-.52c.84-.22 1.68-.44 2.53-.64l.48-.11q2.07-.49 4.17-.93l.53-.1c1.38-.29 2.77-.55 4.17-.79l.56-.1q4.45-.75 9-1.26c.68-.07 1.35-.15 2-.21 1.28-.12 2.57-.23 3.85-.32l.93-.07c1.54-.1 3.1-.17 4.65-.22h.15c1.6-.05 3.21-.08 4.82-.08h104.67l36-9.67a69.72 69.72 0 0 1 36.27.09 69.77 69.77 0 0 1 22.38 10.29l.81.11c1.58.18 3.16.39 4.74.62l.43.07c1.06.16 2.11.36 3.16.54.88.15 1.76.29 2.64.46.91.18 1.81.38 2.71.57s1.92.39 2.87.61c1.79.42 3.56.86 5.33 1.34h.07c2.66.72 5.29 1.53 7.9 2.4 2.08.69 4.15 1.4 6.2 2.18.91.35 1.79.74 2.69 1.1 1.15.46 2.3.91 3.44 1.4l1.49.65c2 .89 4 1.81 6 2.78 1.18.58 2.33 1.22 3.5 1.84.78.41 1.58.81 2.36 1.23 2.42 1.33 4.82 2.71 7.17 4.17l.71.47q5.79 3.65 11.26 7.79l.16.12q2.61 2 5.13 4.13 5.68 4.74 10.91 10l1.12 1.14c1.54 1.6 3.07 3.22 4.54 4.89.51.58 1 1.19 1.49 1.78.94 1.1 1.89 2.2 2.8 3.33l1 1.27c1.39 1.76 2.75 3.53 4.06 5.35 1.63 2.27 3.19 4.59 4.7 7 1.21 1.9 2.4 3.81 3.53 5.77l52.37 90.63 26.39 26.37a69.75 69.75 0 0 1 20 55.93c.95 2.19 1.83 4.4 2.68 6.63.12.32.25.64.37 1q1.18 3.18 2.22 6.41l.39 1.21c.67 2.16 1.31 4.33 1.89 6.52.08.3.15.61.23.92.6 2.3 1.15 4.6 1.64 6.92v.15c.26 1.24.5 2.48.72 3.73l.15.78c.23 1.3.44 2.61.64 3.92l.09.65c.19 1.27.36 2.55.52 3.83 0 .14 0 .28.05.43.19 1.65.35 3.3.49 5 0 .35.06.71.08 1.06.11 1.33.19 2.66.26 4l.06 1.24q.09 2 .12 4v1.06 4.94c0 1.06-.06 2.12-.11 3.19v.78l-.06 1.29c-.06 1-.14 2.06-.22 3.1-.1 1.38-.23 2.75-.37 4.13v.38q-.35 3.21-.82 6.4c-.13.85-.26 1.7-.4 2.54-.38 2.28-.82 4.56-1.3 6.82-.18.84-.35 1.67-.54 2.5-.5 2.13-1 4.24-1.64 6.35z" fill="#a0baa2"/><path d="m11.14 318.61c.17-.84.36-1.67.53-2.5-.17.83-.36 1.66-.53 2.5z" fill="#a0baa2"/><path d="m609.94 643.66q-6.41 6.8-13.42 12.92 7.01-6.11 13.42-12.92z" fill="#a0baa2"/><path d="m145.15 638.11-1.21-1.41z" fill="#a0baa2"/><path d="m546 688.34-.9.39z" fill="#a0baa2"/><path d="m548.81 24.08.77.35z" fill="#a0baa2"/><path d="m561.61 30.41h-.06z" fill="#a0baa2"/><path d="m277.28 7.81q2.1-.13 4.2-.21-2.1.08-4.2.21z" fill="#a0baa2"/><path d="m10.07 324.54c.07-.41.15-.83.23-1.24-.08.41-.16.83-.23 1.24z" fill="#a0baa2"/><path d="m742.68 416.14v-.11z" fill="#a0baa2"/><path d="m148.75 642.14c-.37-.4-.73-.81-1.1-1.22.35.41.73.82 1.1 1.22z" fill="#a0baa2"/><path d="m12.41 312.68q.67-3 1.46-5.93-.78 2.96-1.46 5.93z" fill="#a0baa2"/><path d="m553.64 684.84-1.42.67z" fill="#a0baa2"/><path d="m496.17 9.06c-1.25-.17-2.51-.31-3.77-.45 1.26.15 2.52.28 3.77.45z" fill="#a0baa2"/><path d="m533.07 17.84-1.58-.54 1.6.54z" fill="#a0baa2"/><path d="m349.57 7.42-60.68.02 182.04-.06z" fill="#a0baa2"/><path d="m13.9 404.69q2.4 9 5.68 17.81a190.24 190.24 0 0 1 -7.17-23.84c.47 2.01.96 4.02 1.49 6.03z" fill="#a0baa2"/><path d="m127.78 614.71c-.31-.49-.61-1-.91-1.45.3.49.6.96.91 1.45z" fill="#a0baa2"/><path d="m484.82 7.9h-.5c1.85.13 3.71.28 5.55.46-1.68-.21-3.36-.36-5.05-.46z" fill="#a0baa2"/><path d="m520.66 14c-1.19-.33-2.4-.62-3.6-.92h-.07c1.23.31 2.46.61 3.68.94z" fill="#a0baa2"/><path d="m544.94 22.4-.94-.4 1 .41z" fill="#a0baa2"/><path d="m483.62 7.8c-1.8-.12-3.61-.21-5.42-.27h-.42q2.93.11 5.85.3z" fill="#a0baa2"/><path d="m581 42.43.83.59z" fill="#a0baa2"/><path d="m746.16 404.5s0 0 0-.05c-.07.24-.14.47-.2.72.04-.23.14-.45.2-.67z" fill="#a0baa2"/><path d="m508.53 11.13-1-.18 1 .19z" fill="#a0baa2"/><path d="m730.52 444.55-.09.18z" fill="#a0baa2"/><path d="m497.94 9.32-.36-.05 2.48.37z" fill="#a0baa2"/><path d="m565.35 32.49.88.5z" fill="#a0baa2"/><path d="m625.85 624.36a189.9 189.9 0 0 1 -15.91 19.3 189.9 189.9 0 0 0 15.91-19.3z" fill="#a0baa2"/><path d="m141.53 633.81c-.35-.43-.71-.85-1.06-1.29.35.48.71.86 1.06 1.29z" fill="#a0baa2"/><path d="m130.87 619.47-1.05-1.58z" fill="#a0baa2"/><path d="m283.18 7.53c1.9 0 3.8-.09 5.71-.09-1.89 0-3.81.04-5.71.09z" fill="#a0baa2"/><path d="m632.88 613.88q-3.36 5.37-7 10.48 3.64-5.1 7-10.48z" fill="#a0baa2"/><path d="m738.46 427.53s0 0 0-.07a.64.64 0 0 1 0 .07z" fill="#a0baa2"/><path d="m7.62 361.31a1.77 1.77 0 0 0 0-.23 1.77 1.77 0 0 1 0 .23z" fill="#a0baa2"/><path d="m211.75 687.34-1.29-.59z" fill="#a0baa2"/><path d="m263 702-2.21-.34z" fill="#a0baa2"/><path d="m255.78 700.85-2.46-.46z" fill="#a0baa2"/><path d="m195.43 679.12-.71-.41z" fill="#a0baa2"/><path d="m147.8 70.06c.58-.64 1.16-1.28 1.75-1.91-.55.63-1.17 1.27-1.75 1.91z" fill="#a0baa2"/><path d="m143.31 75.19 1.77-2.08z" fill="#a0baa2"/><path d="m289.12 703.82c-1.91 0-3.82 0-5.73-.1 1.91.06 3.82.1 5.73.1z" fill="#a0baa2"/><path d="m248.42 699.38-2.18-.48z" fill="#a0baa2"/><path d="m169 50.06 1.73-1.37z" fill="#a0baa2"/><path d="m281.68 703.66-4.2-.21z" fill="#a0baa2"/><path d="m275.78 703.34c-1.88-.13-3.75-.28-5.62-.47 1.84.19 3.74.34 5.62.47z" fill="#a0baa2"/><path d="m476.88 703.66c-1.91.06-3.81.1-5.72.1 1.91 0 3.84-.04 5.72-.1z" fill="#a0baa2"/><path d="m152.64 64.93c.51-.52 1-1.05 1.52-1.56-.51.51-1.01 1.04-1.52 1.56z" fill="#a0baa2"/><path d="m216.86 689.53-.92-.39z" fill="#a0baa2"/><path d="m91.34 159.22-58.4 101.22 90.97-157.68z" fill="#a0baa2"/><path d="m139 80.43c.57-.73 1.15-1.46 1.74-2.18-.55.75-1.13 1.45-1.74 2.18z" fill="#a0baa2"/><path d="m30.31 265.19c.86-1.59 1.72-3.18 2.63-4.75-.94 1.56-1.78 3.16-2.63 4.75z" fill="#a0baa2"/><path d="m206.37 684.84-.91-.44z" fill="#a0baa2"/><path d="m223 691.9-.94-.34z" fill="#a0baa2"/><path d="m135 85.79c.54-.74 1.09-1.47 1.64-2.2-.58.73-1.13 1.46-1.64 2.2z" fill="#a0baa2"/><path d="m234.08 695.65-1.56-.48z" fill="#a0baa2"/><path d="m131.09 91.3c.49-.72 1-1.43 1.49-2.14-.5.71-1 1.42-1.49 2.14z" fill="#a0baa2"/><path d="m228.76 694-1.62-.55z" fill="#a0baa2"/><path d="m127.4 97c.39-.63.81-1.24 1.2-1.86-.39.58-.81 1.19-1.2 1.86z" fill="#a0baa2"/><path d="m24.87 276.11v-.07z" fill="#a0baa2"/><path d="m270 8.39c1.87-.19 3.75-.34 5.62-.47-1.9.13-3.78.28-5.62.47z" fill="#a0baa2"/><path d="m530.43 694.2-1.83.6z" fill="#a0baa2"/><path d="m522 696.77c-.28.07-.55.16-.83.24.29-.08.56-.17.83-.24z" fill="#a0baa2"/><path d="m264.33 9.05c1.86-.24 3.73-.47 5.6-.65-1.87.18-3.74.41-5.6.65z" fill="#a0baa2"/><path d="m9.19 330.48c0-.16.05-.32.07-.48-.02.16-.04.32-.07.48z" fill="#a0baa2"/><path d="m537.72 691.65-1 .37z" fill="#a0baa2"/><path d="m190.41 676.18-.66-.4z" fill="#a0baa2"/><path d="m134 624-1-1.38z" fill="#a0baa2"/><path d="m175.32 666-.32-.24z" fill="#a0baa2"/><path d="m482.77 703.38c-1.4.09-2.8.16-4.21.21 1.44-.05 2.81-.12 4.21-.21z" fill="#a0baa2"/><path d="m221.58 19.81q2.59-1 5.23-1.88-2.64.9-5.23 1.88z" fill="#a0baa2"/><path d="m490.05 702.8c-1.86.19-3.73.34-5.6.47 1.87-.13 3.74-.27 5.6-.47z" fill="#a0baa2"/><path d="m180.64 41.34c.6-.42 1.2-.84 1.81-1.25-.61.41-1.21.83-1.81 1.25z" fill="#a0baa2"/><path d="m174.61 45.67 2-1.47z" fill="#a0baa2"/><path d="m506.06 700.47-2.15.4z" fill="#a0baa2"/><path d="m513.74 698.88-1.88.41z" fill="#a0baa2"/><path d="m251.37 11.2c1.84-.37 3.68-.7 5.53-1-1.85.3-3.69.63-5.53 1z" fill="#a0baa2"/><path d="m228.37 17.4c1.3-.44 2.62-.87 3.94-1.28-1.31.41-2.64.88-3.94 1.28z" fill="#a0baa2"/><path d="m239.25 14.07c-1.8.49-3.59 1-5.37 1.56 5.74-1.74 11.58-3.23 17.49-4.43-4.07.8-8.12 1.8-12.12 2.87z" fill="#a0baa2"/><path d="m258.55 9.91c1.37-.22 2.74-.43 4.12-.63-1.38.2-2.75.41-4.12.63z" fill="#a0baa2"/><path d="m27.94 269.75c.43-.87.88-1.74 1.33-2.6-.45.85-.9 1.73-1.33 2.6z" fill="#a0baa2"/><path d="m743.27 296.8c.1.32.21.64.31 1-.1-.36-.21-.68-.31-1z" fill="#a0baa2"/><path d="m752 369.63c-.06.89-.13 1.78-.21 2.66.06-.88.13-1.77.21-2.66z" fill="#a0baa2"/><path d="m752.29 364.47-.09 1.9z" fill="#a0baa2"/><path d="m749.28 320.56h.01z" fill="#a0baa2"/><path d="m745.68 304.86v.13s.01-.08 0-.13z" fill="#a0baa2"/><path d="m749 392.35c.39-2 .76-4.06 1.09-6.1.3-1.87.57-3.75.82-5.62-.79 6-1.85 11.9-3.2 17.78q.65-3.01 1.29-6.06z" fill="#a0baa2"/><path d="m747.67 398.41c-.47 2-1 4-1.49 6 .53-1.97 1.02-3.98 1.49-6z" fill="#a0baa2"/><path d="m592.31 51.09c-.38-.32-.76-.64-1.15-1l1.17 1z" fill="#a0baa2"/><path d="m214.19 22.82c-1.36.58-2.71 1.15-4.05 1.76q-2.8 1.29-5.58 2.65-5.56 2.77-10.89 5.84c-.61.35-1.21.72-1.81 1.08a192.5 192.5 0 0 1 22.33-11.33z" fill="#a0baa2"/><path d="m751.51 375.07c-.11 1.13-.25 2.27-.38 3.4.13-1.13.27-2.27.38-3.4z" fill="#a0baa2"/><path d="m618.64 77.52-.94-1.15.94 1.16z" fill="#a0baa2"/><path d="m633 97.68c-.29-.47-.59-.94-.89-1.4.3.48.61.95.9 1.43z" fill="#a0baa2"/><path d="m629.83 92.71-.31-.48z" fill="#a0baa2"/><path d="m609.07 66.68.55.57z" fill="#a0baa2"/><path d="m740.78 289.54c0 .13.08.25.13.38-.05-.13-.09-.25-.13-.38z" fill="#a0baa2"/><path d="m730.63 266.75c.34.63.65 1.26 1 1.9-.35-.65-.63-1.27-1-1.9z" fill="#a0baa2"/><path d="m737.64 281.58.28.66z" fill="#a0baa2"/><path d="m734.06 273.61c.3.64.61 1.27.9 1.91-.29-.64-.6-1.27-.9-1.91z" fill="#a0baa2"/><path d="m672.46 165.74-1.43-2.47 56.02 96.94z" fill="#a0baa2"/><path d="m228.92 57.87c.87-.37 1.74-.74 2.61-1.09q.87-.36 1.74-.69l.34-.14q-4.44 1.74-8.78 3.75c.82-.38 1.65-.76 2.47-1.12z" fill="#a0baa2"/><path d="m278.34 45.86c-1.28.09-2.57.2-3.85.32l2.87-.24z" fill="#a0baa2"/><path d="m713.65 371.47c.14-1.38.27-2.75.37-4.13l-.12 1.58c-.08.85-.16 1.7-.25 2.55z" fill="#a0baa2"/><path d="m258.21 48.64q-2.1.44-4.17.93l1.63-.37z" fill="#a0baa2"/><path d="m224.63 59.79c-1 .48-2 1-3.07 1.48l1.63-.79z" fill="#a0baa2"/><path d="m262.91 47.75c-1.4.24-2.79.5-4.17.79l1.59-.32z" fill="#a0baa2"/><path d="m267.65 47 2.09-.29 2.72-.32q-4.53.51-9 1.26l1.54-.25c.9-.14 1.77-.28 2.65-.4z" fill="#a0baa2"/><path d="m170.67 101.79c-1.5 1.86-3 3.73-4.41 5.66 1.43-1.93 2.91-3.81 4.41-5.66z" fill="#a0baa2"/><path d="m220.4 61.84c-.81.41-1.6.83-2.4 1.25l1.25-.66c.39-.19.75-.43 1.15-.59z" fill="#a0baa2"/><path d="m283.93 45.57c-1.55 0-3.11.12-4.65.22l3.2-.16z" fill="#a0baa2"/><path d="m59.21 292.49q-.95 2.07-1.83 4.17c.36-.84.72-1.68 1.09-2.52.24-.55.53-1.14.74-1.65z" fill="#a0baa2"/><path d="m55.61 301.1c.32-.83.64-1.66 1-2.49l.31-.76q-1.56 3.82-2.91 7.71.42-1.23.87-2.46z" fill="#a0baa2"/><path d="m201.87 72.89c-1.49 1-3 2.09-4.42 3.18l.36-.27q2.01-1.48 4.06-2.91z" fill="#a0baa2"/><path d="m62.81 285.1.54-1q-1.34 2.51-2.56 5.05l.56-1.17c.48-.98.97-1.93 1.46-2.88z" fill="#a0baa2"/><path d="m190.79 81.36c1-.85 2-1.69 3.08-2.52l.44-.35c.91-.72 1.84-1.43 2.77-2.13q-4.52 3.4-8.78 7.15c.71-.62 1.41-1.24 2.13-1.84z" fill="#a0baa2"/><path d="m551.47 68.46h.07c-2.35-1.46-4.75-2.84-7.17-4.17l1.4.77c1.92 1.12 3.82 2.23 5.7 3.4z" fill="#a0baa2"/><path d="m598.59 114.44c.31.47.61.94.91 1.41-1.51-2.37-3.07-4.69-4.7-7 1.31 1.86 2.56 3.72 3.79 5.59z" fill="#a0baa2"/><path d="m681.79 238.62-26.39-26.37z" fill="#a0baa2"/><path d="m586.92 98.93c-.5-.59-1-1.2-1.49-1.78.57.59.99 1.19 1.49 1.78z" fill="#a0baa2"/><path d="m579.74 91.08q-5.22-5.31-10.91-10l1.21 1q5.04 4.26 9.7 9z" fill="#a0baa2"/><path d="m712.14 328.83-.15-.78.06.32z" fill="#a0baa2"/><path d="m714.33 362.17c0-1.07.09-2.13.11-3.19v.57c-.03.87-.07 1.74-.11 2.62z" fill="#a0baa2"/><path d="m712.87 333.42-.09-.65c0 .18.05.36.08.54a.41.41 0 0 1 .01.11z" fill="#a0baa2"/><path d="m499.83 48.2c-.88-.17-1.76-.31-2.64-.46l1.81.31z" fill="#a0baa2"/><path d="m505.41 49.38c-1-.22-1.91-.4-2.87-.61l1.88.4z" fill="#a0baa2"/><path d="m517.12 52.62 1.57.51c-2.61-.87-5.24-1.68-7.9-2.4l.24.07c2.06.57 4.08 1.2 6.09 1.82z" fill="#a0baa2"/><path d="m488.85 46.51-.85-.11z" fill="#a0baa2"/><path d="m558.3 73c1.76 1.23 3.5 2.48 5.21 3.78q-5.46-4.18-11.26-7.78c1.6 1 3.18 2 4.75 3.11z" fill="#a0baa2"/><path d="m53.49 307c-.34 1-.67 2-1 3.05.26-.82.51-1.65.79-2.47.07-.16.14-.36.21-.58z" fill="#a0baa2"/><path d="m542 63.09c-1.17-.62-2.32-1.26-3.5-1.84l.16.08c1.13.56 2.24 1.16 3.34 1.76z" fill="#a0baa2"/><path d="m527.6 56.42c-.9-.36-1.78-.75-2.69-1.1l.23.09c.86.32 1.64.67 2.46 1.01z" fill="#a0baa2"/><path d="m240.22 53.53c.64-.22 1.29-.42 1.93-.63-2.11.69-4.22 1.41-6.3 2.19.61-.23 1.22-.44 1.84-.66.84-.31 1.68-.61 2.53-.9z" fill="#a0baa2"/><path d="m517.82 658.32-1.67.53c1.61-.5 3.2-1 4.79-1.58l-1.11.39z" fill="#a0baa2"/><path d="m526.78 655.11-2 .76c1.46-.55 2.91-1.13 4.35-1.72l-.64.27z" fill="#a0baa2"/><path d="m531.15 653.31 2.5-1.1-.9.41z" fill="#a0baa2"/><path d="m506.48 661.52-.7.16 3.39-.84h-.11c-.86.25-1.71.47-2.58.68z" fill="#a0baa2"/><path d="m496.74 663.51c1-.17 2-.35 3-.54l-2.58.48z" fill="#a0baa2"/><path d="m330.44 675.42 36.03-9.67 49.64-.02-49.64.02z" fill="#a0baa2"/><path d="m482.45 665.27c1-.08 2.08-.16 3.11-.26l-2.88.25z" fill="#a0baa2"/><path d="m476.25 665.62c1.51 0 3-.12 4.52-.22-1.06.07-2.14.12-3.21.16z" fill="#a0baa2"/><path d="m700.76 418.91c-.4.87-.82 1.74-1.23 2.61-.28.57-.55 1.15-.83 1.72-.48 1-1 1.91-1.46 2.86q3-5.7 5.43-11.57c-.36.84-.72 1.68-1.09 2.52-.27.62-.58 1.24-.82 1.86z" fill="#a0baa2"/><path d="m537.7 650.31c1-.51 2.07-1 3.09-1.55l-1.14.59z" fill="#a0baa2"/><path d="m710.55 390.12q-.51 2.17-1.08 4.35c-.17.67-.37 1.33-.56 2 .59-2.11 1.14-4.22 1.64-6.35z" fill="#a0baa2"/><path d="m706.76 403.58c-.22.68-.46 1.36-.69 2s-.58 1.65-.88 2.47c1.06-2.88 2-5.79 2.9-8.72-.18.57-.36 1.14-.53 1.71-.26.88-.56 1.71-.8 2.54z" fill="#a0baa2"/><path d="m694.16 431.74q1.25-2.16 2.41-4.35s-.05.08-.07.13q-1.14 2.12-2.34 4.22z" fill="#a0baa2"/><path d="m543.81 647.18-.11.06q2.49-1.37 4.95-2.82c-1.43.85-2.86 1.67-4.32 2.46z" fill="#a0baa2"/><path d="m569.26 629.83c-1 .86-2 1.7-3.08 2.52l-.43.34q-1.56 1.24-3.15 2.43l-.36.27q-2 1.49-4.06 2.91a154 154 0 0 0 13.43-10.5c-.66.58-1.32 1.16-2 1.73z" fill="#a0baa2"/><path d="m214.27 646.08c1.73 1 3.48 1.89 5.24 2.8-1.27-.66-2.55-1.31-3.81-2z" fill="#a0baa2"/><path d="m48.78 386.87c.49 2.38 1.06 4.74 1.67 7.09q-.9-3.45-1.64-6.93z" fill="#a0baa2"/><path d="m170.34 608.94-1-1.3c-1.38-1.75-2.74-3.52-4.05-5.34-.8-1.11-1.55-2.25-2.32-3.39a151 151 0 0 0 11.71 15.16v-.06c-1.55-1.66-2.96-3.35-4.34-5.07z" fill="#a0baa2"/><path d="m185 624.66c-1.19-1.11-2.33-2.26-3.48-3.4 1.7 1.68 3.43 3.33 5.2 4.93-.54-.48-1.1-1-1.64-1.45z" fill="#a0baa2"/><path d="m45.67 350.21c0 .67-.05 1.34-.06 2 0-.19 0-.37 0-.56.02-.48.04-.96.06-1.44z" fill="#a0baa2"/><path d="m46.12 368.52c.15 1.81.33 3.62.54 5.42 0-.15 0-.29 0-.44-.24-1.66-.4-3.32-.54-4.98z" fill="#a0baa2"/><path d="m46.63 337.61c.12-.94.23-1.89.36-2.83l.27-1.83c-.43 2.88-.78 5.76-1 8.66.07-.76.14-1.52.22-2.28.02-.57.09-1.15.15-1.72z" fill="#a0baa2"/><path d="m200 636.93c1 .74 2 1.49 3.08 2.2l-1.34-.93c-.6-.41-1.17-.85-1.74-1.27z" fill="#a0baa2"/><path d="m244.42 659c1.6.5 3.21 1 4.83 1.44l-.21-.06c-1.55-.38-3.04-.89-4.62-1.38z" fill="#a0baa2"/><path d="m272 664.79a69.91 69.91 0 0 0 19.19 9.66 69.91 69.91 0 0 1 -19.19-9.66z" fill="#a0baa2"/><path d="m255.59 662-.94-.2c-1.79-.42-3.57-.86-5.35-1.34h-.05c3.87 1.06 7.8 1.95 11.76 2.69l-.77-.15c-1.56-.31-3.11-.64-4.65-1z" fill="#a0baa2"/><path d="m208.46 642.65c-1.51-.93-3-1.92-4.46-2.91 3.34 2.24 6.75 4.36 10.26 6.33-1.91-1.07-3.8-2.17-5.66-3.33a1.1 1.1 0 0 1 -.14-.09z" fill="#a0baa2"/><path d="m266.05 664c1.32.2 2.65.36 4 .53-1.2-.15-2.4-.29-3.6-.47z" fill="#a0baa2"/><path d="m221.38 649.86.18.09z" fill="#a0baa2"/><path d="m49.51 321.07c.33-1.45.69-2.9 1.07-4.35.18-.67.37-1.35.56-2 .24-.85.47-1.7.72-2.54-1.32 4.44-2.43 8.94-3.33 13.47.13-.68.28-1.36.43-2 .18-.9.35-1.74.55-2.58z" fill="#a0baa2"/><path d="m179 618.72 1.34 1.38-1.16-1.18z" fill="#a0baa2"/><path d="m161.46 596.75c-.31-.47-.61-.94-.91-1.41.3.47.6.94.91 1.41z" fill="#a0baa2"/><path d="m191.24 630.18-1.25-1z" fill="#a0baa2"/><path d="m713.06 376.4-.27 1.85q.48-3.19.82-6.4c-.06.58-.13 1.16-.2 1.74-.11.94-.22 1.88-.35 2.81z" fill="#a0baa2"/><path d="m196.39 634.32-.08-.06z" fill="#a0baa2"/><path d="m235.14 655.87-.2-.08z" fill="#a0baa2"/><path d="m229 653.37-1.5-.65z" fill="#a0baa2"/><path d="m242.92 658.57-1.55-.51z" fill="#a0baa2"/><path d="m55.18 409q-1.18-3.16-2.18-6.39 1 3.23 2.18 6.39z" fill="#a0baa2"/><path d="m48 382.82c0-.16-.05-.31-.08-.46.02.15.08.3.08.46z" fill="#a0baa2"/><path d="m45.72 362.24q-.09-2-.12-4 .03 2.01.12 4z" fill="#a0baa2"/><path d="m45.58 357.19c0-1.65 0-3.3 0-4.95-.01 1.65-.01 3.3 0 4.95z" fill="#a0baa2"/><path d="m45.75 348.21.06-1.24z" fill="#a0baa2"/><path d="m476 665.63c-1.6 0-3.21.09-4.82.09 1.58 0 3.19-.03 4.82-.09z" fill="#a0baa2"/><path d="m46 367.48c-.11-1.34-.19-2.67-.26-4 .11 1.33.19 2.66.26 4z" fill="#a0baa2"/><path d="m52.57 401.4q-1-3.24-1.89-6.52.87 3.29 1.89 6.52z" fill="#a0baa2"/><path d="m47.27 378.42c0-.18-.05-.36-.08-.54.03.18.05.36.08.54z" fill="#a0baa2"/><path d="m578 621.84c-1.7 1.66-3.42 3.29-5.18 4.87 1.8-1.58 3.52-3.21 5.18-4.87z" fill="#a0baa2"/><path d="m588.72 610.2c-1.44 1.75-2.92 3.45-4.44 5.13 1.52-1.68 3-3.33 4.44-5.13z" fill="#a0baa2"/><path d="m583.43 616.27c-1.54 1.67-3.1 3.3-4.71 4.9 1.61-1.6 3.17-3.23 4.71-4.9z" fill="#a0baa2"/><path d="m46 343.84.12-1.56z" fill="#a0baa2"/><path d="m593.79 603.74c-1.42 1.92-2.9 3.79-4.4 5.64 1.5-1.85 2.98-3.72 4.4-5.64z" fill="#a0baa2"/><path d="m708.91 396.48c-.23.85-.47 1.71-.72 2.56.25-.85.49-1.71.72-2.56z" fill="#a0baa2"/><path d="m572.84 626.73-.1.09z" fill="#a0baa2"/><path d="m704.44 410.1c-.32.83-.64 1.65-1 2.48.36-.83.68-1.65 1-2.48z" fill="#a0baa2"/><path d="m504.36 662c-.84.19-1.68.38-2.52.55.84-.17 1.68-.36 2.52-.55z" fill="#a0baa2"/><path d="m515.39 659.1c-1.43.43-2.86.85-4.3 1.24 1.44-.34 2.91-.81 4.3-1.24z" fill="#a0baa2"/><path d="m557.32 638.89c-1.1.75-2.22 1.5-3.34 2.23 1.12-.73 2.24-1.48 3.34-2.23z" fill="#a0baa2"/><path d="m495 663.8-2.63.4z" fill="#a0baa2"/><path d="m490.31 664.48-2.72.32z" fill="#a0baa2"/><path d="m553 641.78c-1.13.72-2.27 1.42-3.41 2.11 1.09-.69 2.23-1.39 3.41-2.11z" fill="#a0baa2"/><path d="m524.21 656.1c-.61.23-1.22.44-1.84.66.63-.22 1.23-.43 1.84-.66z" fill="#a0baa2"/><path d="m536.85 650.72-1.41.67z" fill="#a0baa2"/><path d="m58.23 416.62c-.95-2.19-1.84-4.41-2.68-6.64.84 2.23 1.73 4.45 2.68 6.64z" fill="#a0baa2"/><path d="m704.87 302.17q1.18 3.18 2.22 6.41-1.03-3.22-2.22-6.41z" fill="#a0baa2"/><path d="m707.48 309.79c.67 2.16 1.31 4.33 1.89 6.52-.58-2.19-1.22-4.31-1.89-6.52z" fill="#a0baa2"/><path d="m709.6 317.23c.6 2.3 1.15 4.6 1.64 6.92-.49-2.32-1.04-4.62-1.64-6.92z" fill="#a0baa2"/><path d="m579.77 91.11 1.12 1.14z" fill="#a0baa2"/><path d="m711.24 324.17v.15z" fill="#a0baa2"/><path d="m589.73 102.27 1 1.27z" fill="#a0baa2"/><path d="m701.82 294.57c.95 2.19 1.83 4.4 2.68 6.63-.85-2.2-1.73-4.44-2.68-6.63z" fill="#a0baa2"/><path d="m714.3 363-.06 1.29z" fill="#a0baa2"/><path d="m713.39 337.25c0 .14 0 .28.05.43-.02-.15-.03-.29-.05-.43z" fill="#a0baa2"/><path d="m712 382.93c-.15.87-.31 1.75-.48 2.62-.14.7-.3 1.38-.44 2.07.48-2.26.92-4.54 1.3-6.82v.18c-.13.65-.25 1.3-.38 1.95z" fill="#a0baa2"/><path d="m714.47 354v4.94c.01-1.65.01-3.29 0-4.94z" fill="#a0baa2"/><path d="m714.33 349q.09 2 .12 4-.03-2.05-.12-4z" fill="#a0baa2"/><path d="m713.44 337.71c.19 1.65.35 3.3.49 5-.14-1.71-.3-3.35-.49-5z" fill="#a0baa2"/><path d="m714 343.72c.11 1.33.19 2.66.26 4-.06-1.34-.14-2.67-.26-4z" fill="#a0baa2"/><path d="m215.74 64.3c.16-.1.33-.19.5-.28-.17.09-.34.18-.5.28z" fill="#a0baa2"/><path d="m182 89.36c1.7-1.66 3.42-3.3 5.19-4.88-1.77 1.58-3.49 3.22-5.19 4.88z" fill="#a0baa2"/><path d="m176.62 94.93c1.54-1.67 3.1-3.31 4.7-4.9-1.6 1.59-3.16 3.23-4.7 4.9z" fill="#a0baa2"/><path d="m531 57.82 1.49.65z" fill="#a0baa2"/><path d="m63.55 283.67q1.14-2.12 2.34-4.22-1.2 2.1-2.34 4.22z" fill="#a0baa2"/><path d="m59.3 292.29c.39-.88.81-1.75 1.22-2.62-.41.87-.83 1.74-1.22 2.62z" fill="#a0baa2"/><path d="m202.74 72.3q1.65-1.14 3.33-2.22-1.68 1.08-3.33 2.22z" fill="#a0baa2"/><path d="m171.32 101c1.45-1.75 2.93-3.45 4.45-5.13-1.52 1.67-3 3.37-4.45 5.13z" fill="#a0baa2"/><path d="m187.19 84.48.13-.11z" fill="#a0baa2"/><path d="m284.08 45.56c1.6-.05 3.21-.08 4.82-.08-1.61 0-3.22.03-4.82.08z" fill="#a0baa2"/><path d="m207.11 69.41c1.12-.72 2.26-1.42 3.4-2.1-1.14.69-2.28 1.38-3.4 2.1z" fill="#a0baa2"/><path d="m493.59 47.13.43.07z" fill="#a0baa2"/><path d="m251 50.32c.84-.22 1.68-.44 2.53-.64-.82.2-1.66.42-2.53.64z" fill="#a0baa2"/><path d="m211.41 66.77q2.11-1.26 4.29-2.45-2.17 1.19-4.29 2.45z" fill="#a0baa2"/><path d="m47.69 330.2c.11-.64.23-1.27.34-1.91-.11.64-.23 1.27-.34 1.91z" fill="#a0baa2"/><path d="m244.67 52.09c1.42-.43 2.85-.84 4.29-1.24-1.44.4-2.87.81-4.29 1.24z" fill="#a0baa2"/></svg>