<svg id="Layer_1" data-name="Layer 1" xmlns="http://www.w3.org/2000/svg" viewBox="0 0 758.45 709.06"><defs><style>.cls-1{fill:none;}.cls-2{fill:#81a684;}.cls-3{fill:#57886c;}.cls-4{fill:#466060;}.cls-5{fill:#a0baa2;}</style></defs><path class="cls-1" d="M284.07,45.56h0Z"/><path class="cls-1" d="M8.5,336.42q.3-3,.69-5.94Q8.8,333.45,8.5,336.42Z"/><path class="cls-1" d="M493.59,47.13c-1.58-.23-3.16-.44-4.74-.62,1.58.18,3.16.39,4.74.62Z"/><path class="cls-1" d="M524.91,55.32c-2-.78-4.12-1.49-6.2-2.18,2.08.69,4.15,1.4,6.2,2.18Z"/><path class="cls-1" d="M510.74,50.72c-1.77-.48-3.54-.92-5.33-1.34h0q2.71.63,5.4,1.36Z"/><path class="cls-1" d="M499.83,48.2h0l2.71.57C501.64,48.58,500.74,48.38,499.83,48.2Z"/><path class="cls-1" d="M494,47.2h0c1.06.16,2.12.36,3.17.54C496.14,47.56,495.09,47.36,494,47.2Z"/><path class="cls-1" d="M279.27,45.79l-.93.07.94-.07Z"/><path class="cls-1" d="M251,50.33l-2,.52h0c.69-.19,1.38-.35,2.07-.53Z"/><path class="cls-1" d="M253.56,49.68h0l.48-.11Z"/><path class="cls-1" d="M9.26,330c.25-1.82.51-3.64.81-5.46C9.77,326.36,9.51,328.18,9.26,330Z"/><path class="cls-1" d="M274.49,46.18c-.68.06-1.35.14-2,.21h0c.68-.07,1.35-.15,2-.21Z"/><path class="cls-1" d="M258.21,48.64h0l.53-.1Z"/><path class="cls-1" d="M262.91,47.75h0l.56-.1Z"/><path class="cls-1" d="M563.67,76.88l-.16-.12.16.12Z"/><path class="cls-1" d="M589.72,102.26c-.91-1.13-1.86-2.23-2.8-3.33,1,1.1,1.89,2.2,2.81,3.34Z"/><path class="cls-1" d="M585.43,97.15c-1.47-1.67-3-3.29-4.54-4.89h0c1.54,1.61,3.07,3.23,4.54,4.9Z"/><path class="cls-1" d="M7.61,361.08c-.05-2.2-.08-4.41-.06-6.62Q7.52,357.78,7.61,361.08Z"/><path class="cls-1" d="M579.77,91.11l0,0,0,0Z"/><path class="cls-1" d="M531,57.82c-1.14-.49-2.29-.94-3.44-1.4,1.15.46,2.3.91,3.44,1.4Z"/><path class="cls-1" d="M701.81,294.57v0Z"/><path class="cls-1" d="M594.8,108.89c-1.31-1.82-2.67-3.59-4.06-5.35h0c1.39,1.76,2.75,3.53,4.06,5.35Z"/><path class="cls-1" d="M544.37,64.32c-.78-.42-1.58-.82-2.36-1.23.79.41,1.58.81,2.36,1.24Z"/><path class="cls-1" d="M551.54,68.5h0l.71.47Z"/><path class="cls-1" d="M538.51,61.25c-2-1-4-1.89-6-2.78h0c2,.89,4,1.8,6,2.78Z"/><path class="cls-1" d="M244.67,52.1c-.83.25-1.65.52-2.47.79h0c.84-.27,1.67-.55,2.52-.81Z"/><path class="cls-1" d="M46.15,342.28h0c0-.22.05-.45.07-.67C46.2,341.83,46.17,342.06,46.15,342.28Z"/><path class="cls-1" d="M7.55,354.46q0-9,1-18Q7.6,345.42,7.55,354.46Z"/><path class="cls-1" d="M11.67,316.11c.24-1.14.47-2.29.74-3.43C12.14,313.82,11.91,315,11.67,316.11Z"/><path class="cls-1" d="M63.55,283.67l-.2.4.2-.4Z"/><path class="cls-1" d="M170.67,101.79c.22-.26.43-.53.65-.8C171.1,101.26,170.89,101.53,170.67,101.79Z"/><path class="cls-1" d="M235.84,55.09l-2.23.86,2.24-.86Z"/><path class="cls-1" d="M29.27,267.15c.34-.66.69-1.31,1-2C30,265.84,29.61,266.49,29.27,267.15Z"/><path class="cls-1" d="M24.9,276c1-2.11,2-4.2,3-6.29C26.89,271.84,25.87,273.93,24.9,276Z"/><path class="cls-1" d="M175.77,95.86l.85-.93Z"/><path class="cls-1" d="M52.5,310.09c-.22.69-.44,1.37-.64,2.06h0c.2-.7.43-1.39.64-2.08Z"/><path class="cls-1" d="M48.53,325.63c-.18.88-.34,1.77-.5,2.65h0c.16-.89.32-1.78.5-2.66Z"/><path class="cls-1" d="M181.32,90c.23-.23.46-.44.68-.67C181.78,89.59,181.55,89.8,181.32,90Z"/><path class="cls-1" d="M47.69,330.21c-.16.91-.29,1.82-.43,2.73h0c.14-.92.27-1.83.43-2.75Z"/><path class="cls-1" d="M54,305.57c-.16.49-.33,1-.49,1.46.16-.49.33-1,.5-1.47Z"/><path class="cls-1" d="M57.38,296.67l-.48,1.18.48-1.19Z"/><path class="cls-1" d="M59.3,292.29a1.21,1.21,0,0,0-.09.2,1.21,1.21,0,0,1,.09-.2Z"/><path class="cls-1" d="M60.52,289.67h0l.27-.55Z"/><path class="cls-1" d="M10.3,323.3c.26-1.57.54-3.13.84-4.69C10.84,320.17,10.56,321.73,10.3,323.3Z"/><path class="cls-1" d="M216.24,64h0c.58-.32,1.17-.62,1.76-.93Z"/><path class="cls-1" d="M215.71,64.31h0l0,0Z"/><path class="cls-1" d="M210.51,67.31l.9-.54Z"/><path class="cls-1" d="M224.63,59.79h0l.2-.09Z"/><path class="cls-1" d="M220.4,61.84h0l1.16-.57Z"/><polygon class="cls-1" points="187.19 84.48 187.19 84.48 187.19 84.48 187.19 84.48"/><path class="cls-1" d="M187.32,84.37h0l1-.86Z"/><path class="cls-1" d="M704.5,301.2c.12.32.25.64.37,1C704.75,301.84,704.62,301.52,704.5,301.2Z"/><path class="cls-1" d="M24,278.14c.3-.68.61-1.35.92-2C24.56,276.79,24.25,277.46,24,278.14Z"/><path class="cls-1" d="M197.45,76.07l-.37.29.37-.29Z"/><path class="cls-1" d="M206.07,70.08c.34-.23.69-.45,1-.67C206.76,69.63,206.41,69.85,206.07,70.08Z"/><path class="cls-1" d="M201.87,72.89l.87-.59Z"/><path class="cls-1" d="M568.83,81q-2.52-2.11-5.13-4.13h0c1.74,1.34,3.45,2.73,5.14,4.14Z"/><path class="cls-1" d="M260.75,701.66c-1.66-.25-3.32-.52-5-.81C257.43,701.14,259.09,701.41,260.75,701.66Z"/><path class="cls-1" d="M253.32,700.39c-1.64-.32-3.27-.66-4.9-1C250.05,699.73,251.68,700.07,253.32,700.39Z"/><path class="cls-1" d="M246.24,698.9c-2.32-.54-4.63-1.11-6.92-1.73C241.61,697.79,243.92,698.36,246.24,698.9Z"/><path class="cls-1" d="M478.56,703.59l-1.68.07Z"/><path class="cls-1" d="M239.32,697.17c-1.76-.48-3.5-1-5.24-1.52C235.82,696.18,237.56,696.69,239.32,697.17Z"/><path class="cls-1" d="M283.39,703.72l-1.71-.06Z"/><path class="cls-1" d="M277.48,703.45l-1.7-.11Z"/><path class="cls-1" d="M484.45,703.27l-1.68.11Z"/><path class="cls-1" d="M194.72,678.71c-1.45-.82-2.89-1.67-4.31-2.53C191.83,677,193.27,677.89,194.72,678.71Z"/><path class="cls-1" d="M210.46,686.75q-2.06-.93-4.09-1.91Q208.41,685.82,210.46,686.75Z"/><path class="cls-1" d="M232.52,695.17c-1.26-.4-2.51-.8-3.76-1.22C230,694.37,231.26,694.77,232.52,695.17Z"/><path class="cls-1" d="M205.46,684.4q-5.1-2.49-10-5.28Q200.37,681.91,205.46,684.4Z"/><path class="cls-1" d="M227.14,693.4c-1.4-.48-2.8-1-4.19-1.5C224.34,692.42,225.74,692.92,227.14,693.4Z"/><path class="cls-1" d="M222,691.56c-1.73-.66-3.45-1.33-5.15-2Q219.41,690.58,222,691.56Z"/><path class="cls-1" d="M215.94,689.14c-1.4-.58-2.8-1.19-4.19-1.8C213.14,688,214.54,688.56,215.94,689.14Z"/><path class="cls-1" d="M591.79,660.58q-4.8,3.92-9.83,7.51Q587,664.51,591.79,660.58Z"/><path class="cls-1" d="M730.43,444.73c-1.07,2-2.17,4-3.32,6C728.26,448.76,729.36,446.75,730.43,444.73Z"/><path class="cls-1" d="M746,405.17q-1.47,5.46-3.27,10.86Q744.51,410.63,746,405.17Z"/><path class="cls-1" d="M536.68,692c-2.07.77-4.16,1.49-6.25,2.18C532.53,693.51,534.61,692.79,536.68,692Z"/><path class="cls-1" d="M552.22,685.51q-3.11,1.47-6.27,2.83Q549.11,687,552.22,685.51Z"/><path class="cls-1" d="M521.18,697c-2.46.67-4.95,1.29-7.44,1.87C516.23,698.3,518.72,697.68,521.18,697Z"/><path class="cls-1" d="M270,664.53c.66.09,1.32.19,2,.26h0C271.35,664.72,270.69,664.62,270,664.53Z"/><path class="cls-1" d="M528.6,694.8q-3.27,1-6.59,2Q525.33,695.84,528.6,694.8Z"/><path class="cls-1" d="M545.05,688.73c-2.42,1-4.86,2-7.33,2.92C540.19,690.73,542.63,689.75,545.05,688.73Z"/><path class="cls-1" d="M511.86,699.29c-1.93.42-3.86.82-5.8,1.18C508,700.11,509.93,699.71,511.86,699.29Z"/><path class="cls-1" d="M126.87,613.26c-1-1.54-1.89-3.09-2.79-4.66C125,610.17,125.92,611.72,126.87,613.26Z"/><path class="cls-1" d="M129.82,617.89c-.69-1-1.37-2.12-2-3.18C128.45,615.77,129.13,616.84,129.82,617.89Z"/><path class="cls-1" d="M713.44,337.69h0v0Z"/><path class="cls-1" d="M713.39,337.25c-.16-1.28-.33-2.56-.52-3.83.19,1.27.36,2.55.52,3.83Z"/><path class="cls-1" d="M712.78,332.76c-.2-1.31-.41-2.62-.64-3.92h0c.23,1.31.44,2.62.64,3.94Z"/><path class="cls-1" d="M714.27,347.71l.06,1.24Z"/><path class="cls-1" d="M713.93,342.66c0,.35.06.71.08,1.06C714,343.37,714,343,713.93,342.66Z"/><path class="cls-1" d="M711.24,324.16h0v0Z"/><path class="cls-1" d="M709.37,316.31c.08.3.15.61.23.92C709.52,316.92,709.45,316.61,709.37,316.31Z"/><path class="cls-1" d="M33,451A188.79,188.79,0,0,1,19.58,422.5,188.79,188.79,0,0,0,33,451Z"/><path class="cls-1" d="M707.09,308.58l.39,1.21Z"/><path class="cls-1" d="M711.27,324.32h0c.26,1.24.5,2.48.72,3.73C711.77,326.8,711.53,325.56,711.27,324.32Z"/><path class="cls-1" d="M7.93,368.07q-.22-3.39-.31-6.76Q7.71,364.69,7.93,368.07Z"/><path class="cls-1" d="M133,622.58c-.72-1-1.44-2.07-2.14-3.11C131.57,620.51,132.28,621.55,133,622.58Z"/><path class="cls-1" d="M143.94,636.7c-.82-1-1.62-1.92-2.41-2.89C142.32,634.78,143.12,635.74,143.94,636.7Z"/><path class="cls-1" d="M189.75,675.78q-7.42-4.53-14.43-9.74Q182.33,671.25,189.75,675.78Z"/><path class="cls-1" d="M710.55,390.12c.19-.83.36-1.66.54-2.5h0c-.18.84-.35,1.67-.54,2.5Z"/><path class="cls-1" d="M147.65,640.92c-.84-.93-1.68-1.86-2.5-2.81C146,639.06,146.81,640,147.65,640.92Z"/><path class="cls-1" d="M140.47,632.52c-1.12-1.39-2.23-2.8-3.31-4.23C138.24,629.72,139.35,631.13,140.47,632.52Z"/><path class="cls-1" d="M655.4,212.25h0L603,121.62c-1.13-2-2.32-3.87-3.53-5.77h0c1.21,1.9,2.4,3.81,3.53,5.77Z"/><path class="cls-1" d="M175,665.8q-7.09-5.29-13.71-11.26Q167.89,660.5,175,665.8Z"/><path class="cls-1" d="M712.79,378.26h0c-.13.85-.26,1.7-.4,2.55C712.53,380,712.66,379.11,712.79,378.26Z"/><path class="cls-1" d="M714.3,363l0-.78,0,.78Z"/><path class="cls-1" d="M137.16,628.29c-1.08-1.42-2.14-2.87-3.18-4.33C135,625.42,136.08,626.87,137.16,628.29Z"/><path class="cls-1" d="M714.44,359v0Z"/><path class="cls-1" d="M714,367.34c.08-1,.16-2.07.22-3.1h0c-.06,1-.14,2.06-.22,3.1Z"/><path class="cls-1" d="M714.45,352.94c0,.35,0,.71,0,1.06C714.46,353.65,714.45,353.29,714.45,352.94Z"/><path class="cls-1" d="M713.61,371.85c0-.13,0-.25,0-.38,0,.13,0,.25,0,.38Z"/><path class="cls-1" d="M622.29,82.13c2.29,3,4.51,6.06,6.63,9.2l.6.9q-5.1-7.64-10.88-14.7c.9,1.09,1.78,2.19,2.65,3.31C621.62,81.27,622,81.69,622.29,82.13Z"/><path class="cls-1" d="M152.42,646c-1.24-1.27-2.46-2.57-3.67-3.88q6,6.5,12.52,12.39-2.22-2-4.38-4.08C155.38,649,153.88,647.52,152.42,646Z"/><path class="cls-1" d="M9.12,380.37q-.79-6.14-1.19-12.3a191.09,191.09,0,0,0,4.48,30.59q-.69-3-1.29-6.07Q9.92,386.52,9.12,380.37Z"/><path class="cls-1" d="M263,702c2.39.33,4.79.63,7.2.87h-.05Q266.53,702.5,263,702Z"/><path class="cls-1" d="M24,278.14a189.2,189.2,0,0,0-10.08,28.61q.83-3.13,1.77-6.24A188.73,188.73,0,0,1,24,278.14Z"/><path class="cls-1" d="M490.1,702.8h-.05q7-.7,13.86-1.93c-2.51.44-5,.85-7.57,1.19Q493.24,702.48,490.1,702.8Z"/><path class="cls-1" d="M733.54,438.57q-1.45,3-3,6a187.43,187.43,0,0,0,7.94-17c-.19.47-.39.93-.58,1.39Q735.86,433.8,733.54,438.57Z"/><path class="cls-1" d="M560.52,681.37c-2.27,1.21-4.57,2.36-6.88,3.47A192.51,192.51,0,0,0,582,668.09q-7.55,5.4-15.58,10C564.45,679.24,562.49,680.32,560.52,681.37Z"/><path class="cls-1" d="M221.58,19.81c-2.49,1-5,2-7.39,3,2.44-1.05,4.89-2.06,7.37-3Z"/><path class="cls-1" d="M270,8.39h0Z"/><path class="cls-1" d="M477.78,7.5q-3.42-.12-6.85-.12c2.12,0,4.25,0,6.36.1Z"/><path class="cls-1" d="M491.5,8.51l.9.1-2.53-.29h.05Z"/><path class="cls-1" d="M738.48,427.46c1.52-3.74,2.93-7.51,4.2-11.32-.07.22-.15.43-.22.65Q740.63,422.17,738.48,427.46Z"/><path class="cls-1" d="M191.86,34.15q-4.79,2.84-9.41,5.94c2-1.32,3.92-2.61,5.92-3.85C189.52,35.53,190.69,34.84,191.86,34.15Z"/><path class="cls-1" d="M163.53,54.61c1.78-1.55,3.6-3.06,5.43-4.55a192,192,0,0,0-14.8,13.31c1.57-1.56,3.15-3.1,4.77-4.61S162,56,163.53,54.61Z"/><path class="cls-1" d="M262.67,9.28l1.66-.23Z"/><path class="cls-1" d="M578.72,621.17l-.68.67Z"/><path class="cls-1" d="M256.9,10.18l1.65-.27Z"/><path class="cls-1" d="M584.28,615.33l-.85.94Z"/><path class="cls-1" d="M572.85,626.72h0l0,0Z"/><path class="cls-1" d="M504.29,10.35c1.08.19,2.17.39,3.25.6-2.48-.49-5-.92-7.48-1.31.77.12,1.55.23,2.32.36S503.65,10.23,504.29,10.35Z"/><path class="cls-1" d="M46,343.84c-.08,1-.16,2.08-.22,3.13h0c.06-1.05.14-2.09.22-3.13Z"/><polygon class="cls-1" points="708.91 396.48 708.91 396.47 708.91 396.48 708.91 396.48"/><path class="cls-1" d="M704.44,410.1c.25-.67.51-1.34.75-2h0c-.24.67-.5,1.34-.75,2Z"/><path class="cls-1" d="M708.19,399h0c0,.11-.07.22-.1.33C708.12,399.26,708.16,399.15,708.19,399Z"/><path class="cls-1" d="M275.59,7.92l1.69-.11Z"/><path class="cls-1" d="M697.23,426.11h0c-.23.43-.44.86-.67,1.29Z"/><path class="cls-1" d="M702.67,414.52c.27-.64.53-1.29.79-1.94h0c-.26.65-.52,1.3-.79,1.95Z"/><path class="cls-1" d="M589.39,609.38c-.22.27-.44.55-.67.82C589,609.93,589.17,609.65,589.39,609.38Z"/><path class="cls-1" d="M558.18,638.3l-.86.59Z"/><path class="cls-1" d="M745.72,305q2.12,7.72,3.57,15.57Q747.82,312.71,745.72,305Z"/><path class="cls-1" d="M743.58,297.76c.74,2.36,1.45,4.72,2.1,7.1C745,302.48,744.32,300.12,743.58,297.76Z"/><path class="cls-1" d="M496.17,9.06l1.41.21Z"/><path class="cls-1" d="M483.63,7.8q.35,0,.69.06C484.09,7.84,483.86,7.81,483.63,7.8Z"/><path class="cls-1" d="M752.22,345.15a191.53,191.53,0,0,1,.07,19.32A191.53,191.53,0,0,0,752.22,345.15Z"/><path class="cls-1" d="M740.91,289.92c.83,2.28,1.62,4.58,2.36,6.88C742.53,294.5,741.74,292.2,740.91,289.92Z"/><path class="cls-1" d="M735,275.52q1.39,3,2.68,6.06Q736.35,278.54,735,275.52Z"/><path class="cls-1" d="M545,22.4c1.29.55,2.57,1.11,3.85,1.68C547.52,23.51,546.24,23,545,22.4Z"/><path class="cls-1" d="M629.83,92.71c.78,1.17,1.55,2.36,2.3,3.55C631.38,95.07,630.61,93.88,629.83,92.71Z"/><path class="cls-1" d="M561.61,30.41c1.25.67,2.49,1.36,3.73,2.07C564.1,31.77,562.86,31.08,561.61,30.41Z"/><path class="cls-1" d="M752.2,366.37c-.06,1.09-.14,2.17-.22,3.26C752.06,368.54,752.14,367.46,752.2,366.37Z"/><path class="cls-1" d="M737.92,282.24c1,2.42,2,4.85,2.86,7.3Q739.43,285.86,737.92,282.24Z"/><path class="cls-1" d="M727.05,260.21q1.86,3.24,3.58,6.54Q728.91,263.45,727.05,260.21Z"/><path class="cls-1" d="M671,163.27,636,102.59c-1-1.65-1.94-3.28-2.94-4.9,1,1.62,2,3.25,2.94,4.9Z"/><path class="cls-1" d="M571.42,36.08l.06,0q2.38,1.49,4.74,3.05l1.22.82c1.19.8,2.36,1.61,3.53,2.43q-7.15-5.06-14.75-9.44l.47.27Q569.07,34.64,571.42,36.08Z"/><path class="cls-1" d="M555.13,27l.17.09c1.68.83,3.34,1.69,5,2.57l1.25.68q-5.88-3.18-12-5.95l.69.31C551.89,25.49,553.52,26.25,555.13,27Z"/><path class="cls-1" d="M591.15,50.13c-3-2.47-6.17-4.84-9.35-7.12l.43.31Q586.79,46.59,591.15,50.13Z"/><path class="cls-1" d="M538.32,19.73c1.74.66,3.47,1.36,5.19,2.07L544,22q-5.38-2.23-10.9-4.15c1.64.57,3.26,1.15,4.88,1.76Z"/><path class="cls-1" d="M527.53,16c1.32.41,2.64.84,4,1.28q-5.31-1.79-10.74-3.28h-.07c1.78.48,3.56,1,5.33,1.53Z"/><path class="cls-1" d="M596.76,54.87Q601,58.58,605,62.53l1.09,1.09q1.5,1.51,3,3.06a190.93,190.93,0,0,0-16.74-15.59q1.65,1.36,3.27,2.77C596,54.19,596.38,54.53,596.76,54.87Z"/><path class="cls-1" d="M752.22,345.12a193.59,193.59,0,0,0-2.93-24.56,194.45,194.45,0,0,1,2.7,20.93C752.08,342.7,752.15,343.91,752.22,345.12Z"/><path class="cls-1" d="M281.48,7.6l1.7-.07Z"/><path class="cls-1" d="M751.13,378.47c-.09.72-.17,1.44-.26,2.16C751,379.91,751,379.19,751.13,378.47Z"/><path class="cls-1" d="M514.63,12.47c.79.19,1.57.4,2.36.6-2.8-.7-5.62-1.36-8.46-1.93.73.14,1.44.31,2.16.47C512,11.89,513.32,12.16,514.63,12.47Z"/><path class="cls-1" d="M751.77,372.29c-.08.93-.16,1.85-.26,2.78C751.61,374.14,751.69,373.22,751.77,372.29Z"/><path class="cls-1" d="M617.63,76.29l.07.08q-3.9-4.7-8.09-9.12c.18.19.37.38.55.58C612.72,70.57,615.22,73.39,617.63,76.29Z"/><path class="cls-1" d="M572.74,626.82h0l-1.13,1C572,627.48,572.36,627.16,572.74,626.82Z"/><path class="cls-1" d="M160.55,595.34h0c-1.21-1.9-2.4-3.81-3.53-5.77C158.15,591.53,159.33,593.44,160.55,595.34Z"/><path class="cls-1" d="M161.46,596.75c.48.73,1,1.43,1.46,2.14-.48-.71-1-1.41-1.46-2.14Z"/><path class="cls-1" d="M174.63,614.05c1.4,1.59,2.86,3.14,4.33,4.67-1.47-1.53-2.93-3.08-4.33-4.67Z"/><path class="cls-1" d="M140.78,78.25c.83-1,1.67-2,2.53-3.06C142.45,76.2,141.61,77.22,140.78,78.25Z"/><path class="cls-1" d="M55.55,410c-.13-.32-.25-.63-.37-1C55.3,409.35,55.42,409.66,55.55,410Z"/><path class="cls-1" d="M58.23,416.62v0Z"/><path class="cls-1" d="M180.3,620.11l1.18,1.15c-.39-.39-.8-.77-1.18-1.16Z"/><path class="cls-1" d="M203.08,639.13c.3.21.62.4.92.61-.3-.21-.62-.41-.93-.61Z"/><path class="cls-1" d="M190,629.12h0c-1.12-1-2.21-2-3.31-2.94C187.78,627.18,188.87,628.17,190,629.12Z"/><path class="cls-1" d="M196.4,634.32c1.17.9,2.39,1.75,3.59,2.61-1.2-.86-2.42-1.71-3.6-2.61Z"/><path class="cls-1" d="M214.27,646.08Z"/><path class="cls-1" d="M53,402.61c-.12-.4-.25-.81-.38-1.21C52.7,401.8,52.83,402.21,53,402.61Z"/><path class="cls-1" d="M145.08,73.11c.9-1,1.81-2,2.72-3C146.89,71.07,146,72.08,145.08,73.11Z"/><path class="cls-1" d="M191.24,630.19c1.66,1.38,3.34,2.74,5.06,4v0c-1.72-1.32-3.4-2.69-5.07-4.08Z"/><path class="cls-1" d="M136.61,83.59c.8-1.07,1.61-2.12,2.43-3.16C138.22,81.47,137.41,82.52,136.61,83.59Z"/><path class="cls-1" d="M221.37,649.86h0c-.63-.31-1.24-.66-1.87-1C220.14,649.2,220.75,649.54,221.37,649.86Z"/><path class="cls-1" d="M45.6,358.25c0-.36,0-.71,0-1.06C45.59,357.54,45.6,357.89,45.6,358.25Z"/><path class="cls-1" d="M45.78,363.48l-.06-1.24Z"/><path class="cls-1" d="M128.6,95.1c.82-1.28,1.64-2.55,2.49-3.8C130.24,92.55,129.42,93.82,128.6,95.1Z"/><path class="cls-1" d="M123.91,102.76c1.13-2,2.3-3.89,3.49-5.8C126.21,98.87,125,100.8,123.91,102.76Z"/><path class="cls-1" d="M45.75,348.22c0,.67,0,1.33-.08,2,0-.67,0-1.33.08-2Z"/><path class="cls-1" d="M45.61,352.23h0v0Z"/><path class="cls-1" d="M48,382.82c.25,1.35.51,2.7.79,4.05h0c-.28-1.35-.54-2.7-.79-4.05Z"/><path class="cls-1" d="M50.68,394.88c-.08-.3-.16-.61-.23-.92C50.52,394.27,50.6,394.57,50.68,394.88Z"/><path class="cls-1" d="M47.27,378.43c.2,1.31.41,2.62.64,3.93h0c-.23-1.31-.44-2.63-.64-3.94Z"/><path class="cls-1" d="M132.58,89.16c.79-1.13,1.58-2.26,2.39-3.37C134.16,86.9,133.37,88,132.58,89.16Z"/><path class="cls-1" d="M46.66,373.94c.16,1.32.34,2.63.53,3.94h0c-.19-1.31-.37-2.62-.53-3.94Z"/><path class="cls-1" d="M46.12,368.52c0-.34-.06-.69-.08-1C46.06,367.83,46.09,368.18,46.12,368.52Z"/><path class="cls-1" d="M549.54,643.89l-.89.53Z"/><path class="cls-1" d="M515.39,659.1l.76-.25-.76.25Z"/><path class="cls-1" d="M522.35,656.77h0c-.47.18-1,.34-1.43.51Z"/><path class="cls-1" d="M524.21,656.1l.6-.23-.6.23Z"/><path class="cls-1" d="M226.81,17.93l1.56-.53Z"/><path class="cls-1" d="M504.39,662l1.39-.31-1.42.32Z"/><path class="cls-1" d="M511.08,660.34h0l-1.92.5C509.81,660.67,510.45,660.52,511.08,660.34Z"/><path class="cls-1" d="M232.31,16.12l1.57-.49Z"/><path class="cls-1" d="M540.8,648.76c1-.5,1.94-1,2.9-1.52-1,.52-1.94,1-2.91,1.52Z"/><path class="cls-1" d="M554,641.12l-1,.66Z"/><path class="cls-1" d="M499.73,663c.7-.14,1.4-.27,2.1-.42h0l-2.12.42Z"/><path class="cls-1" d="M531.13,653.32h0c-.66.29-1.33.56-2,.84Z"/><path class="cls-1" d="M536.86,650.72l.84-.41-.85.41Z"/><path class="cls-1" d="M535.43,651.4h0l-1.79.82Z"/><polygon class="cls-1" points="426.93 665.73 471.15 665.72 416.11 665.73 426.93 665.73"/><path class="cls-1" d="M242.93,658.57c.49.16,1,.29,1.49.44l-1.5-.44Z"/><path class="cls-1" d="M261,663.14c1.67.31,3.35.6,5,.86h0c-1.68-.26-3.36-.55-5-.86Z"/><path class="cls-1" d="M235.14,655.87c2.06.78,4.14,1.5,6.23,2.19h0c-2.09-.69-4.17-1.41-6.23-2.19Z"/><path class="cls-1" d="M149.55,68.15c1-1.09,2-2.15,3.09-3.22C151.6,66,150.56,67.06,149.55,68.15Z"/><path class="cls-1" d="M227.51,652.72h0c-2-.88-4-1.8-5.95-2.77C223.52,650.92,225.51,651.84,227.51,652.72Z"/><path class="cls-1" d="M495,663.8l1.7-.29-1.71.29Z"/><path class="cls-1" d="M229,653.37q2.94,1.27,5.92,2.42h0q-3-1.14-5.93-2.42Z"/><path class="cls-1" d="M490.32,664.48l2.07-.28h0l-2.09.28Z"/><path class="cls-1" d="M485.56,665c.68-.06,1.35-.14,2-.21h0c-.68.07-1.35.15-2,.21Z"/><path class="cls-1" d="M170.69,48.69c1.3-1,2.6-2,3.92-3C173.29,46.66,172,47.67,170.69,48.69Z"/><path class="cls-1" d="M176.6,44.2q2-1.46,4-2.86Q178.6,42.75,176.6,44.2Z"/><path class="cls-1" d="M480.78,665.4l1.67-.13-1.68.13Z"/><path class="cls-1" d="M476,665.63h0Z"/><path class="cls-1" d="M731.61,268.65c.84,1.64,1.66,3.3,2.45,5C733.27,272,732.45,270.29,731.61,268.65Z"/><polygon class="cls-1" points="190.4 359.02 190.43 465.14 190.4 359.02 190.4 359.02"/><polygon class="cls-1" points="380.1 574.56 288.18 521.53 288.18 521.53 380.1 574.56 419.39 551.86 419.39 551.86 380.1 574.56"/><polygon class="cls-1" points="190.43 465.14 229.75 487.82 229.75 487.82 190.43 465.14"/><path class="cls-1" d="M412.18,544.06c-1.14,0-2.29,0-3.43-.1C409.89,544,411,544.06,412.18,544.06Z"/><path class="cls-1" d="M416.87,543.94h0c-1.11.07-2.22.1-3.34.12C414.65,544,415.76,544,416.87,543.94Z"/><path class="cls-1" d="M228.48,468.27c-.17-.47-.36-.93-.52-1.4C228.12,467.34,228.31,467.8,228.48,468.27Z"/><path class="cls-1" d="M407.83,543.89c-1-.07-2.07-.17-3.1-.29C405.76,543.72,406.8,543.82,407.83,543.89Z"/><path class="cls-1" d="M200.73,289.2c.58-1,1.17-1.95,1.8-2.91C201.9,287.25,201.31,288.22,200.73,289.2Z"/><path class="cls-1" d="M203.06,285.52c.57-.85,1.17-1.69,1.79-2.52C204.23,283.83,203.63,284.67,203.06,285.52Z"/><path class="cls-1" d="M205.4,282.26c.76-1,1.55-1.95,2.36-2.89C207,280.31,206.16,281.28,205.4,282.26Z"/><path class="cls-1" d="M198.5,293.32c.49-1,1-2,1.55-2.93C199.51,291.36,199,292.33,198.5,293.32Z"/><path class="cls-1" d="M235.33,481.67h0l0,0Z"/><path class="cls-1" d="M403.82,543.49c-1.23-.16-2.45-.36-3.68-.6C401.37,543.13,402.59,543.33,403.82,543.49Z"/><path class="cls-1" d="M230.49,473l-.66-1.44Z"/><path class="cls-1" d="M343.22,167.25c1.09-.07,2.19-.1,3.29-.12C345.41,167.15,344.31,167.18,343.22,167.25Z"/><path class="cls-1" d="M232.77,477.46c-.22-.38-.42-.76-.63-1.15C232.35,476.7,232.55,477.08,232.77,477.46Z"/><path class="cls-1" d="M183.32,150.48a24.79,24.79,0,0,1,2.73-1.36A24.79,24.79,0,0,0,183.32,150.48Z"/><polygon class="cls-1" points="420.8 594.98 526.39 533.97 420.8 594.98 420.8 594.98"/><path class="cls-1" d="M448,79.57a23.31,23.31,0,0,1,2.77.21A23.31,23.31,0,0,0,448,79.57Z"/><polygon class="cls-1" points="190.36 246.18 282.24 193.09 282.24 193.09 190.36 246.18 190.38 291.55 190.38 291.55 190.36 246.18"/><path class="cls-1" d="M652.89,276.16a21.56,21.56,0,0,1,1.34,2.73A21.56,21.56,0,0,0,652.89,276.16Z"/><path class="cls-1" d="M459.32,82.7a22.46,22.46,0,0,1,2.2,1.44A22.46,22.46,0,0,0,459.32,82.7Z"/><path class="cls-1" d="M177.49,155.27a23,23,0,0,1,4.54-4A23,23,0,0,0,177.49,155.27Z"/><path class="cls-1" d="M104.09,424.94a23.87,23.87,0,0,1,0-3.05A23.87,23.87,0,0,0,104.09,424.94Z"/><path class="cls-1" d="M107.16,435a23.47,23.47,0,0,1-2.91-8.59A23.47,23.47,0,0,0,107.16,435Z"/><polygon class="cls-1" points="172.46 164.59 172.41 164.75 172.46 164.59 172.46 164.59"/><path class="cls-1" d="M654.23,278.89a23.12,23.12,0,0,1,1,2.87A23.12,23.12,0,0,0,654.23,278.89Z"/><rect class="cls-1" x="425.92" y="110.09" height="106.13" transform="translate(71.76 450.55) rotate(-60.02)"/><polygon class="cls-1" points="569.65 352.17 569.64 318.1 569.65 352.17 569.65 352.17"/><path class="cls-1" d="M340.67,159.33Z"/><polygon class="cls-1" points="569.69 465.02 477.8 518.11 477.8 518.11 569.69 465.02 569.67 419.64 569.67 419.64 569.69 465.02"/><rect class="cls-1" x="607.69" y="241.28" height="198.7"/><rect class="cls-1" x="153.88" y="165.92" width="198.7" transform="matrix(0.87, -0.5, 0.5, 0.87, -49.04, 148.95)"/><polygon class="cls-1" points="394.83 101.3 394.83 101.3 504.95 164.83 394.83 101.3"/><rect class="cls-1" x="279.16" y="460.89" height="198.71" transform="translate(-345.62 522.09) rotate(-60.02)"/><polygon class="cls-1" points="152.33 271.21 152.33 271.21 152.39 469.92 152.39 469.92 152.39 469.92 152.39 469.92 152.33 271.21"/><path class="cls-1" d="M530.38,385.65a27.88,27.88,0,0,1,.1,3.29A27.88,27.88,0,0,0,530.38,385.65Z"/><path class="cls-1" d="M336.12,108.65h0L189,148.13a24.46,24.46,0,0,0-2.92,1,24.46,24.46,0,0,1,2.92-1Z"/><polygon class="cls-1" points="144.21 270.15 105.03 416.57 144.21 270.15 144.21 270.15"/><polygon class="cls-1" points="110.89 439.92 144.47 473.47 144.47 473.47 110.89 439.92"/><path class="cls-1" d="M459.32,82.7a23.46,23.46,0,0,0-8.55-2.92,23.46,23.46,0,0,1,8.55,2.92Z"/><path class="cls-1" d="M479.09,101.32,464.17,86.41c-.36-.37-.74-.72-1.13-1.06.39.34.77.69,1.13,1.06Z"/><path class="cls-1" d="M522.12,408.46,433,497.65a28.52,28.52,0,0,1-9.33,6.22,28.52,28.52,0,0,0,9.33-6.22Z"/><polygon class="cls-1" points="588.05 544.89 587.58 546.63 587.58 546.63 588.05 544.89"/><path class="cls-1" d="M283.48,472.49l-.11,0a28.76,28.76,0,0,1-17.72-14.11,28.76,28.76,0,0,0,17.72,14.11l.11,0,121.81,32.59a28.45,28.45,0,0,0,5.6.92,28.45,28.45,0,0,1-5.6-.92Z"/><path class="cls-1" d="M746.18,404.44h0Z"/><polygon class="cls-1" points="188.11 517.09 233.52 562.47 188.11 517.09 188.11 517.09"/><path class="cls-1" d="M318.48,630.83c-.5.14-1,.26-1.52.36.51-.1,1-.22,1.52-.36l45.85-12.3h0Z"/><path class="cls-1" d="M423.94,602.54h0l147.14-39.48c.5-.13,1-.28,1.48-.45-.49.17-1,.32-1.48.45Z"/><polygon class="cls-1" points="472.81 511.61 516.87 467.52 472.81 511.61 472.81 511.61"/><path class="cls-1" d="M529.56,238.16c.22.48.44,1,.65,1.44C530,239.12,529.78,238.64,529.56,238.16Z"/><path class="cls-1" d="M531.57,242.93c.17.46.36.92.52,1.39C531.93,243.85,531.74,243.39,531.57,242.93Z"/><path class="cls-1" d="M527.29,233.73c.21.38.41.76.61,1.14C527.69,234.49,527.5,234.11,527.29,233.73Z"/><path class="cls-1" d="M557,425.68c-.58.85-1.17,1.68-1.78,2.5C555.82,427.36,556.41,426.53,557,425.68Z"/><path class="cls-1" d="M559.32,422c-.58,1-1.17,2-1.8,2.91C558.15,424,558.74,423,559.32,422Z"/><path class="cls-1" d="M561.55,417.87h0c-.49,1-1,2-1.55,2.93C560.54,419.83,561.06,418.86,561.55,417.87Z"/><path class="cls-1" d="M352.23,167.3c1,.07,2,.17,3.08.29C354.28,167.47,353.25,167.37,352.23,167.3Z"/><path class="cls-1" d="M356.23,167.7c1.23.17,2.45.37,3.67.6C358.68,168.07,357.46,167.86,356.23,167.7Z"/><polygon class="cls-1" points="524.72 229.52 524.72 229.52 524.72 229.53 524.72 229.52"/><path class="cls-1" d="M360.75,168.47c1.29.26,2.57.55,3.84.89C363.32,169,362,168.73,360.75,168.47Z"/><path class="cls-1" d="M530.28,391.64c-.09.77-.21,1.52-.36,2.27C530.07,393.16,530.19,392.41,530.28,391.64Z"/><path class="cls-1" d="M554.64,428.94c-.75,1-1.54,1.94-2.35,2.88C553.1,430.88,553.89,429.92,554.64,428.94Z"/><path class="cls-1" d="M419,505.34a28.49,28.49,0,0,1-4.32.64A28.49,28.49,0,0,0,419,505.34Z"/><path class="cls-1" d="M496.85,259l32.68,121.79a26.25,26.25,0,0,1,.62,3,26.25,26.25,0,0,0-.62-3L496.85,259a28.48,28.48,0,0,0-4.46-9.34A28.48,28.48,0,0,1,496.85,259Z"/><path class="cls-1" d="M319,521.37l76.48,20.46c1.27.34,2.56.63,3.85.89-1.29-.26-2.58-.55-3.85-.89Z"/><path class="cls-1" d="M297.25,626l-.24-.19Z"/><path class="cls-1" d="M198.52,358h0l27.93,104.13v0Z"/><path class="cls-1" d="M551.72,432.47c-.87,1-1.76,1.94-2.69,2.87C550,434.41,550.85,433.45,551.72,432.47Z"/><path class="cls-1" d="M347.87,167.13c1.15,0,2.29,0,3.43.1C350.16,167.16,349,167.13,347.87,167.13Z"/><path class="cls-1" d="M287.23,199.58h0L211,275.84c-.93.94-1.82,1.91-2.69,2.89.87-1,1.76-2,2.69-2.89Z"/><path class="cls-1" d="M308.57,631.29l-.76-.13Z"/><path class="cls-1" d="M307.06,631l-.73-.17Z"/><path class="cls-1" d="M125.76,191.92h0L68.08,407.48c-.35,1.3-.65,2.61-.91,3.92.26-1.31.56-2.62.91-3.92Z"/><path class="cls-1" d="M585.66,551.45a23.81,23.81,0,0,1-5.59,6.9A23.81,23.81,0,0,0,585.66,551.45Z"/><path class="cls-1" d="M634.29,519.27h0L692,303.71c.35-1.3.65-2.6.91-3.91-.26,1.31-.56,2.61-.91,3.91Z"/><path class="cls-1" d="M576.72,560.71a21.7,21.7,0,0,1-2.73,1.36A23.14,23.14,0,0,0,576.72,560.71Z"/><path class="cls-1" d="M394.64,53.56h0L179.11,111.39c-1.25.33-2.48.71-3.7,1.12,1.22-.41,2.45-.79,3.7-1.12Z"/><path class="cls-1" d="M575,143.41l-84-83.91c-.95-1-1.94-1.87-2.95-2.76,1,.89,2,1.81,2.95,2.76Z"/><path class="cls-1" d="M313.24,631.6l-.88,0Z"/><path class="cls-1" d="M310.09,631.5l-.77-.08Z"/><path class="cls-1" d="M316.72,631.23l-1.29.21Z"/><path class="cls-1" d="M311.64,631.6l-.81,0Z"/><path class="cls-1" d="M305.5,630.56l-.61-.18Z"/><path class="cls-1" d="M314.9,631.49l-1,.09Z"/><path class="cls-1" d="M302.67,629.48l-.58-.26Z"/><path class="cls-1" d="M304.07,630.07l-.6-.23Z"/><path class="cls-1" d="M301.31,628.81l-.56-.3Z"/><path class="cls-1" d="M66.53,415.33h0c0-.05,0-.11,0-.17S66.53,415.28,66.53,415.33Z"/><path class="cls-1" d="M171.54,114h0l.25-.1Z"/><path class="cls-1" d="M300,628c-.17-.12-.36-.22-.53-.33C299.62,627.82,299.81,627.92,300,628Z"/><path class="cls-1" d="M298.64,627.13c-.14-.11-.29-.2-.44-.31C298.35,626.93,298.5,627,298.64,627.13Z"/><polygon class="cls-1" points="365.4 657.63 445.77 636.07 365.4 657.63 365.4 657.63"/><path class="cls-1" d="M271.92,654.44c-1-.88-2-1.8-2.93-2.75C269.94,652.64,270.92,653.56,271.92,654.44Z"/><path class="cls-1" d="M485,54.23h0c.43.33.85.7,1.28,1.05C485.89,54.93,485.48,54.56,485,54.23Z"/><path d="M486.32,55.28c.6.48,1.21.95,1.79,1.46C487.53,56.23,486.92,55.76,486.32,55.28Z"/><path d="M171.79,113.87c1.19-.49,2.4-.94,3.62-1.36C174.19,112.93,173,113.38,171.79,113.87Z"/><path d="M66.55,415.16c.17-1.25.37-2.51.62-3.76C66.92,412.65,66.72,413.91,66.55,415.16Z"/><path class="cls-2" d="M634.29,519.27,692,303.71c.35-1.3.65-2.6.91-3.91s.46-2.59.63-3.89a.09.09,0,0,0,0-.05h0a61.65,61.65,0,0,0-17.47-51.49l-101-101-84-83.91c-.95-1-1.94-1.87-2.95-2.76-.58-.51-1.19-1-1.79-1.46-.43-.35-.85-.72-1.28-1.05a61.6,61.6,0,0,0-53.33-10.61l-37.07,9.94L179.11,111.39c-1.25.33-2.48.71-3.7,1.12s-2.43.87-3.62,1.36l-.25.1a61.7,61.7,0,0,0-35.81,40.71l-10,37.24L68.08,407.48c-.35,1.3-.65,2.61-.91,3.92s-.45,2.51-.62,3.76c0,.06,0,.12,0,.17A61.66,61.66,0,0,0,84,466.83L269,651.69c.95.95,1.93,1.87,2.93,2.75s1.94,1.63,2.94,2.4l.15.12h0a61.55,61.55,0,0,0,53.31,10.62l37.06-10,80.37-21.56L580.93,599.8a61.62,61.62,0,0,0,43.37-43.22ZM423.94,602.54l-24.88,14.37a38.17,38.17,0,0,1-28.94,3.74,37.15,37.15,0,0,1-5.79-2.12l-45.85,12.3c-.5.14-1,.26-1.52.36l-.24,0-1.29.21-.53,0-1,.09c-.22,0-.44,0-.66,0l-.88,0-.72,0-.81,0-.74-.07-.77-.08-.75-.13-.76-.13-.75-.17-.73-.17-.05,0c-.26-.07-.52-.16-.78-.24l-.61-.18-.82-.31-.6-.23c-.27-.11-.53-.23-.8-.36l-.58-.26-.78-.41-.56-.3L300,628c-.17-.12-.36-.22-.53-.33s-.54-.39-.81-.58-.29-.2-.44-.31c-.32-.25-.64-.52-.95-.79l-.24-.19c-.39-.34-.76-.69-1.13-1.06l-62.36-62.31-45.41-45.38-24.87-14.35a38,38,0,0,1-18.77-29.27l-33.58-33.55a23.45,23.45,0,0,1-6.64-13.47c-.07-.5-.12-1-.16-1.51a23.87,23.87,0,0,1,0-3.05,24.65,24.65,0,0,1,.4-3.06c.1-.5.21-1,.35-1.51l.2-.75,39.18-146.42V241.42a38,38,0,0,1,16-30.89l12.25-45.78.05-.16a23.08,23.08,0,0,1,1.64-4.31,23.65,23.65,0,0,1,1.54-2.62,21.46,21.46,0,0,1,1.85-2.39,23,23,0,0,1,4.54-4q.63-.42,1.29-.81a24.79,24.79,0,0,1,2.73-1.36,24.46,24.46,0,0,1,2.92-1l147.15-39.48L361,94.28a38.15,38.15,0,0,1,28.93-3.74,37.37,37.37,0,0,1,5.81,2.12l45.84-12.3a22.75,22.75,0,0,1,4.6-.75c.61,0,1.22,0,1.83,0a23.31,23.31,0,0,1,2.77.21,23.46,23.46,0,0,1,8.55,2.92,22.46,22.46,0,0,1,2.2,1.44c.52.39,1,.78,1.52,1.21s.77.69,1.13,1.06l14.92,14.91,92.84,92.77,24.88,14.36a38,38,0,0,1,18.78,29.27l33.57,33.55a23.38,23.38,0,0,1,3.73,4.89,21.56,21.56,0,0,1,1.34,2.73,23.12,23.12,0,0,1,1,2.87c.13.49.24,1,.34,1.48a23.62,23.62,0,0,1,.42,6.06,23.94,23.94,0,0,1-.75,4.57L615.84,441v28.73a38,38,0,0,1-16,30.89l-11.84,44.23-.47,1.75a23.45,23.45,0,0,1-7.51,11.71,23.61,23.61,0,0,1-6.08,3.72c-.47.19-1,.38-1.43.54s-1,.32-1.48.45Z"/><path d="M655.55,283.24a23.62,23.62,0,0,1,.42,6.06A23.62,23.62,0,0,0,655.55,283.24Z"/><path d="M656,289.3a23.94,23.94,0,0,1-.75,4.57A23.94,23.94,0,0,0,656,289.3Z"/><path d="M315.43,631.44l-.53,0Z"/><path d="M303.47,629.84c-.27-.11-.53-.23-.8-.36C302.94,629.61,303.2,629.73,303.47,629.84Z"/><path d="M304.89,630.38l-.82-.31Z"/><path d="M317,631.19l-.24,0Z"/><path d="M587.58,546.64h0a23.91,23.91,0,0,1-1.92,4.81A23.91,23.91,0,0,0,587.58,546.64Z"/><path d="M580.07,558.35a23.2,23.2,0,0,1-3.35,2.36A23.2,23.2,0,0,0,580.07,558.35Z"/><path d="M461.52,84.14c.52.39,1,.78,1.52,1.21C462.55,84.92,462,84.53,461.52,84.14Z"/><path d="M302.09,629.22l-.78-.41Z"/><path d="M446.17,79.61c.61,0,1.22,0,1.83,0C447.39,79.56,446.78,79.57,446.17,79.61Z"/><path d="M175.64,157.66a21.46,21.46,0,0,1,1.85-2.39A21.46,21.46,0,0,0,175.64,157.66Z"/><path d="M233.52,562.47l62.36,62.31c.37.37.74.72,1.13,1.06-.39-.34-.76-.69-1.13-1.06Z"/><path d="M300.75,628.51,300,628Z"/><path d="M105,416.57l-.2.75c-.14.5-.25,1-.35,1.51.1-.5.21-1,.35-1.51Z"/><path d="M172.46,164.59h0a23.08,23.08,0,0,1,1.64-4.31A23.08,23.08,0,0,0,172.46,164.59Z"/><path d="M299.45,627.71c-.28-.19-.54-.39-.81-.58C298.91,627.32,299.17,627.52,299.45,627.71Z"/><path d="M298.2,626.82c-.32-.25-.64-.52-.95-.79C297.56,626.3,297.88,626.57,298.2,626.82Z"/><path d="M313.9,631.58c-.22,0-.44,0-.66,0C313.46,631.59,313.68,631.6,313.9,631.58Z"/><path d="M307.81,631.16l-.75-.17Z"/><path d="M309.32,631.42l-.75-.13Z"/><path d="M306.28,630.8l.05,0-.83-.26C305.76,630.64,306,630.73,306.28,630.8Z"/><path d="M312.36,631.63l-.72,0Z"/><path d="M310.83,631.57l-.74-.07Z"/><polygon class="cls-3" points="566.94 200.59 566.94 200.59 504.95 164.83 566.94 200.59"/><path class="cls-3" d="M607.67,471.57q.06-.9.06-1.8V440l-.06-198.7h0a29.86,29.86,0,0,0-13.38-24.84c-.5-.33-1-.65-1.52-1l-25.82-14.89h0l-62-35.76L394.83,101.3h0a29.81,29.81,0,0,0-28.19-.84c-.54.27-1.07.55-1.59.85l-25.8,14.9-172,99.41h0a29.84,29.84,0,0,0-14.82,24q-.06.9-.06,1.8v29.8l.06,198.7h0a29.87,29.87,0,0,0,13.37,24.83c.5.33,1,.66,1.53,1l25.81,14.88,172.12,99.3h0a29.49,29.49,0,0,0,7,2.93,30.11,30.11,0,0,0,9.86.94,29.8,29.8,0,0,0,11.17-3c.57-.29,1.16-.56,1.72-.89L420.8,595l105.59-61,66.46-38.4a29.9,29.9,0,0,0,14.82-24ZM477.8,518.11l-12.17,12.17a75,75,0,0,1-46.24,21.58L394.6,566.18a29,29,0,0,1-29,0l-77.41-44.66-16.67-4.46-.25-.07a75,75,0,0,1-41.51-29.18L204.05,473a27.2,27.2,0,0,1-13.62-23.57l0-90.4-4.46-16.63a74.93,74.93,0,0,1,4.44-50.84v-28.1a29.88,29.88,0,0,1,14.95-25.91l76.92-44.45,12.17-12.18a75,75,0,0,1,46.26-21.58l34.8-20.11a9,9,0,0,1,9,0l87.44,50.45,16.66,4.45.26.07a75,75,0,0,1,41.5,29.18L564,242.84a11.12,11.12,0,0,1,5.58,9.64l0,65.62v34.07l4.46,16.63a74.93,74.93,0,0,1-4.44,50.84v35.78a16.58,16.58,0,0,1-8.3,14.39Z"/><path d="M557.52,424.9l-.53.78Z"/><path d="M552.29,431.82l-.57.65Z"/><path d="M555.21,428.18l-.57.76Z"/><polygon points="516.87 467.52 549.03 435.35 549.03 435.34 549.03 435.35 516.87 467.52"/><path d="M560,420.8c-.22.4-.45.79-.68,1.19C559.55,421.59,559.78,421.2,560,420.8Z"/><path d="M400.14,542.89l-.83-.17Z"/><path d="M532.09,244.32c.56,1.57,1.07,3.17,1.51,4.79C533.16,247.49,532.65,245.89,532.09,244.32Z"/><path d="M404.73,543.6l-.91-.11Z"/><path d="M235.31,481.64c-.9-1.36-1.74-2.75-2.54-4.18C233.57,478.89,234.41,480.28,235.31,481.64Z"/><path class="cls-4" d="M566.27,370.9,533.6,249.11c-.44-1.62-1-3.22-1.51-4.79-.16-.47-.35-.93-.52-1.39-.43-1.12-.87-2.24-1.36-3.33-.21-.48-.43-1-.65-1.44-.52-1.11-1.08-2.21-1.66-3.29-.2-.38-.4-.76-.61-1.14-.81-1.43-1.66-2.84-2.57-4.2h0A66.88,66.88,0,0,0,486.67,202l-.26-.07-121.82-32.6h0c-1.27-.34-2.55-.63-3.84-.89l-.85-.17c-1.22-.23-2.44-.43-3.67-.6l-.92-.11c-1-.12-2.06-.22-3.08-.29l-.93-.07c-1.14-.07-2.28-.09-3.43-.1h-1.36c-1.1,0-2.2.05-3.29.12h0a66.88,66.88,0,0,0-43,19.4l-12.93,12.93L211,275.84c-.93.94-1.82,1.91-2.69,2.89l-.57.64c-.81.94-1.6,1.91-2.36,2.89-.19.24-.37.49-.55.74-.62.83-1.22,1.67-1.79,2.52-.18.26-.36.51-.53.77-.63,1-1.22,1.93-1.8,2.91-.23.4-.46.79-.68,1.19-.54,1-1.06,1.94-1.55,2.93h0a66.83,66.83,0,0,0-4.72,46.95L198.52,358l27.93,104.13v0q.66,2.43,1.5,4.77c.16.47.35.93.52,1.4.43,1.12.87,2.23,1.35,3.32l.66,1.44c.52,1.11,1.08,2.2,1.65,3.28.21.39.41.77.63,1.15.8,1.43,1.64,2.82,2.54,4.18l0,0a66.88,66.88,0,0,0,38.06,27.5l.25.07L319,521.37l76.48,20.46c1.27.34,2.56.63,3.85.89l.83.17c1.23.24,2.45.44,3.68.6l.91.11c1,.12,2.07.22,3.1.29.3,0,.61.06.92.07,1.14.07,2.29.1,3.43.1.45,0,.9,0,1.35,0,1.12,0,2.23,0,3.34-.12a66.88,66.88,0,0,0,43-19.4l12.92-12.93,44.06-44.08L549,435.35h0c.93-.93,1.82-1.89,2.69-2.87l.57-.65c.81-.94,1.6-1.9,2.35-2.88l.57-.76c.61-.82,1.2-1.65,1.78-2.5l.53-.78c.63-.95,1.22-1.93,1.8-2.91.23-.4.46-.79.68-1.19.54-1,1.06-1.94,1.55-2.93A66.88,66.88,0,0,0,566.27,370.9Zm-40.56,33.16a28.89,28.89,0,0,1-3.59,4.4L433,497.65A29,29,0,0,1,414.63,506a29.16,29.16,0,0,1-3.74,0,28.45,28.45,0,0,1-5.6-.92L283.48,472.49l-.11,0a28.76,28.76,0,0,1-17.72-14.11,26,26,0,0,1-1.23-2.55,28.45,28.45,0,0,1-1.22-3.58L230.52,330.43c-.17-.62-.31-1.24-.43-1.86a28.56,28.56,0,0,1-.48-7.48,29.26,29.26,0,0,1,.92-5.5,28.62,28.62,0,0,1,7.4-12.86l89.14-89.19a28.56,28.56,0,0,1,12.85-7.41,28.25,28.25,0,0,1,3.64-.73,29,29,0,0,1,3.72-.26,28.5,28.5,0,0,1,7.48,1l121.81,32.6.11,0a28.55,28.55,0,0,1,10,5,29.51,29.51,0,0,1,2.78,2.45,29.06,29.06,0,0,1,7.39,12.8l32.68,121.79a26.25,26.25,0,0,1,.62,3c.1.62.17,1.24.23,1.86a27.88,27.88,0,0,1,.1,3.29c0,.91-.09,1.81-.2,2.7s-.21,1.52-.36,2.27A28.82,28.82,0,0,1,525.71,404.06Z"/><path d="M413.53,544.06c-.45,0-.9,0-1.35,0C412.63,544.07,413.08,544.06,413.53,544.06Z"/><path d="M202.53,286.29c.17-.26.35-.51.53-.77C202.88,285.78,202.7,286,202.53,286.29Z"/><path d="M204.85,283c.18-.25.36-.5.55-.74C205.21,282.5,205,282.75,204.85,283Z"/><path d="M346.51,167.13h0Z"/><path d="M351.3,167.23l.93.07Z"/><path d="M355.31,167.59l.92.11Z"/><path d="M228,466.87q-.84-2.34-1.5-4.77C226.9,463.72,227.41,465.31,228,466.87Z"/><path d="M232.14,476.31c-.57-1.08-1.13-2.17-1.65-3.28C231,474.14,231.57,475.23,232.14,476.31Z"/><path d="M229.83,471.59c-.48-1.09-.92-2.2-1.35-3.32C228.91,469.39,229.35,470.5,229.83,471.59Z"/><path d="M408.75,544c-.31,0-.62-.05-.92-.07C408.13,543.91,408.44,544,408.75,544Z"/><path d="M359.9,168.3l.85.17Z"/><path d="M200.05,290.39c.22-.4.45-.79.68-1.19C200.5,289.6,200.27,290,200.05,290.39Z"/><path d="M207.76,279.37l.57-.64Z"/><path d="M527.9,234.87c.58,1.08,1.14,2.18,1.66,3.29C529,237.05,528.48,236,527.9,234.87Z"/><path d="M524.72,229.53c.91,1.36,1.76,2.77,2.57,4.2C526.48,232.3,525.63,230.89,524.72,229.53Z"/><path d="M530.21,239.6c.49,1.09.93,2.21,1.36,3.33C531.15,241.81,530.7,240.69,530.21,239.6Z"/><path d="M489.46,246.17a28.51,28.51,0,0,1,2.93,3.46A28.51,28.51,0,0,0,489.46,246.17Z"/><path d="M343.56,205.4a29,29,0,0,1,3.72-.26A29,29,0,0,0,343.56,205.4Z"/><path d="M423.65,503.87a28.46,28.46,0,0,1-4.7,1.47A28.46,28.46,0,0,0,423.65,503.87Z"/><path d="M229.61,321.09a29.26,29.26,0,0,1,.92-5.5A29.26,29.26,0,0,0,229.61,321.09Z"/><path d="M230.09,328.57a28.56,28.56,0,0,1-.48-7.48A28.56,28.56,0,0,0,230.09,328.57Z"/><path d="M265.65,458.35a26,26,0,0,1-1.23-2.55A26,26,0,0,0,265.65,458.35Z"/><path d="M486.68,243.72a29.51,29.51,0,0,1,2.78,2.45A29.51,29.51,0,0,0,486.68,243.72Z"/><path d="M530.15,383.79c.1.62.17,1.24.23,1.86C530.32,385,530.25,384.41,530.15,383.79Z"/><path d="M525.71,404.06a28.82,28.82,0,0,0,4.21-10.15A28.82,28.82,0,0,1,525.71,404.06Z"/><path d="M476.57,238.71l.12,0a28.59,28.59,0,0,1,10,5,28.55,28.55,0,0,0-10-5l-.11,0-121.81-32.6a28.5,28.5,0,0,0-7.48-1,28.5,28.5,0,0,1,7.48,1Z"/><path d="M230.52,330.43,263.2,452.22a28.45,28.45,0,0,0,1.22,3.58,28.45,28.45,0,0,1-1.22-3.58Z"/><path d="M327.07,213.54a28.56,28.56,0,0,1,12.85-7.41,28.56,28.56,0,0,0-12.85,7.41l-89.14,89.19a28.62,28.62,0,0,0-7.4,12.86,28.62,28.62,0,0,1,7.4-12.86Z"/><path d="M530.48,388.94c0,.91-.09,1.81-.2,2.7C530.39,390.75,530.45,389.85,530.48,388.94Z"/><path class="cls-5" d="M750.87,380.63c.09-.72.17-1.44.26-2.16.13-1.13.27-2.27.38-3.4.1-.93.18-1.85.26-2.78s.15-1.77.21-2.66c.08-1.09.16-2.17.22-3.26l.09-1.9a191.53,191.53,0,0,0-.07-19.32v0c-.07-1.21-.14-2.42-.23-3.63a194.45,194.45,0,0,0-2.7-20.93h0q-1.47-7.85-3.57-15.57s0-.08,0-.13c-.65-2.38-1.36-4.74-2.1-7.1-.1-.32-.21-.64-.31-1-.74-2.3-1.53-4.6-2.36-6.88,0-.13-.09-.25-.13-.38-.9-2.45-1.86-4.88-2.86-7.3l-.28-.66q-1.29-3-2.68-6.06c-.29-.64-.6-1.27-.9-1.91-.79-1.66-1.61-3.32-2.45-5-.33-.64-.64-1.27-1-1.9q-1.73-3.3-3.58-6.54l-56-96.94L636,102.59c-1-1.65-1.94-3.28-2.94-4.9-.29-.48-.6-1-.9-1.43-.75-1.19-1.52-2.38-2.3-3.55l-.31-.48-.6-.9c-2.12-3.14-4.34-6.21-6.63-9.2-.33-.44-.67-.86-1-1.29-.87-1.12-1.75-2.22-2.65-3.31l-.94-1.16-.07-.08c-2.41-2.9-4.91-5.72-7.47-8.46-.18-.2-.37-.39-.55-.58l-.55-.57q-1.47-1.55-3-3.06L605,62.53q-4-4-8.24-7.66c-.38-.34-.78-.68-1.17-1q-1.62-1.41-3.27-2.77l-1.17-1q-4.35-3.54-8.92-6.81L581.8,43l-.83-.59c-1.17-.82-2.34-1.63-3.53-2.43l-1.22-.82q-2.36-1.56-4.74-3.05l-.06,0q-2.34-1.44-4.73-2.83l-.47-.27-.88-.5c-1.24-.71-2.48-1.4-3.73-2.07l-.06,0-1.25-.68c-1.66-.88-3.32-1.74-5-2.57l-.17-.09c-1.61-.79-3.24-1.55-4.87-2.3l-.69-.31-.77-.35c-1.28-.57-2.56-1.13-3.85-1.68L544,22l-.47-.19c-1.72-.71-3.45-1.41-5.19-2.07L538,19.6c-1.62-.61-3.24-1.19-4.88-1.76l-1.6-.54c-1.31-.44-2.63-.87-4-1.28L526,15.54c-1.77-.53-3.55-1-5.33-1.53-1.22-.33-2.45-.63-3.68-.94-.79-.2-1.57-.41-2.36-.6-1.31-.31-2.62-.58-3.94-.86-.72-.16-1.43-.33-2.16-.47l-1-.19c-1.08-.21-2.17-.41-3.25-.6-.64-.12-1.27-.25-1.91-.35s-1.55-.24-2.32-.36l-2.48-.37-1.41-.21c-1.25-.17-2.51-.3-3.77-.45l-.9-.1-1.58-.19h-.05c-1.84-.18-3.7-.33-5.55-.46q-.35,0-.69-.06-2.92-.19-5.85-.3l-.49,0c-2.11-.07-4.24-.1-6.36-.1l-182,.06c-1.91,0-3.81,0-5.71.09l-1.7.07q-2.1.08-4.2.21l-1.69.11c-1.87.13-3.75.28-5.62.47h0c-1.87.18-3.74.41-5.6.65l-1.66.23c-1.38.2-2.75.41-4.12.63l-1.65.27c-1.85.32-3.69.65-5.53,1-5.91,1.2-11.75,2.69-17.49,4.43l-1.57.49c-1.32.41-2.64.84-3.94,1.28l-1.56.53q-2.64.9-5.23,1.88h0c-2.48.94-4.93,1.95-7.37,3a192.5,192.5,0,0,0-22.33,11.33c-1.17.69-2.34,1.38-3.49,2.09-2,1.24-4,2.53-5.92,3.85-.61.41-1.21.83-1.81,1.25q-2,1.41-4,2.86l-2,1.47c-1.32,1-2.62,2-3.92,3L169,50.06c-1.83,1.49-3.65,3-5.43,4.55-1.55,1.36-3.09,2.74-4.6,4.15s-3.2,3.05-4.77,4.61c-.51.51-1,1-1.52,1.56-1,1.07-2.08,2.13-3.09,3.22-.59.63-1.17,1.27-1.75,1.91-.91,1-1.82,2-2.72,3l-1.77,2.08c-.86,1-1.7,2-2.53,3.06-.59.72-1.17,1.45-1.74,2.18-.82,1-1.63,2.09-2.43,3.16-.55.73-1.1,1.46-1.64,2.2-.81,1.11-1.6,2.24-2.39,3.37-.5.71-1,1.42-1.49,2.14-.85,1.25-1.67,2.52-2.49,3.8-.39.62-.81,1.23-1.2,1.86-1.19,1.91-2.36,3.84-3.49,5.8l-91,157.68c-.91,1.57-1.77,3.16-2.63,4.75-.35.65-.7,1.3-1,2-.45.86-.9,1.73-1.33,2.6-1.05,2.09-2.07,4.18-3,6.29l0,.07c-.31.68-.62,1.35-.92,2h0a188.73,188.73,0,0,0-8.31,22.37q-.95,3.11-1.77,6.24-.78,3-1.46,5.93c-.27,1.14-.5,2.29-.74,3.43-.17.83-.36,1.66-.53,2.5-.3,1.56-.58,3.12-.84,4.69-.08.41-.16.83-.23,1.24-.3,1.82-.56,3.64-.81,5.46,0,.16,0,.32-.07.48q-.39,3-.69,5.94h0q-.9,9-1,18h0c0,2.21,0,4.42.06,6.62a1.77,1.77,0,0,1,0,.23q.09,3.38.31,6.76.39,6.17,1.19,12.3t2,12.22q.6,3,1.29,6.07A190.39,190.39,0,0,0,33,451L124.08,608.6c.9,1.57,1.84,3.12,2.79,4.66.3.49.6,1,.91,1.45.67,1.06,1.35,2.13,2,3.18l1.05,1.58c.7,1,1.42,2.08,2.14,3.11l1,1.38c1,1.46,2.1,2.91,3.18,4.33s2.19,2.84,3.31,4.23c.35.44.71.86,1.06,1.29.79,1,1.59,1.93,2.41,2.89l1.21,1.41c.82.95,1.66,1.88,2.5,2.81.37.41.73.82,1.1,1.22,1.21,1.31,2.43,2.61,3.67,3.88,1.46,1.5,3,3,4.47,4.43s2.9,2.74,4.38,4.08h0q6.6,6,13.71,11.26l.32.24q7,5.21,14.43,9.74l.66.4c1.42.86,2.86,1.71,4.31,2.53l.71.41q4.94,2.79,10,5.28l.91.44q2,1,4.09,1.91l1.29.59c1.39.61,2.79,1.22,4.19,1.8l.92.39c1.7.7,3.42,1.37,5.15,2l.94.34c1.39.52,2.79,1,4.19,1.5l1.62.55c1.25.42,2.5.82,3.76,1.22l1.56.48c1.74.53,3.48,1,5.24,1.52,2.29.62,4.6,1.19,6.92,1.73l2.18.48c1.63.35,3.26.69,4.9,1l2.46.46c1.65.29,3.31.56,5,.81L263,702q3.57.5,7.15.87h.05c1.87.19,3.74.34,5.62.47l1.7.11,4.2.21,1.71.06c1.91.06,3.82.1,5.73.1l182-.06c1.91,0,3.81,0,5.72-.1l1.68-.07c1.41-.05,2.81-.12,4.21-.21l1.68-.11c1.87-.13,3.74-.28,5.6-.47h.05q3.13-.31,6.24-.74c2.54-.34,5.06-.75,7.57-1.19l2.15-.4c1.94-.36,3.87-.76,5.8-1.18l1.88-.41c2.49-.58,5-1.2,7.44-1.87.28-.08.55-.17.83-.24q3.32-.93,6.59-2l1.83-.6c2.09-.69,4.18-1.41,6.25-2.18l1-.37c2.47-.92,4.91-1.9,7.33-2.92l.9-.39q3.16-1.37,6.27-2.83l1.42-.67c2.31-1.11,4.61-2.26,6.88-3.47,2-1,3.93-2.13,5.86-3.24q8-4.64,15.58-10,5-3.58,9.83-7.51,2.38-2,4.73-4,7-6.11,13.42-12.92a189.9,189.9,0,0,0,15.91-19.3q3.67-5.1,7-10.48c1.11-1.8,2.2-3.61,3.26-5.45l91-157.68c1.15-2,2.25-4,3.32-6l.09-.18q1.56-3,3-6,2.31-4.79,4.34-9.65c.19-.46.39-.92.58-1.39a.64.64,0,0,0,0-.07q2.16-5.28,4-10.67c.07-.22.15-.43.22-.65l0-.11q1.8-5.4,3.27-10.86c.06-.25.13-.48.2-.72h0c.53-2,1-4,1.49-6C749,392.53,750.08,386.59,750.87,380.63Zm-42,15.85h0c-.23.85-.47,1.71-.72,2.56h0c0,.11-.07.22-.1.33-.88,2.93-1.84,5.84-2.9,8.72h0c-.24.67-.5,1.34-.75,2h0c-.32.83-.64,1.65-1,2.48h0c-.26.65-.52,1.3-.79,1.94h0q-2.46,5.87-5.43,11.57h0l-.66,1.28q-1.17,2.19-2.41,4.35l-52.31,90.67-9.71,36.3a69.82,69.82,0,0,1-38.35,45c-1.42,1.92-2.9,3.79-4.4,5.64-.22.27-.44.55-.67.82-1.44,1.75-2.92,3.45-4.44,5.13l-.85.94c-1.54,1.67-3.1,3.3-4.71,4.9l-.68.67c-1.7,1.66-3.42,3.29-5.18,4.87h0l-.1.09h0c-.38.34-.76.66-1.13,1a154,154,0,0,1-13.43,10.5l-.86.59c-1.1.75-2.22,1.5-3.34,2.23l-1,.66c-1.13.72-2.27,1.42-3.41,2.11l-.89.53q-2.46,1.46-4.95,2.82c-1,.52-1.93,1-2.9,1.52h0c-1,.53-2.06,1-3.09,1.55l-.84.41h0l-1.41.67h0l-1.78.81-2.5,1.1h0l-2,.83c-1.44.59-2.89,1.17-4.35,1.72l-.6.23h0c-.61.23-1.22.44-1.84.66h0l-1.41.5c-1.59.55-3.18,1.08-4.79,1.58l-.76.25h0c-1.43.43-2.86.85-4.3,1.24h0c-.63.18-1.27.33-1.91.5l-3.39.84-1.39.31h0c-.84.19-1.68.38-2.52.55h0c-.7.15-1.4.28-2.1.42h0c-1,.19-2,.37-3,.54l-1.7.29h0l-2.63.4h0l-2.07.28h0l-2.72.32h0c-.67.07-1.34.15-2,.21h0c-1,.1-2.07.18-3.11.26l-1.67.13h0c-1.5.1-3,.17-4.52.22H476c-1.6.06-3.21.09-4.82.09h-55l-49.64,0-36,9.67a69.72,69.72,0,0,1-36.27-.09c-1-.27-2-.56-3-.88A69.91,69.91,0,0,1,272,664.79c-.66-.07-1.32-.17-2-.26-1.33-.17-2.66-.33-4-.53h0c-1.68-.26-3.36-.55-5-.86h0c-4-.74-7.89-1.63-11.76-2.69-1.62-.44-3.23-.94-4.83-1.44-.5-.15-1-.28-1.49-.44h0l-1.55-.51h0c-2.09-.69-4.17-1.41-6.23-2.19h0l-.2-.08h0q-3-1.14-5.92-2.42h0l-1.5-.65h0c-2-.88-4-1.8-5.95-2.77l-.18-.09h0c-.62-.32-1.23-.66-1.86-1-1.76-.91-3.51-1.83-5.24-2.8h0c-3.51-2-6.92-4.09-10.26-6.33-.3-.21-.62-.4-.92-.61h0c-1-.71-2.06-1.46-3.08-2.2-1.2-.86-2.42-1.71-3.59-2.61h0l-.08-.06v0c-1.72-1.31-3.4-2.67-5.06-4h0l-1.25-1h0c-1.11-1-2.2-1.94-3.3-2.93-1.77-1.6-3.5-3.25-5.2-4.93l-1.18-1.15h0L179,618.72c-1.47-1.53-2.93-3.08-4.33-4.67h0a151,151,0,0,1-11.71-15.16c-.48-.71-1-1.41-1.46-2.14h0c-.31-.47-.61-.94-.91-1.41h0c-1.22-1.9-2.4-3.81-3.53-5.77L104.65,499,78.26,472.57a69.79,69.79,0,0,1-20-55.93v0h0c-.95-2.19-1.84-4.41-2.68-6.64-.13-.32-.25-.63-.37-1Q54,405.84,53,402.61c-.12-.4-.25-.81-.38-1.21q-1-3.24-1.89-6.52c-.08-.31-.16-.61-.23-.92-.61-2.35-1.18-4.71-1.67-7.09h0c-.28-1.35-.54-2.7-.79-4.05h0c0-.16-.05-.31-.08-.46h0c-.23-1.31-.44-2.62-.64-3.93h0c0-.18-.05-.36-.08-.54h0c-.19-1.31-.37-2.62-.53-3.94h0c-.21-1.8-.39-3.61-.54-5.42,0-.34-.06-.69-.08-1-.11-1.34-.19-2.67-.26-4l-.06-1.24q-.09-2-.12-4c0-.36,0-.71,0-1.06,0-1.65,0-3.3,0-4.95h0v0c0-.66,0-1.33.06-2s0-1.32.08-2h0l.06-1.24h0c.06-1.05.14-2.09.22-3.13h0l.12-1.56h0c0-.22.05-.45.07-.67.26-2.9.61-5.78,1-8.66h0c.14-.91.27-1.82.43-2.73h0c.11-.64.23-1.27.34-1.91h0c.16-.88.32-1.77.5-2.65h0c.9-4.53,2-9,3.33-13.47h0c.2-.69.42-1.37.64-2.06h0c.32-1,.65-2,1-3.05.16-.49.33-1,.49-1.46h0q1.35-3.88,2.91-7.71l.48-1.18h0q.88-2.1,1.83-4.17a1.21,1.21,0,0,1,.09-.2h0c.39-.88.81-1.75,1.22-2.62h0l.27-.55q1.23-2.55,2.56-5.05l.2-.4h0q1.14-2.12,2.34-4.22l52.31-90.66,9.69-36.24a69.92,69.92,0,0,1,38.37-45.1c1.43-1.93,2.91-3.8,4.41-5.66.22-.26.43-.53.65-.8,1.45-1.75,2.93-3.45,4.45-5.13l.85-.93c1.54-1.67,3.1-3.31,4.7-4.9.23-.23.46-.44.68-.67,1.7-1.66,3.42-3.3,5.19-4.88h0l.13-.11h0l1-.86q4.26-3.74,8.78-7.15l.37-.29h0c1.45-1.09,2.93-2.14,4.42-3.18l.87-.59q1.65-1.14,3.33-2.22c.34-.23.69-.45,1-.67,1.12-.72,2.26-1.42,3.4-2.1l.9-.54q2.11-1.26,4.29-2.45h0c.16-.1.33-.19.5-.28h0l1.76-.92c.8-.42,1.59-.84,2.4-1.25h0l1.16-.57c1-.5,2-1,3.07-1.48h0l.2-.09q4.33-2,8.78-3.75l2.23-.86h0c2.08-.78,4.19-1.5,6.3-2.19h0c.82-.27,1.64-.54,2.47-.79h0c1.42-.43,2.85-.84,4.29-1.24h0l2-.52h0c.84-.22,1.68-.44,2.53-.64h0l.48-.11q2.07-.49,4.17-.93h0l.53-.1c1.38-.29,2.77-.55,4.17-.79h0l.56-.1q4.45-.75,9-1.26h0c.68-.07,1.35-.15,2-.21h0c1.28-.12,2.57-.23,3.85-.32l.93-.07h0c1.54-.1,3.1-.17,4.65-.22h.15c1.6-.05,3.21-.08,4.82-.08l104.67,0,36-9.67a69.72,69.72,0,0,1,36.27.09h0A69.77,69.77,0,0,1,488,46.4l.81.11c1.58.18,3.16.39,4.74.62h0l.43.07h0c1.06.16,2.11.36,3.16.54.88.15,1.76.29,2.64.46h0c.91.18,1.81.38,2.71.57s1.92.39,2.87.61h0c1.79.42,3.56.86,5.33,1.34l.07,0c2.66.72,5.29,1.53,7.9,2.4,2.08.69,4.15,1.4,6.2,2.18h0c.91.35,1.79.74,2.69,1.1,1.15.46,2.3.91,3.44,1.4h0l1.49.65h0c2,.89,4,1.81,6,2.78h0c1.18.58,2.33,1.22,3.5,1.84.78.41,1.58.81,2.36,1.23h0c2.42,1.33,4.82,2.71,7.17,4.17h0l.71.47q5.79,3.65,11.26,7.79l.16.12h0q2.61,2,5.13,4.13h0q5.68,4.74,10.91,10l0,0h0l1.12,1.14h0c1.54,1.6,3.07,3.22,4.54,4.89h0c.51.58,1,1.19,1.49,1.78.94,1.1,1.89,2.2,2.8,3.33h0l1,1.27h0c1.39,1.76,2.75,3.53,4.06,5.35h0c1.63,2.27,3.19,4.59,4.7,7h0c1.21,1.9,2.4,3.81,3.53,5.77l52.37,90.63,26.39,26.37a69.75,69.75,0,0,1,20,55.93v0h0c.95,2.19,1.83,4.4,2.68,6.63.12.32.25.64.37,1q1.18,3.18,2.22,6.41l.39,1.21c.67,2.16,1.31,4.33,1.89,6.52.08.3.15.61.23.92.6,2.3,1.15,4.6,1.64,6.92h0l0,.15h0c.26,1.24.5,2.48.72,3.73l.15.78h0c.23,1.3.44,2.61.64,3.92h0l.09.65c.19,1.27.36,2.55.52,3.83h0c0,.14,0,.28.05.43h0v0c.19,1.65.35,3.3.49,5,0,.35.06.71.08,1.06.11,1.33.19,2.66.26,4l.06,1.24q.09,2,.12,4c0,.35,0,.71,0,1.06,0,1.65,0,3.29,0,4.94v0c0,1.06-.06,2.12-.11,3.19l0,.78h0l-.06,1.29h0c-.06,1-.14,2.06-.22,3.1h0c-.1,1.38-.23,2.75-.37,4.13,0,.13,0,.25,0,.38h0q-.35,3.21-.82,6.4h0c-.13.85-.26,1.7-.4,2.54-.38,2.28-.82,4.56-1.3,6.82h0c-.18.84-.35,1.67-.54,2.5h0c-.5,2.13-1,4.24-1.64,6.35Z"/><path class="cls-5" d="M11.14,318.61c.17-.84.36-1.67.53-2.5C11.5,316.94,11.31,317.77,11.14,318.61Z"/><path class="cls-5" d="M609.94,643.66q-6.41,6.8-13.42,12.92Q603.53,650.47,609.94,643.66Z"/><path class="cls-5" d="M145.15,638.11l-1.21-1.41Z"/><path class="cls-5" d="M546,688.34l-.9.39Z"/><path class="cls-5" d="M548.81,24.08h0l.77.35Z"/><path class="cls-5" d="M561.61,30.41l-.06,0,.06,0Z"/><path class="cls-5" d="M277.28,7.81q2.1-.13,4.2-.21Q279.38,7.68,277.28,7.81Z"/><path class="cls-5" d="M161.29,654.54h0Z"/><path class="cls-5" d="M10.07,324.54c.07-.41.15-.83.23-1.24C10.22,323.71,10.14,324.13,10.07,324.54Z"/><path class="cls-5" d="M742.68,416.14l0-.11,0,.11Z"/><path class="cls-5" d="M148.75,642.14c-.37-.4-.73-.81-1.1-1.22C148,641.33,148.38,641.74,148.75,642.14Z"/><path class="cls-5" d="M12.41,312.68q.67-3,1.46-5.93Q13.09,309.71,12.41,312.68Z"/><path class="cls-5" d="M553.64,684.84l-1.42.67Z"/><path class="cls-5" d="M496.17,9.06c-1.25-.17-2.51-.31-3.77-.45,1.26.15,2.52.28,3.77.45Z"/><path class="cls-5" d="M533.07,17.84l-1.58-.54h0l1.6.54Z"/><polygon class="cls-5" points="349.57 7.42 288.89 7.44 470.93 7.38 349.57 7.42"/><path class="cls-5" d="M13.9,404.69q2.4,9,5.68,17.81a190.24,190.24,0,0,1-7.17-23.84C12.88,400.67,13.37,402.68,13.9,404.69Z"/><path class="cls-5" d="M127.78,614.71c-.31-.49-.61-1-.91-1.45C127.17,613.75,127.47,614.22,127.78,614.71Z"/><path class="cls-5" d="M484.82,7.9l-.5,0c1.85.13,3.71.28,5.55.46C488.19,8.15,486.51,8,484.82,7.9Z"/><path class="cls-5" d="M520.66,14c-1.19-.33-2.4-.62-3.6-.92l-.07,0c1.23.31,2.46.61,3.68.94Z"/><path class="cls-5" d="M544.94,22.4,544,22l1,.41Z"/><path class="cls-5" d="M483.62,7.8c-1.8-.12-3.61-.21-5.42-.27l-.42,0q2.93.11,5.85.3Z"/><path class="cls-5" d="M581,42.43h0l.83.59Z"/><path class="cls-5" d="M746.16,404.5s0,0,0-.05c-.07.24-.14.47-.2.72C746,404.94,746.1,404.72,746.16,404.5Z"/><path class="cls-5" d="M508.53,11.13l-1-.18,1,.19Z"/><path class="cls-5" d="M730.52,444.55l-.09.18Z"/><path class="cls-5" d="M497.94,9.32l-.36-.05,2.48.37Z"/><path class="cls-5" d="M565.35,32.49h0l.88.5Z"/><path class="cls-5" d="M625.85,624.36a189.9,189.9,0,0,1-15.91,19.3A189.9,189.9,0,0,0,625.85,624.36Z"/><path class="cls-5" d="M141.53,633.81c-.35-.43-.71-.85-1.06-1.29C140.82,633,141.18,633.38,141.53,633.81Z"/><path class="cls-5" d="M130.87,619.47l-1.05-1.58Z"/><path class="cls-5" d="M283.18,7.53c1.9,0,3.8-.09,5.71-.09C287,7.44,285.08,7.48,283.18,7.53Z"/><path class="cls-5" d="M632.88,613.88q-3.36,5.37-7,10.48Q629.52,619.26,632.88,613.88Z"/><path class="cls-5" d="M738.46,427.53s0,0,0-.07a.64.64,0,0,1,0,.07Z"/><path class="cls-5" d="M7.62,361.31a1.77,1.77,0,0,0,0-.23A1.77,1.77,0,0,1,7.62,361.31Z"/><path class="cls-5" d="M211.75,687.34l-1.29-.59Z"/><path class="cls-5" d="M263,702l-2.21-.34Z"/><path class="cls-5" d="M255.78,700.85l-2.46-.46Z"/><path class="cls-5" d="M195.43,679.12l-.71-.41Z"/><path class="cls-5" d="M147.8,70.06c.58-.64,1.16-1.28,1.75-1.91C149,68.78,148.38,69.42,147.8,70.06Z"/><path class="cls-5" d="M143.31,75.19l1.77-2.08Z"/><path class="cls-5" d="M289.12,703.82c-1.91,0-3.82,0-5.73-.1C285.3,703.78,287.21,703.82,289.12,703.82Z"/><path class="cls-5" d="M248.42,699.38l-2.18-.48Z"/><path class="cls-5" d="M169,50.06l1.73-1.37Z"/><path class="cls-5" d="M281.68,703.66l-4.2-.21Z"/><path class="cls-5" d="M275.78,703.34c-1.88-.13-3.75-.28-5.62-.47C272,703.06,273.9,703.21,275.78,703.34Z"/><path class="cls-5" d="M476.88,703.66c-1.91.06-3.81.1-5.72.1C473.07,703.76,475,703.72,476.88,703.66Z"/><path class="cls-5" d="M152.64,64.93c.51-.52,1-1.05,1.52-1.56C153.65,63.88,153.15,64.41,152.64,64.93Z"/><path class="cls-5" d="M216.86,689.53l-.92-.39Z"/><polygon class="cls-5" points="91.34 159.22 32.94 260.44 123.91 102.76 91.34 159.22"/><path class="cls-5" d="M139,80.43c.57-.73,1.15-1.46,1.74-2.18C140.19,79,139.61,79.7,139,80.43Z"/><path class="cls-5" d="M30.31,265.19c.86-1.59,1.72-3.18,2.63-4.75C32,262,31.16,263.6,30.31,265.19Z"/><path class="cls-5" d="M206.37,684.84l-.91-.44Z"/><path class="cls-5" d="M223,691.9l-.94-.34Z"/><path class="cls-5" d="M135,85.79c.54-.74,1.09-1.47,1.64-2.2C136.06,84.32,135.51,85.05,135,85.79Z"/><path class="cls-5" d="M234.08,695.65l-1.56-.48Z"/><path class="cls-5" d="M131.09,91.3c.49-.72,1-1.43,1.49-2.14C132.08,89.87,131.58,90.58,131.09,91.3Z"/><path class="cls-5" d="M228.76,694l-1.62-.55Z"/><path class="cls-5" d="M127.4,97c.39-.63.81-1.24,1.2-1.86C128.21,95.72,127.79,96.33,127.4,97Z"/><path class="cls-5" d="M24.87,276.11h0l0-.07Z"/><path class="cls-5" d="M270,8.39c1.87-.19,3.75-.34,5.62-.47C273.72,8.05,271.84,8.2,270,8.39Z"/><path class="cls-5" d="M530.43,694.2l-1.83.6Z"/><path class="cls-5" d="M522,696.77c-.28.07-.55.16-.83.24C521.46,696.93,521.73,696.84,522,696.77Z"/><path class="cls-5" d="M264.33,9.05c1.86-.24,3.73-.47,5.6-.65C268.06,8.58,266.19,8.81,264.33,9.05Z"/><path class="cls-5" d="M9.19,330.48c0-.16.05-.32.07-.48C9.24,330.16,9.22,330.32,9.19,330.48Z"/><path class="cls-5" d="M537.72,691.65l-1,.37Z"/><polygon class="cls-5" points="23.95 278.14 23.95 278.14 23.95 278.14 23.95 278.14"/><polygon class="cls-5" points="7.55 354.46 7.55 354.46 7.55 354.46 7.55 354.46"/><path class="cls-5" d="M190.41,676.18l-.66-.4Z"/><path class="cls-5" d="M134,624l-1-1.38Z"/><path class="cls-5" d="M175.32,666l-.32-.24Z"/><path class="cls-5" d="M482.77,703.38c-1.4.09-2.8.16-4.21.21C480,703.54,481.37,703.47,482.77,703.38Z"/><path class="cls-5" d="M221.58,19.81q2.59-1,5.23-1.88Q224.17,18.83,221.58,19.81Z"/><path class="cls-5" d="M490.05,702.8c-1.86.19-3.73.34-5.6.47C486.32,703.14,488.19,703,490.05,702.8Z"/><path class="cls-5" d="M180.64,41.34c.6-.42,1.2-.84,1.81-1.25C181.84,40.5,181.24,40.92,180.64,41.34Z"/><path class="cls-5" d="M174.61,45.67l2-1.47Z"/><path class="cls-5" d="M8.5,336.43h0Z"/><path class="cls-5" d="M506.06,700.47l-2.15.4Z"/><path class="cls-5" d="M513.74,698.88l-1.88.41Z"/><path class="cls-5" d="M251.37,11.2c1.84-.37,3.68-.7,5.53-1C255.05,10.5,253.21,10.83,251.37,11.2Z"/><path class="cls-5" d="M228.37,17.4c1.3-.44,2.62-.87,3.94-1.28C231,16.53,229.67,17,228.37,17.4Z"/><path class="cls-5" d="M239.25,14.07c-1.8.49-3.59,1-5.37,1.56,5.74-1.74,11.58-3.23,17.49-4.43C247.3,12,243.25,13,239.25,14.07Z"/><path class="cls-5" d="M258.55,9.91c1.37-.22,2.74-.43,4.12-.63C261.29,9.48,259.92,9.69,258.55,9.91Z"/><path class="cls-5" d="M27.94,269.75c.43-.87.88-1.74,1.33-2.6C28.82,268,28.37,268.88,27.94,269.75Z"/><path class="cls-5" d="M743.27,296.8c.1.32.21.64.31,1C743.48,297.44,743.37,297.12,743.27,296.8Z"/><path class="cls-5" d="M752,369.63c-.06.89-.13,1.78-.21,2.66C751.85,371.41,751.92,370.52,752,369.63Z"/><path class="cls-5" d="M752.29,364.47l-.09,1.9Z"/><polygon class="cls-5" points="749.28 320.56 749.28 320.56 749.29 320.56 749.28 320.56"/><path class="cls-5" d="M745.68,304.86c0,.05,0,.09,0,.13S745.69,304.91,745.68,304.86Z"/><path class="cls-5" d="M752.22,345.13h0v0Z"/><path class="cls-5" d="M749,392.35c.39-2,.76-4.06,1.09-6.1.3-1.87.57-3.75.82-5.62-.79,6-1.85,11.9-3.2,17.78Q748.36,395.4,749,392.35Z"/><path class="cls-5" d="M747.67,398.41c-.47,2-1,4-1.49,6h0C746.71,402.44,747.2,400.43,747.67,398.41Z"/><path class="cls-5" d="M592.31,51.09c-.38-.32-.76-.64-1.15-1h0l1.17,1Z"/><path class="cls-5" d="M214.19,22.82c-1.36.58-2.71,1.15-4.05,1.76q-2.8,1.29-5.58,2.65Q199,30,193.67,33.07c-.61.35-1.21.72-1.81,1.08A192.5,192.5,0,0,1,214.19,22.82Z"/><path class="cls-5" d="M751.51,375.07c-.11,1.13-.25,2.27-.38,3.4C751.26,377.34,751.4,376.2,751.51,375.07Z"/><path class="cls-5" d="M618.64,77.52l-.94-1.15.94,1.16Z"/><path class="cls-5" d="M633,97.68c-.29-.47-.59-.94-.89-1.4v0c.3.48.61.95.9,1.43Z"/><path class="cls-5" d="M629.83,92.71l-.31-.48.31.48Z"/><path class="cls-5" d="M609.07,66.68h0l.55.57Z"/><path class="cls-5" d="M740.78,289.54c0,.13.08.25.13.38C740.86,289.79,740.82,289.67,740.78,289.54Z"/><path class="cls-5" d="M730.63,266.75c.34.63.65,1.26,1,1.9C731.28,268,731,267.38,730.63,266.75Z"/><path class="cls-5" d="M737.64,281.58l.28.66Z"/><path class="cls-5" d="M734.06,273.61c.3.64.61,1.27.9,1.91C734.67,274.88,734.36,274.25,734.06,273.61Z"/><polygon class="cls-5" points="672.46 165.74 671.03 163.27 727.05 260.21 672.46 165.74"/><path class="cls-5" d="M228.92,57.87c.87-.37,1.74-.74,2.61-1.09q.87-.36,1.74-.69l.34-.14q-4.44,1.74-8.78,3.75c.82-.38,1.65-.76,2.47-1.12Z"/><path class="cls-5" d="M278.34,45.86c-1.28.09-2.57.2-3.85.32l2.87-.24Z"/><path class="cls-5" d="M713.65,371.47c.14-1.38.27-2.75.37-4.13l-.12,1.58C713.82,369.77,713.74,370.62,713.65,371.47Z"/><path class="cls-5" d="M258.21,48.64q-2.1.44-4.17.93l1.63-.37Z"/><path class="cls-5" d="M224.63,59.79c-1,.48-2,1-3.07,1.48l1.63-.79Z"/><path class="cls-5" d="M262.91,47.75c-1.4.24-2.79.5-4.17.79l1.59-.32Z"/><path class="cls-5" d="M267.65,47l2.09-.29,2.72-.32q-4.53.51-9,1.26L265,47.4C265.9,47.26,266.77,47.12,267.65,47Z"/><path class="cls-5" d="M170.67,101.79c-1.5,1.86-3,3.73-4.41,5.66h0C167.69,105.52,169.17,103.64,170.67,101.79Z"/><path class="cls-5" d="M220.4,61.84c-.81.41-1.6.83-2.4,1.25l1.25-.66C219.64,62.24,220,62,220.4,61.84Z"/><path class="cls-5" d="M283.93,45.57c-1.55,0-3.11.12-4.65.22l3.2-.16Z"/><path class="cls-5" d="M59.21,292.49q-.95,2.07-1.83,4.17c.36-.84.72-1.68,1.09-2.52C58.71,293.59,59,293,59.21,292.49Z"/><path class="cls-5" d="M55.61,301.1c.32-.83.64-1.66,1-2.49l.31-.76q-1.56,3.82-2.91,7.71.42-1.23.87-2.46Z"/><path class="cls-5" d="M201.87,72.89c-1.49,1-3,2.09-4.42,3.18l.36-.27Q199.82,74.32,201.87,72.89Z"/><path class="cls-5" d="M62.81,285.1l.54-1q-1.34,2.51-2.56,5.05l.56-1.17C61.83,287,62.32,286.05,62.81,285.1Z"/><path class="cls-5" d="M190.79,81.36c1-.85,2-1.69,3.08-2.52l.44-.35c.91-.72,1.84-1.43,2.77-2.13q-4.52,3.4-8.78,7.15c.71-.62,1.41-1.24,2.13-1.84Z"/><path class="cls-5" d="M551.47,68.46l.07,0c-2.35-1.46-4.75-2.84-7.17-4.17l1.4.77C547.69,66.18,549.59,67.29,551.47,68.46Z"/><path class="cls-5" d="M598.59,114.44c.31.47.61.94.91,1.41-1.51-2.37-3.07-4.69-4.7-7h0C596.11,110.71,597.36,112.57,598.59,114.44Z"/><polygon class="cls-5" points="681.79 238.62 655.4 212.25 655.4 212.25 681.79 238.62"/><path class="cls-5" d="M586.92,98.93c-.5-.59-1-1.2-1.49-1.78h0C586,97.74,586.42,98.34,586.92,98.93Z"/><path class="cls-5" d="M579.74,91.08q-5.22-5.31-10.91-10l1.21,1Q575.08,86.34,579.74,91.08Z"/><path class="cls-5" d="M712.14,328.83l-.15-.78.06.32Z"/><path class="cls-5" d="M714.33,362.17c0-1.07.09-2.13.11-3.19,0,.19,0,.38,0,.57C714.41,360.42,714.37,361.29,714.33,362.17Z"/><path class="cls-5" d="M712.87,333.42l-.09-.65c0,.18.05.36.08.54A.41.41,0,0,1,712.87,333.42Z"/><path class="cls-5" d="M499.83,48.2c-.88-.17-1.76-.31-2.64-.46l1.81.31Z"/><path class="cls-5" d="M505.41,49.38c-1-.22-1.91-.4-2.87-.61l1.88.4Z"/><path class="cls-5" d="M517.12,52.62l1.57.51h0c-2.61-.87-5.24-1.68-7.9-2.4l.24.07C513.09,51.37,515.11,52,517.12,52.62Z"/><path class="cls-5" d="M488.85,46.51,488,46.4h0Z"/><path class="cls-5" d="M558.3,73c1.76,1.23,3.5,2.48,5.21,3.78Q558.05,72.6,552.25,69c1.6,1,3.18,2,4.75,3.11Z"/><path class="cls-5" d="M53.49,307c-.34,1-.67,2-1,3.05.26-.82.51-1.65.79-2.47C53.35,307.42,53.42,307.22,53.49,307Z"/><path class="cls-5" d="M542,63.09c-1.17-.62-2.32-1.26-3.5-1.84l.16.08C539.79,61.89,540.9,62.49,542,63.09Z"/><path class="cls-5" d="M527.6,56.42c-.9-.36-1.78-.75-2.69-1.1l.23.09C526,55.73,526.78,56.08,527.6,56.42Z"/><path class="cls-5" d="M240.22,53.53c.64-.22,1.29-.42,1.93-.63-2.11.69-4.22,1.41-6.3,2.19.61-.23,1.22-.44,1.84-.66C238.53,54.12,239.37,53.82,240.22,53.53Z"/><path class="cls-5" d="M517.82,658.32l-1.67.53c1.61-.5,3.2-1,4.79-1.58l-1.11.39Z"/><path class="cls-5" d="M526.78,655.11l-2,.76c1.46-.55,2.91-1.13,4.35-1.72l-.64.27Z"/><path class="cls-5" d="M531.15,653.31l2.5-1.1-.9.41Z"/><path class="cls-5" d="M506.48,661.52l-.7.16,3.39-.84-.11,0C508.2,661.09,507.35,661.31,506.48,661.52Z"/><path class="cls-5" d="M496.74,663.51c1-.17,2-.35,3-.54l-2.58.48Z"/><polygon class="cls-5" points="330.44 675.42 366.47 665.75 416.11 665.73 366.47 665.75 330.44 675.42"/><path class="cls-5" d="M482.45,665.27c1-.08,2.08-.16,3.11-.26l-2.88.25Z"/><path class="cls-5" d="M476.25,665.62c1.51,0,3-.12,4.52-.22-1.06.07-2.14.12-3.21.16Z"/><path class="cls-5" d="M700.76,418.91c-.4.87-.82,1.74-1.23,2.61-.28.57-.55,1.15-.83,1.72-.48,1-1,1.91-1.46,2.86q3-5.7,5.43-11.57c-.36.84-.72,1.68-1.09,2.52C701.31,417.67,701,418.29,700.76,418.91Z"/><path class="cls-5" d="M537.7,650.31c1-.51,2.07-1,3.09-1.55l-1.14.59Z"/><path class="cls-5" d="M710.55,390.12q-.51,2.17-1.08,4.35c-.17.67-.37,1.33-.56,2C709.5,394.36,710.05,392.25,710.55,390.12Z"/><path class="cls-5" d="M706.76,403.58c-.22.68-.46,1.36-.69,2s-.58,1.65-.88,2.47c1.06-2.88,2-5.79,2.9-8.72-.18.57-.36,1.14-.53,1.71C707.3,401.92,707,402.75,706.76,403.58Z"/><path class="cls-5" d="M694.16,431.74q1.25-2.16,2.41-4.35s-.05.08-.07.13Q695.36,429.64,694.16,431.74Z"/><path class="cls-5" d="M543.81,647.18l-.11.06q2.49-1.37,4.95-2.82c-1.43.85-2.86,1.67-4.32,2.46Z"/><path class="cls-5" d="M569.26,629.83c-1,.86-2,1.7-3.08,2.52l-.43.34q-1.56,1.24-3.15,2.43l-.36.27q-2,1.49-4.06,2.91a154,154,0,0,0,13.43-10.5c-.66.58-1.32,1.16-2,1.73Z"/><path class="cls-5" d="M214.27,646.08c1.73,1,3.48,1.89,5.24,2.8-1.27-.66-2.55-1.31-3.81-2Z"/><path class="cls-5" d="M48.78,386.87c.49,2.38,1.06,4.74,1.67,7.09q-.9-3.45-1.64-6.93Z"/><path class="cls-5" d="M170.34,608.94l-1-1.3c-1.38-1.75-2.74-3.52-4.05-5.34v0c-.8-1.11-1.55-2.25-2.32-3.39a151,151,0,0,0,11.71,15.16l0-.06C173.13,612.35,171.72,610.66,170.34,608.94Z"/><path class="cls-5" d="M185,624.66c-1.19-1.11-2.33-2.26-3.48-3.4,1.7,1.68,3.43,3.33,5.2,4.93-.54-.48-1.1-1-1.64-1.45Z"/><path class="cls-5" d="M45.67,350.21c0,.67-.05,1.34-.06,2,0-.19,0-.37,0-.56C45.63,351.17,45.65,350.69,45.67,350.21Z"/><path class="cls-5" d="M46.12,368.52c.15,1.81.33,3.62.54,5.42,0-.15,0-.29,0-.44C46.42,371.84,46.26,370.18,46.12,368.52Z"/><path class="cls-5" d="M46.63,337.61c.12-.94.23-1.89.36-2.83l.27-1.83c-.43,2.88-.78,5.76-1,8.66.07-.76.14-1.52.22-2.28C46.5,338.76,46.57,338.18,46.63,337.61Z"/><path class="cls-5" d="M200,636.93c1,.74,2,1.49,3.08,2.2l-1.34-.93C201.14,637.79,200.57,637.35,200,636.93Z"/><path class="cls-5" d="M244.42,659c1.6.5,3.21,1,4.83,1.44l-.21-.06C247.49,660,246,659.49,244.42,659Z"/><path class="cls-5" d="M272,664.79a69.91,69.91,0,0,0,19.19,9.66A69.91,69.91,0,0,1,272,664.79Z"/><path class="cls-5" d="M255.59,662l-.94-.2c-1.79-.42-3.57-.86-5.35-1.34l-.05,0c3.87,1.06,7.8,1.95,11.76,2.69l-.77-.15C258.68,662.69,257.13,662.36,255.59,662Z"/><path class="cls-5" d="M208.46,642.65c-1.51-.93-3-1.92-4.46-2.91,3.34,2.24,6.75,4.36,10.26,6.33-1.91-1.07-3.8-2.17-5.66-3.33A1.1,1.1,0,0,1,208.46,642.65Z"/><path class="cls-5" d="M266.05,664c1.32.2,2.65.36,4,.53-1.2-.15-2.4-.29-3.6-.47Z"/><path class="cls-5" d="M221.38,649.86l.18.09h0Z"/><path class="cls-5" d="M49.51,321.07c.33-1.45.69-2.9,1.07-4.35.18-.67.37-1.35.56-2,.24-.85.47-1.7.72-2.54-1.32,4.44-2.43,8.94-3.33,13.47.13-.68.28-1.36.43-2C49.14,322.75,49.31,321.91,49.51,321.07Z"/><path class="cls-5" d="M179,618.72l1.34,1.38-1.16-1.18Z"/><path class="cls-5" d="M161.46,596.75c-.31-.47-.61-.94-.91-1.41C160.85,595.81,161.15,596.28,161.46,596.75Z"/><path class="cls-5" d="M191.24,630.18l-1.25-1Z"/><path class="cls-5" d="M713.06,376.4l-.27,1.85q.48-3.19.82-6.4c-.06.58-.13,1.16-.2,1.74C713.3,374.53,713.19,375.47,713.06,376.4Z"/><path class="cls-5" d="M196.39,634.32l-.08-.06Z"/><path class="cls-5" d="M235.14,655.87l-.2-.08Z"/><path class="cls-5" d="M229,653.37l-1.5-.65Z"/><path class="cls-5" d="M242.92,658.57l-1.55-.51Z"/><path class="cls-5" d="M55.18,409Q54,405.84,53,402.61,54,405.84,55.18,409Z"/><path class="cls-5" d="M48,382.82c0-.16-.05-.31-.08-.46C47.94,382.51,48,382.66,48,382.82Z"/><path class="cls-5" d="M45.72,362.24q-.09-2-.12-4Q45.63,360.25,45.72,362.24Z"/><path class="cls-5" d="M45.58,357.19c0-1.65,0-3.3,0-4.95C45.57,353.89,45.57,355.54,45.58,357.19Z"/><path class="cls-5" d="M45.75,348.21l.06-1.24Z"/><path class="cls-5" d="M476,665.63c-1.6,0-3.21.09-4.82.09C472.76,665.72,474.37,665.69,476,665.63Z"/><path class="cls-5" d="M46,367.48c-.11-1.34-.19-2.67-.26-4C45.85,364.81,45.93,366.14,46,367.48Z"/><path class="cls-5" d="M52.57,401.4q-1-3.24-1.89-6.52Q51.55,398.17,52.57,401.4Z"/><path class="cls-5" d="M47.27,378.42c0-.18-.05-.36-.08-.54C47.22,378.06,47.24,378.24,47.27,378.42Z"/><path class="cls-5" d="M578,621.84c-1.7,1.66-3.42,3.29-5.18,4.87C574.62,625.13,576.34,623.5,578,621.84Z"/><path class="cls-5" d="M588.72,610.2c-1.44,1.75-2.92,3.45-4.44,5.13C585.8,613.65,587.28,612,588.72,610.2Z"/><path class="cls-5" d="M583.43,616.27c-1.54,1.67-3.1,3.3-4.71,4.9C580.33,619.57,581.89,617.94,583.43,616.27Z"/><path class="cls-5" d="M46,343.84l.12-1.56Z"/><path class="cls-5" d="M593.79,603.74c-1.42,1.92-2.9,3.79-4.4,5.64C590.89,607.53,592.37,605.66,593.79,603.74Z"/><path class="cls-5" d="M708.91,396.48c-.23.85-.47,1.71-.72,2.56C708.44,398.19,708.68,397.33,708.91,396.48Z"/><path class="cls-5" d="M572.84,626.73l-.1.09Z"/><path class="cls-5" d="M704.44,410.1c-.32.83-.64,1.65-1,2.48C703.8,411.75,704.12,410.93,704.44,410.1Z"/><path class="cls-5" d="M504.36,662c-.84.19-1.68.38-2.52.55C502.68,662.38,503.52,662.19,504.36,662Z"/><path class="cls-5" d="M515.39,659.1c-1.43.43-2.86.85-4.3,1.24C512.53,660,514,659.53,515.39,659.1Z"/><path class="cls-5" d="M557.32,638.89c-1.1.75-2.22,1.5-3.34,2.23C555.1,640.39,556.22,639.64,557.32,638.89Z"/><path class="cls-5" d="M495,663.8l-2.63.4Z"/><path class="cls-5" d="M490.31,664.48l-2.72.32Z"/><path class="cls-5" d="M553,641.78c-1.13.72-2.27,1.42-3.41,2.11C550.68,643.2,551.82,642.5,553,641.78Z"/><path class="cls-5" d="M524.21,656.1c-.61.23-1.22.44-1.84.66C523,656.54,523.6,656.33,524.21,656.1Z"/><path class="cls-5" d="M536.85,650.72l-1.41.67Z"/><path class="cls-5" d="M58.23,416.62c-.95-2.19-1.84-4.41-2.68-6.64C56.39,412.21,57.28,414.43,58.23,416.62Z"/><path class="cls-5" d="M704.87,302.17q1.18,3.18,2.22,6.41Q706.06,305.36,704.87,302.17Z"/><path class="cls-5" d="M707.48,309.79c.67,2.16,1.31,4.33,1.89,6.52C708.79,314.12,708.15,312,707.48,309.79Z"/><path class="cls-5" d="M709.6,317.23c.6,2.3,1.15,4.6,1.64,6.92C710.75,321.83,710.2,319.53,709.6,317.23Z"/><path class="cls-5" d="M579.77,91.11l1.12,1.14Z"/><path class="cls-5" d="M711.24,324.17l0,.15Z"/><path class="cls-5" d="M589.73,102.27l1,1.27Z"/><path class="cls-5" d="M701.82,294.57c.95,2.19,1.83,4.4,2.68,6.63C703.65,299,702.77,296.76,701.82,294.57Z"/><path class="cls-5" d="M714.3,363l-.06,1.29Z"/><path class="cls-5" d="M713.39,337.25c0,.14,0,.28.05.43C713.42,337.53,713.41,337.39,713.39,337.25Z"/><path class="cls-5" d="M563.67,76.88h0Z"/><path class="cls-5" d="M712,382.93c-.15.87-.31,1.75-.48,2.62-.14.7-.3,1.38-.44,2.07.48-2.26.92-4.54,1.3-6.82l0,.18C712.25,381.63,712.13,382.28,712,382.93Z"/><path class="cls-5" d="M714.47,354c0,1.65,0,3.29,0,4.94C714.48,357.29,714.48,355.65,714.47,354Z"/><path class="cls-5" d="M714.33,349q.09,2,.12,4Q714.42,350.95,714.33,349Z"/><path class="cls-5" d="M713.44,337.71c.19,1.65.35,3.3.49,5C713.79,341,713.63,339.36,713.44,337.71Z"/><path class="cls-5" d="M714,343.72c.11,1.33.19,2.66.26,4C714.2,346.38,714.12,345.05,714,343.72Z"/><path class="cls-5" d="M215.74,64.3c.16-.1.33-.19.5-.28C216.07,64.11,215.9,64.2,215.74,64.3Z"/><path class="cls-5" d="M182,89.36c1.7-1.66,3.42-3.3,5.19-4.88C185.42,86.06,183.7,87.7,182,89.36Z"/><path class="cls-5" d="M176.62,94.93c1.54-1.67,3.1-3.31,4.7-4.9C179.72,91.62,178.16,93.26,176.62,94.93Z"/><path class="cls-5" d="M531,57.82l1.49.65Z"/><path class="cls-5" d="M63.55,283.67q1.14-2.12,2.34-4.22Q64.69,281.55,63.55,283.67Z"/><path class="cls-5" d="M59.3,292.29c.39-.88.81-1.75,1.22-2.62C60.11,290.54,59.69,291.41,59.3,292.29Z"/><path class="cls-5" d="M202.74,72.3q1.65-1.14,3.33-2.22Q204.39,71.16,202.74,72.3Z"/><path class="cls-5" d="M171.32,101c1.45-1.75,2.93-3.45,4.45-5.13C174.25,97.54,172.77,99.24,171.32,101Z"/><path class="cls-5" d="M187.19,84.48l.13-.11Z"/><path class="cls-5" d="M284.08,45.56c1.6-.05,3.21-.08,4.82-.08C287.29,45.48,285.68,45.51,284.08,45.56Z"/><path class="cls-5" d="M207.11,69.41c1.12-.72,2.26-1.42,3.4-2.1C209.37,68,208.23,68.69,207.11,69.41Z"/><path class="cls-5" d="M493.59,47.13l.43.07Z"/><path class="cls-5" d="M251,50.32c.84-.22,1.68-.44,2.53-.64C252.71,49.88,251.87,50.1,251,50.32Z"/><path class="cls-5" d="M211.41,66.77q2.11-1.26,4.29-2.45Q213.53,65.51,211.41,66.77Z"/><path class="cls-5" d="M47.69,330.2c.11-.64.23-1.27.34-1.91C47.92,328.93,47.8,329.56,47.69,330.2Z"/><path class="cls-5" d="M244.67,52.09c1.42-.43,2.85-.84,4.29-1.24C247.52,51.25,246.09,51.66,244.67,52.09Z"/></svg>